{
.formatVersion = 3;
axes = (
{
name = Weight;
tag = wght;
}
);
classes = (
{
code = "A Aacute Abreve Acircumflex Adieresis Agrave Amacron Aogonek Aring Atilde AE B C C.ss01 Cacute Ccaron Ccedilla Cdotaccent D Eth Dcaron Dcroat E Eacute Ecaron Ecircumflex Edieresis Edotaccent Egrave Emacron Eogonek F G Gbreve Gcommaaccent Gdotaccent H Hbar I Iacute Icircumflex Idieresis Idotaccent Igrave Imacron Iogonek J K Kcommaaccent L Lacute Lcaron Lcommaaccent Lslash M N Nacute Ncaron Ncommaaccent Eng Ntilde O Oacute Ocircumflex Odieresis Ograve Ohungarumlaut Omacron Oslash Otilde OE P Thorn Q Q.ss01 Q.ss02 R Racute Rcaron Rcommaaccent S Sacute Scaron Scedilla Scommaaccent Germandbls T Tbar Tcaron Tcedilla Tcommaaccent U Uacute Ucircumflex Udieresis Ugrave Uhungarumlaut Umacron Uogonek Uring V W Wacute Wcircumflex Wdieresis Wgrave X Y Yacute Ycircumflex Ydieresis Ygrave Z Zacute Zcaron Zdotaccent";
name = Uppercase;
}
);
familyName = "League Spartan";
customParameters = (
{
name = glyphOrder;
value = (
A,
Aacute,
Abreve,
Abreveacute,
Abrevedotbelow,
Abrevegrave,
Abrevehookabove,
Abrevetilde,
Acircumflex,
Acircumflexacute,
Acircumflexdotbelow,
Acircumflexgrave,
Acircumflexhookabove,
Acircumflextilde,
Adblgrave,
Adieresis,
Adotbelow,
Agrave,
Ahookabove,
Ainvertedbreve,
Amacron,
Aogonek,
Aring,
Aringacute,
Atilde,
AE,
AEacute,
B,
C,
C.ss01,
Cacute,
Cacute.ss01,
Ccaron,
Ccaron.ss01,
Ccedilla,
Ccedilla.ss01,
Ccircumflex,
Ccircumflex.ss01,
Cdotaccent,
Cdotaccent.ss01,
D,
DZcaron,
Eth,
Dcaron,
Dcroat,
Dzcaron,
E,
Eacute,
Ebreve,
Ecaron,
Ecircumflex,
Ecircumflexacute,
Ecircumflexdotbelow,
Ecircumflexgrave,
Ecircumflexhookabove,
Ecircumflextilde,
Edblgrave,
Edieresis,
Edotaccent,
Edotbelow,
Egrave,
Ehookabove,
Einvertedbreve,
Emacron,
Eogonek,
Etilde,
F,
G,
Gbreve,
Gcaron,
Gcircumflex,
Gcommaaccent,
Gdotaccent,
H,
Hbar,
Hcircumflex,
I,
Iacute,
Ibreve,
Icircumflex,
Idblgrave,
Idieresis,
Idotaccent,
Idotbelow,
Igrave,
Ihookabove,
Iinvertedbreve,
Imacron,
Iogonek,
Itilde,
J,
Jcircumflex,

glyphs = (
{
glyphname = A;
layers = (
{
anchors = (
{
name = bottom;
position = "{702, 0}";
},
{
name = ogonek;
position = "{1245, 16}";
},
{
name = top;
position = "{702, 1320}";
}
);
layerId = "004841D3-970D-426C-AC4F-50F76441CB62";
name = "#instance";
shapes = (
{
closed = 1;
nodes = (
(-32,0,l),
(382,0,l),
(467,229,l),
(938,229,l),
(1022,0,l),
(1435,0,l),
(891,1320,l),
(512,1320,l)
);
},
{
closed = 1;
nodes = (
(701,856,l),
(704,856,l),
(808,565,l),
(597,565,l)
);
}
);
width = 1451;
},
{
anchors = (
{
name = bottom;
position = "{702, 0}";
},
{
name = ogonek;
position = "{1245, 16}";
},
{
name = top;
position = "{702, 1320}";
}
);
layerId = "C0D83D2B-9CDF-4EFD-A4CD-122316F7B684";
shapes = (
{
closed = 1;
nodes = (
(-32,0,l),
(382,0,l),
(467,229,l),
(938,229,l),
(1022,0,l),
(1435,0,l),
(891,1320,l),
(512,1320,l)
);
},
{
closed = 1;
nodes = (
(701,856,l),
(704,856,l),
(808,565,l),
(597,565,l)
);
}
);
width = 1451;
},
{
anchors = (
{
name = bottom;
position = "{599, 0}";
},
{
name = ogonek;
position = "{1040, 16}";
},
{
name = top;
position = "{599, 1320}";
}
);
layerId = "825DD155-F87C-490A-ABDF-19954D756790";
shapes = (
{
closed = 1;
nodes = (
(20,0,l),
(203,0,l),
(319,318,l),
(879,318,l),
(993,0,l),
(1176,0,l),
(688,1320,l),
(510,1320,l)
);
},
{
closed = 1;
nodes = (
(598,1110,l),
(601,1110,l),
(825,472,l),
(374,472,l)
);
}
);
width = 1208;
},
{
anchors = (
{
name = bottom;
position = "{547, 0}";
},
{
name = ogonek;
position = "{938, 16}";
},
{
name = top;
position = "{547, 1320}";
}
);
layerId = "01003CDD-FB01-4E06-850F-7A3DCDD105CB";
shapes = (
{
closed = 1;
nodes = (
(46,0,l),
(114,0,l),
(245,362,l),
(850,362,l),
(979,0,l),
(1046,0,l),
(586,1320,l),
(509,1320,l)
);
},
{
closed = 1;
nodes = (
(546,1237,l),
(549,1237,l),
(834,426,l),
(262,426,l)
);
}
);
width = 1086;
}
);
leftKerningGroup = A;
rightKerningGroup = A;
unicode = 65;
},
{
glyphname = Aacute;
layers = (
{
layerId = "004841D3-970D-426C-AC4F-50F76441CB62";
name = "#instance";
shapes = (
{
closed = 1;
nodes = (
(46,0,l),
(114,0,l),
(245,362,l),
(850,362,l),
(979,0,l),
(1046,0,l),
(586,1320,l),
(509,1320,l)
);
},
{
closed = 1;
nodes = (
(546,1237,l),
(549,1237,l),
(834,426,l),
(262,426,l)
);
},
{
closed = 1;
nodes = (
(781,1576,l),
(722,1651,l),
(434,1425,l),
(473,1376,l)
);
}
);
width = 1086;
},
{
layerId = "C0D83D2B-9CDF-4EFD-A4CD-122316F7B684";
shapes = (
{
closed = 1;
nodes = (
(-32,0,l),
(382,0,l),
(467,229,l),
(938,229,l),
(1022,0,l),
(1435,0,l),
(891,1320,l),
(512,1320,l)
);
},
{
closed = 1;
nodes = (
(701,856,l),
(704,856,l),
(808,565,l),
(597,565,l)
);
},
{
closed = 1;
nodes = (
(1020,1605,l),
(844,1827,l),
(504,1526,l),
(613,1376,l)
);
}
);
width = 1451;
},
{
layerId = "825DD155-F87C-490A-ABDF-19954D756790";
shapes = (
{
closed = 1;
nodes = (
(20,0,l),
(203,0,l),
(319,318,l),
(879,318,l),
(993,0,l),
(1176,0,l),
(688,1320,l),
(510,1320,l)
);
},
{
closed = 1;
nodes = (
(598,1110,l),
(601,1110,l),
(825,472,l),
(374,472,l)
);
},
{
closed = 1;
nodes = (
(861,1586,l),
(763,1710,l),
(458,1459,l),
(520,1376,l)
);
}
);
width = 1208;
},
{
layerId = "01003CDD-FB01-4E06-850F-7A3DCDD105CB";
shapes = (
{
closed = 1;
nodes = (
(46,0,l),
(114,0,l),
(245,362,l),
(850,362,l),
(979,0,l),
(1046,0,l),
(586,1320,l),
(509,1320,l)
);
},
{
closed = 1;
nodes = (
(546,1237,l),
(549,1237,l),
(834,426,l),
(262,426,l)
);
},
{
closed = 1;
nodes = (
(781,1576,l),
(722,1651,l),
(434,1425,l),
(473,1376,l)
);
}
);
width = 1086;
}
);
unicode = 193;
},
{
glyphname = Abreve;
layers = (
{
layerId = "004841D3-970D-426C-AC4F-50F76441CB62";
name = "#instance";
shapes = (
{
closed = 1;
nodes = (
(46,0,l),
(114,0,l),
(245,362,l),
(850,362,l),
(979,0,l),
(1046,0,l),
(586,1320,l),
(509,1320,l)
);
},
{
closed = 1;
nodes = (
(546,1237,l),
(549,1237,l),
(834,426,l),
(262,426,l)
);
},
{
closed = 1;
nodes = (
(694,1580,l),
(683,1525,o),
(635,1452,o),
(547,1452,cs),
(459,1452,o),
(409,1525,o),
(398,1580,c),
(315,1559,l),
(323,1485,o),
(404,1380,o),
(547,1380,cs),
(691,1380,o),
(771,1489,o),
(779,1559,c)
);
}
);
width = 1086;
},
{
layerId = "C0D83D2B-9CDF-4EFD-A4CD-122316F7B684";
shapes = (
{
closed = 1;
nodes = (
(-32,0,l),
(382,0,l),
(467,229,l),
(938,229,l),
(1022,0,l),
(1435,0,l),
(891,1320,l),
(512,1320,l)
);
},
{
closed = 1;
nodes = (
(701,856,l),
(704,856,l),
(808,565,l),
(597,565,l)
);
},
{
closed = 1;
nodes = (
(854,1722,l),
(848,1655,o),
(802,1567,o),
(702,1567,cs),
(601,1567,o),
(557,1655,o),
(551,1722,c),
(339,1669,l),
(360,1489,o),
(504,1384,o),
(702,1384,cs),
(905,1384,o),
(1045,1495,o),
(1064,1669,c)
);
}
);
width = 1451;
},
{
layerId = "825DD155-F87C-490A-ABDF-19954D756790";
shapes = (
{
closed = 1;
nodes = (
(20,0,l),
(203,0,l),
(319,318,l),
(879,318,l),
(993,0,l),
(1176,0,l),
(688,1320,l),
(510,1320,l)
);
},
{
closed = 1;
nodes = (
(598,1110,l),
(601,1110,l),
(825,472,l),
(374,472,l)
);
},
{
closed = 1;
nodes = (
(747,1627,l),
(738,1568,o),
(691,1490,o),
(599,1490,cs),
(506,1490,o),
(458,1568,o),
(449,1627,c),
(323,1596,l),
(335,1486,o),
(437,1381,o),
(599,1381,cs),
(762,1381,o),
(862,1491,o),
(874,1596,c)
);
}
);
width = 1208;
},
{
layerId = "01003CDD-FB01-4E06-850F-7A3DCDD105CB";
shapes = (
{
closed = 1;
nodes = (
(46,0,l),
(114,0,l),
(245,362,l),
(850,362,l),
(979,0,l),
(1046,0,l),
(586,1320,l),
(509,1320,l)
);
},
{
closed = 1;
nodes = (
(546,1237,l),
(549,1237,l),
(834,426,l),
(262,426,l)
);
},
{
closed = 1;
nodes = (
(694,1580,l),
(683,1525,o),
(635,1452,o),
(547,1452,cs),
(459,1452,o),
(409,1525,o),
(398,1580,c),
(315,1559,l),
(323,1485,o),
(404,1380,o),
(547,1380,cs),
(691,1380,o),
(771,1489,o),
(779,1559,c)
);
}
);
width = 1086;
}
);
unicode = 258;
},
{
glyphname = Abreveacute;
layers = (
{
layerId = "004841D3-970D-426C-AC4F-50F76441CB62";
name = "#instance";
shapes = (
{
closed = 1;
nodes = (
(46,0,l),
(114,0,l),
(245,362,l),
(850,362,l),
(979,0,l),
(1046,0,l),
(586,1320,l),
(509,1320,l)
);
},
{
closed = 1;
nodes = (
(546,1237,l),
(549,1237,l),
(834,426,l),
(262,426,l)
);
},
{
closed = 1;
nodes = (
(694,1580,l),
(683,1525,o),
(635,1452,o),
(547,1452,cs),
(459,1452,o),
(409,1525,o),
(398,1580,c),
(315,1559,l),
(323,1485,o),
(404,1380,o),
(547,1380,cs),
(691,1380,o),
(771,1489,o),
(779,1559,c)
);
},
{
closed = 1;
nodes = (
(781,1836,l),
(722,1911,l),
(434,1685,l),
(473,1636,l)
);
}
);
width = 1086;
},
{
layerId = "C0D83D2B-9CDF-4EFD-A4CD-122316F7B684";
shapes = (
{
closed = 1;
nodes = (
(-32,0,l),
(382,0,l),
(467,229,l),
(938,229,l),
(1022,0,l),
(1435,0,l),
(891,1320,l),
(512,1320,l)
);
},
{
closed = 1;
nodes = (
(701,856,l),
(704,856,l),
(808,565,l),
(597,565,l)
);
},
{
closed = 1;
nodes = (
(854,1722,l),
(848,1655,o),
(802,1567,o),
(702,1567,cs),
(601,1567,o),
(557,1655,o),
(551,1722,c),
(339,1669,l),
(360,1489,o),
(504,1384,o),
(702,1384,cs),
(905,1384,o),
(1045,1495,o),
(1064,1669,c)
);
},
{
closed = 1;
nodes = (
(1020,2007,l),
(844,2229,l),
(504,1928,l),
(613,1778,l)
);
}
);
width = 1451;
},
{
layerId = "825DD155-F87C-490A-ABDF-19954D756790";
shapes = (
{
closed = 1;
nodes = (
(20,0,l),
(203,0,l),
(319,318,l),
(879,318,l),
(993,0,l),
(1176,0,l),
(688,1320,l),
(510,1320,l)
);
},
{
closed = 1;
nodes = (
(598,1110,l),
(601,1110,l),
(825,472,l),
(374,472,l)
);
},
{
closed = 1;
nodes = (
(747,1627,l),
(738,1568,o),
(691,1490,o),
(599,1490,cs),
(506,1490,o),
(458,1568,o),
(449,1627,c),
(323,1596,l),
(335,1486,o),
(437,1381,o),
(599,1381,cs),
(762,1381,o),
(862,1491,o),
(874,1596,c)
);
},
{
closed = 1;
nodes = (
(861,1893,l),
(763,2017,l),
(458,1766,l),
(520,1683,l)
);
}
);
width = 1208;
},
{
layerId = "01003CDD-FB01-4E06-850F-7A3DCDD105CB";
shapes = (
{
closed = 1;
nodes = (
(46,0,l),
(114,0,l),
(245,362,l),
(850,362,l),
(979,0,l),
(1046,0,l),
(586,1320,l),
(509,1320,l)
);
},
{
closed = 1;
nodes = (
(546,1237,l),
(549,1237,l),
(834,426,l),
(262,426,l)
);
},
{
closed = 1;
nodes = (
(694,1580,l),
(683,1525,o),
(635,1452,o),
(547,1452,cs),
(459,1452,o),
(409,1525,o),
(398,1580,c),
(315,1559,l),
(323,1485,o),
(404,1380,o),
(547,1380,cs),
(691,1380,o),
(771,1489,o),
(779,1559,c)
);
},
{
closed = 1;
nodes = (
(781,1836,l),
(722,1911,l),
(434,1685,l),
(473,1636,l)
);
}
);
width = 1086;
}
);
unicode = 7854;
},
{
glyphname = Abrevedotbelow;
layers = (
{
layerId = "004841D3-970D-426C-AC4F-50F76441CB62";
name = "#instance";
shapes = (
{
closed = 1;
nodes = (
(46,0,l),
(114,0,l),
(245,362,l),
(850,362,l),
(979,0,l),
(1046,0,l),
(586,1320,l),
(509,1320,l)
);
},
{
closed = 1;
nodes = (
(546,1237,l),
(549,1237,l),
(834,426,l),
(262,426,l)
);
},
{
closed = 1;
nodes = (
(506,-96,o),
(473,-131,o),
(473,-170,cs),
(473,-208,o),
(506,-243,o),
(546,-243,cs),
(585,-243,o),
(620,-210,o),
(620,-170,cs),
(620,-130,o),
(585,-96,o),
(546,-96,cs)
);
},
{
closed = 1;
nodes = (
(694,1580,l),
(683,1525,o),
(635,1452,o),
(547,1452,cs),
(459,1452,o),
(409,1525,o),
(398,1580,c),
(315,1559,l),
(323,1485,o),
(404,1380,o),
(547,1380,cs),
(691,1380,o),
(771,1489,o),
(779,1559,c)
);
}
);
width = 1086;
},
{
layerId = "C0D83D2B-9CDF-4EFD-A4CD-122316F7B684";
shapes = (
{
closed = 1;
nodes = (
(-32,0,l),
(382,0,l),
(467,229,l),
(938,229,l),
(1022,0,l),
(1435,0,l),
(891,1320,l),
(512,1320,l)
);
},
{
closed = 1;
nodes = (
(701,856,l),
(704,856,l),
(808,565,l),
(597,565,l)
);
},
{
closed = 1;
nodes = (
(629,-85,o),
(571,-145,o),
(571,-217,cs),
(571,-289,o),
(629,-348,o),
(702,-348,cs),
(774,-348,o),
(832,-289,o),
(832,-217,cs),
(832,-145,o),
(774,-85,o),
(702,-85,cs)
);
},
{
closed = 1;
nodes = (
(854,1722,l),
(848,1655,o),
(802,1567,o),
(702,1567,cs),
(601,1567,o),
(557,1655,o),
(551,1722,c),
(339,1669,l),
(360,1489,o),
(504,1384,o),
(702,1384,cs),
(905,1384,o),
(1045,1495,o),
(1064,1669,c)
);
}
);
width = 1451;
},
{
layerId = "825DD155-F87C-490A-ABDF-19954D756790";
shapes = (
{
closed = 1;
nodes = (
(20,0,l),
(203,0,l),
(319,318,l),
(879,318,l),
(993,0,l),
(1176,0,l),
(688,1320,l),
(510,1320,l)
);
},
{
closed = 1;
nodes = (
(598,1110,l),
(601,1110,l),
(825,472,l),
(374,472,l)
);
},
{
closed = 1;
nodes = (
(547,-92,o),
(506,-136,o),
(506,-186,cs),
(506,-235,o),
(547,-278,o),
(598,-278,cs),
(648,-278,o),
(691,-236,o),
(691,-186,cs),
(691,-135,o),
(648,-92,o),
(598,-92,cs)
);
},
{
closed = 1;
nodes = (
(747,1627,l),
(738,1568,o),
(691,1490,o),
(599,1490,cs),
(506,1490,o),
(458,1568,o),
(449,1627,c),
(323,1596,l),
(335,1486,o),
(437,1381,o),
(599,1381,cs),
(762,1381,o),
(862,1491,o),
(874,1596,c)
);
}
);
width = 1208;
},
{
layerId = "01003CDD-FB01-4E06-850F-7A3DCDD105CB";
shapes = (
{
closed = 1;
nodes = (
(46,0,l),
(114,0,l),
(245,362,l),
(850,362,l),
(979,0,l),
(1046,0,l),
(586,1320,l),
(509,1320,l)
);
},
{
closed = 1;
nodes = (
(546,1237,l),
(549,1237,l),
(834,426,l),
(262,426,l)
);
},
{
closed = 1;
nodes = (
(506,-96,o),
(473,-131,o),
(473,-170,cs),
(473,-208,o),
(506,-243,o),
(546,-243,cs),
(585,-243,o),
(620,-210,o),
(620,-170,cs),
(620,-130,o),
(585,-96,o),
(546,-96,cs)
);
},
{
closed = 1;
nodes = (
(694,1580,l),
(683,1525,o),
(635,1452,o),
(547,1452,cs),
(459,1452,o),
(409,1525,o),
(398,1580,c),
(315,1559,l),
(323,1485,o),
(404,1380,o),
(547,1380,cs),
(691,1380,o),
(771,1489,o),
(779,1559,c)
);
}
);
width = 1086;
}
);
unicode = 7862;
},
{
glyphname = Abrevegrave;
layers = (
{
layerId = "004841D3-970D-426C-AC4F-50F76441CB62";
name = "#instance";
shapes = (
{
closed = 1;
nodes = (
(46,0,l),
(114,0,l),
(245,362,l),
(850,362,l),
(979,0,l),
(1046,0,l),
(586,1320,l),
(509,1320,l)
);
},
{
closed = 1;
nodes = (
(546,1237,l),
(549,1237,l),
(834,426,l),
(262,426,l)
);
},
{
closed = 1;
nodes = (
(694,1580,l),
(683,1525,o),
(635,1452,o),
(547,1452,cs),
(459,1452,o),
(409,1525,o),
(398,1580,c),
(315,1559,l),
(323,1485,o),
(404,1380,o),
(547,1380,cs),
(691,1380,o),
(771,1489,o),
(779,1559,c)
);
},
{
closed = 1;
nodes = (
(642,1685,l),
(354,1911,l),
(295,1836,l),
(603,1636,l)
);
}
);
width = 1086;
},
{
layerId = "C0D83D2B-9CDF-4EFD-A4CD-122316F7B684";
shapes = (
{
closed = 1;
nodes = (
(-32,0,l),
(382,0,l),
(467,229,l),
(938,229,l),
(1022,0,l),
(1435,0,l),
(891,1320,l),
(512,1320,l)
);
},
{
closed = 1;
nodes = (
(701,856,l),
(704,856,l),
(808,565,l),
(597,565,l)
);
},
{
closed = 1;
nodes = (
(854,1722,l),
(848,1655,o),
(802,1567,o),
(702,1567,cs),
(601,1567,o),
(557,1655,o),
(551,1722,c),
(339,1669,l),
(360,1489,o),
(504,1384,o),
(702,1384,cs),
(905,1384,o),
(1045,1495,o),
(1064,1669,c)
);
},
{
closed = 1;
nodes = (
(879,1928,l),
(539,2229,l),
(363,2007,l),
(770,1778,l)
);
}
);
width = 1451;
},
{
layerId = "825DD155-F87C-490A-ABDF-19954D756790";
shapes = (
{
closed = 1;
nodes = (
(20,0,l),
(203,0,l),
(319,318,l),
(879,318,l),
(993,0,l),
(1176,0,l),
(688,1320,l),
(510,1320,l)
);
},
{
closed = 1;
nodes = (
(598,1110,l),
(601,1110,l),
(825,472,l),
(374,472,l)
);
},
{
closed = 1;
nodes = (
(747,1627,l),
(738,1568,o),
(691,1490,o),
(599,1490,cs),
(506,1490,o),
(458,1568,o),
(449,1627,c),
(323,1596,l),
(335,1486,o),
(437,1381,o),
(599,1381,cs),
(762,1381,o),
(862,1491,o),
(874,1596,c)
);
},
{
closed = 1;
nodes = (
(721,1766,l),
(415,2017,l),
(317,1893,l),
(658,1683,l)
);
}
);
width = 1208;
},
{
layerId = "01003CDD-FB01-4E06-850F-7A3DCDD105CB";
shapes = (
{
closed = 1;
nodes = (
(46,0,l),
(114,0,l),
(245,362,l),
(850,362,l),
(979,0,l),
(1046,0,l),
(586,1320,l),
(509,1320,l)
);
},
{
closed = 1;
nodes = (
(546,1237,l),
(549,1237,l),
(834,426,l),
(262,426,l)
);
},
{
closed = 1;
nodes = (
(694,1580,l),
(683,1525,o),
(635,1452,o),
(547,1452,cs),
(459,1452,o),
(409,1525,o),
(398,1580,c),
(315,1559,l),
(323,1485,o),
(404,1380,o),
(547,1380,cs),
(691,1380,o),
(771,1489,o),
(779,1559,c)
);
},
{
closed = 1;
nodes = (
(642,1685,l),
(354,1911,l),
(295,1836,l),
(603,1636,l)
);
}
);
width = 1086;
}
);
unicode = 7856;
},
{
glyphname = Abrevehookabove;
layers = (
{
layerId = "004841D3-970D-426C-AC4F-50F76441CB62";
name = "#instance";
shapes = (
{
closed = 1;
nodes = (
(46,0,l),
(114,0,l),
(245,362,l),
(850,362,l),
(979,0,l),
(1046,0,l),
(586,1320,l),
(509,1320,l)
);
},
{
closed = 1;
nodes = (
(546,1237,l),
(549,1237,l),
(834,426,l),
(262,426,l)
);
},
{
closed = 1;
nodes = (
(694,1580,l),
(683,1525,o),
(635,1452,o),
(547,1452,cs),
(459,1452,o),
(409,1525,o),
(398,1580,c),
(315,1559,l),
(323,1485,o),
(404,1380,o),
(547,1380,cs),
(691,1380,o),
(771,1489,o),
(779,1559,c)
);
},
{
closed = 1;
nodes = (
(532,1662,l),
(619,1699,o),
(745,1755,o),
(745,1882,cs),
(745,2011,o),
(649,2050,o),
(548,2050,cs),
(441,2050,o),
(372,2018,o),
(348,2002,c),
(348,1938,l),
(388,1958,o),
(472,1987,o),
(529,1987,cs),
(590,1987,o),
(678,1981,o),
(678,1874,cs),
(678,1777,o),
(550,1728,o),
(494,1714,c)
);
}
);
width = 1086;
},
{
layerId = "C0D83D2B-9CDF-4EFD-A4CD-122316F7B684";
shapes = (
{
closed = 1;
nodes = (
(-32,0,l),
(382,0,l),
(467,229,l),
(938,229,l),
(1022,0,l),
(1435,0,l),
(891,1320,l),
(512,1320,l)
);
},
{
closed = 1;
nodes = (
(701,856,l),
(704,856,l),
(808,565,l),
(597,565,l)
);
},
{
closed = 1;
nodes = (
(854,1722,l),
(848,1655,o),
(802,1567,o),
(702,1567,cs),
(601,1567,o),
(557,1655,o),
(551,1722,c),
(339,1669,l),
(360,1489,o),
(504,1384,o),
(702,1384,cs),
(905,1384,o),
(1045,1495,o),
(1064,1669,c)
);
},
{
closed = 1;
nodes = (
(663,1787,l),
(740,1806,o),
(940,1878,o),
(940,2026,cs),
(940,2165,o),
(801,2216,o),
(663,2216,cs),
(540,2216,o),
(487,2189,o),
(463,2175,c),
(463,2018,l),
(503,2035,o),
(559,2056,o),
(617,2056,cs),
(678,2056,o),
(713,2049,o),
(713,2001,cs),
(713,1952,o),
(617,1910,o),
(577,1901,c)
);
}
);
width = 1451;
},
{
layerId = "825DD155-F87C-490A-ABDF-19954D756790";
shapes = (
{
closed = 1;
nodes = (
(20,0,l),
(203,0,l),
(319,318,l),
(879,318,l),
(993,0,l),
(1176,0,l),
(688,1320,l),
(510,1320,l)
);
},
{
closed = 1;
nodes = (
(598,1110,l),
(601,1110,l),
(825,472,l),
(374,472,l)
);
},
{
closed = 1;
nodes = (
(747,1627,l),
(738,1568,o),
(691,1490,o),
(599,1490,cs),
(506,1490,o),
(458,1568,o),
(449,1627,c),
(323,1596,l),
(335,1486,o),
(437,1381,o),
(599,1381,cs),
(762,1381,o),
(862,1491,o),
(874,1596,c)
);
},
{
closed = 1;
nodes = (
(575,1703,l),
(659,1734,o),
(810,1796,o),
(810,1930,cs),
(810,2062,o),
(699,2105,o),
(586,2105,cs),
(474,2105,o),
(410,2075,o),
(386,2059,c),
(386,1964,l),
(426,1983,o),
(501,2010,o),
(558,2010,cs),
(619,2010,o),
(689,2003,o),
(689,1916,cs),
(689,1835,o),
(572,1788,o),
(521,1776,c)
);
}
);
width = 1208;
},
{
layerId = "01003CDD-FB01-4E06-850F-7A3DCDD105CB";
shapes = (
{
closed = 1;
nodes = (
(46,0,l),
(114,0,l),
(245,362,l),
(850,362,l),
(979,0,l),
(1046,0,l),
(586,1320,l),
(509,1320,l)
);
},
{
closed = 1;
nodes = (
(546,1237,l),
(549,1237,l),
(834,426,l),
(262,426,l)
);
},
{
closed = 1;
nodes = (
(694,1580,l),
(683,1525,o),
(635,1452,o),
(547,1452,cs),
(459,1452,o),
(409,1525,o),
(398,1580,c),
(315,1559,l),
(323,1485,o),
(404,1380,o),
(547,1380,cs),
(691,1380,o),
(771,1489,o),
(779,1559,c)
);
},
{
closed = 1;
nodes = (
(532,1662,l),
(619,1699,o),
(745,1755,o),
(745,1882,cs),
(745,2011,o),
(649,2050,o),
(548,2050,cs),
(441,2050,o),
(372,2018,o),
(348,2002,c),
(348,1938,l),
(388,1958,o),
(472,1987,o),
(529,1987,cs),
(590,1987,o),
(678,1981,o),
(678,1874,cs),
(678,1777,o),
(550,1728,o),
(494,1714,c)
);
}
);
width = 1086;
}
);
unicode = 7858;
},
{
glyphname = Abrevetilde;
layers = (
{
layerId = "004841D3-970D-426C-AC4F-50F76441CB62";
name = "#instance";
shapes = (
{
closed = 1;
nodes = (
(46,0,l),
(114,0,l),
(245,362,l),
(850,362,l),
(979,0,l),
(1046,0,l),
(586,1320,l),
(509,1320,l)
);
},
{
closed = 1;
nodes = (
(546,1237,l),
(549,1237,l),
(834,426,l),
(262,426,l)
);
},
{
closed = 1;
nodes = (
(694,1580,l),
(683,1525,o),
(635,1452,o),
(547,1452,cs),
(459,1452,o),
(409,1525,o),
(398,1580,c),
(315,1559,l),
(323,1485,o),
(404,1380,o),
(547,1380,cs),
(691,1380,o),
(771,1489,o),
(779,1559,c)
);
},
{
closed = 1;
nodes = (
(513,1752,o),
(555,1675,o),
(675,1675,cs),
(763,1675,o),
(825,1763,o),
(847,1830,c),
(751,1830,l),
(743,1796,o),
(713,1752,o),
(659,1752,cs),
(567,1752,o),
(534,1830,o),
(414,1830,cs),
(326,1830,o),
(267,1742,o),
(247,1675,c),
(343,1675,l),
(355,1708,o),
(390,1752,o),
(441,1752,cs)
);
}
);
width = 1086;
},
{
layerId = "C0D83D2B-9CDF-4EFD-A4CD-122316F7B684";
shapes = (
{
closed = 1;
nodes = (
(-32,0,l),
(382,0,l),
(467,229,l),
(938,229,l),
(1022,0,l),
(1435,0,l),
(891,1320,l),
(512,1320,l)
);
},
{
closed = 1;
nodes = (
(701,856,l),
(704,856,l),
(808,565,l),
(597,565,l)
);
},
{
closed = 1;
nodes = (
(854,1722,l),
(848,1655,o),
(802,1567,o),
(702,1567,cs),
(601,1567,o),
(557,1655,o),
(551,1722,c),
(339,1669,l),
(360,1489,o),
(504,1384,o),
(702,1384,cs),
(905,1384,o),
(1045,1495,o),
(1064,1669,c)
);
},
{
closed = 1;
nodes = (
(650,1881,o),
(734,1809,o),
(862,1809,cs),
(1004,1809,o),
(1079,1990,o),
(1097,2126,c),
(911,2126,l),
(902,2096,o),
(878,2054,o),
(846,2054,cs),
(758,2054,o),
(671,2126,o),
(543,2126,cs),
(401,2126,o),
(324,1945,o),
(306,1809,c),
(492,1809,l),
(500,1840,o),
(522,1881,o),
(554,1881,cs)
);
}
);
width = 1451;
},
{
layerId = "825DD155-F87C-490A-ABDF-19954D756790";
shapes = (
{
closed = 1;
nodes = (
(20,0,l),
(203,0,l),
(319,318,l),
(879,318,l),
(993,0,l),
(1176,0,l),
(688,1320,l),
(510,1320,l)
);
},
{
closed = 1;
nodes = (
(598,1110,l),
(601,1110,l),
(825,472,l),
(374,472,l)
);
},
{
closed = 1;
nodes = (
(747,1627,l),
(738,1568,o),
(691,1490,o),
(599,1490,cs),
(506,1490,o),
(458,1568,o),
(449,1627,c),
(323,1596,l),
(335,1486,o),
(437,1381,o),
(599,1381,cs),
(762,1381,o),
(862,1491,o),
(874,1596,c)
);
},
{
closed = 1;
nodes = (
(558,1795,o),
(614,1719,o),
(737,1719,cs),
(843,1719,o),
(909,1838,o),
(930,1928,c),
(804,1928,l),
(796,1896,o),
(768,1852,o),
(721,1852,cs),
(630,1852,o),
(579,1928,o),
(457,1928,cs),
(351,1928,o),
(286,1809,o),
(266,1719,c),
(392,1719,l),
(403,1752,o),
(434,1795,o),
(478,1795,cs)
);
}
);
width = 1208;
},
{
layerId = "01003CDD-FB01-4E06-850F-7A3DCDD105CB";
shapes = (
{
closed = 1;
nodes = (
(46,0,l),
(114,0,l),
(245,362,l),
(850,362,l),
(979,0,l),
(1046,0,l),
(586,1320,l),
(509,1320,l)
);
},
{
closed = 1;
nodes = (
(546,1237,l),
(549,1237,l),
(834,426,l),
(262,426,l)
);
},
{
closed = 1;
nodes = (
(694,1580,l),
(683,1525,o),
(635,1452,o),
(547,1452,cs),
(459,1452,o),
(409,1525,o),
(398,1580,c),
(315,1559,l),
(323,1485,o),
(404,1380,o),
(547,1380,cs),
(691,1380,o),
(771,1489,o),
(779,1559,c)
);
},
{
closed = 1;
nodes = (
(513,1752,o),
(555,1675,o),
(675,1675,cs),
(763,1675,o),
(825,1763,o),
(847,1830,c),
(751,1830,l),
(743,1796,o),
(713,1752,o),
(659,1752,cs),
(567,1752,o),
(534,1830,o),
(414,1830,cs),
(326,1830,o),
(267,1742,o),
(247,1675,c),
(343,1675,l),
(355,1708,o),
(390,1752,o),
(441,1752,cs)
);
}
);
width = 1086;
}
);
unicode = 7860;
},
{
glyphname = Acircumflex;
layers = (
{
layerId = "004841D3-970D-426C-AC4F-50F76441CB62";
name = "#instance";
shapes = (
{
closed = 1;
nodes = (
(46,0,l),
(114,0,l),
(245,362,l),
(850,362,l),
(979,0,l),
(1046,0,l),
(586,1320,l),
(509,1320,l)
);
},
{
closed = 1;
nodes = (
(546,1237,l),
(549,1237,l),
(834,426,l),
(262,426,l)
);
},
{
closed = 1;
nodes = (
(546,1559,l),
(753,1407,l),
(801,1473,l),
(546,1660,l),
(292,1474,l),
(341,1409,l)
);
}
);
width = 1086;
},
{
layerId = "C0D83D2B-9CDF-4EFD-A4CD-122316F7B684";
shapes = (
{
closed = 1;
nodes = (
(-32,0,l),
(382,0,l),
(467,229,l),
(938,229,l),
(1022,0,l),
(1435,0,l),
(891,1320,l),
(512,1320,l)
);
},
{
closed = 1;
nodes = (
(701,856,l),
(704,856,l),
(808,565,l),
(597,565,l)
);
},
{
closed = 1;
nodes = (
(702,1582,l),
(960,1393,l),
(1091,1567,l),
(702,1852,l),
(312,1567,l),
(443,1393,l)
);
}
);
width = 1451;
},
{
layerId = "825DD155-F87C-490A-ABDF-19954D756790";
shapes = (
{
closed = 1;
nodes = (
(20,0,l),
(203,0,l),
(319,318,l),
(879,318,l),
(993,0,l),
(1176,0,l),
(688,1320,l),
(510,1320,l)
);
},
{
closed = 1;
nodes = (
(598,1110,l),
(601,1110,l),
(825,472,l),
(374,472,l)
);
},
{
closed = 1;
nodes = (
(598,1567,l),
(822,1402,l),
(898,1504,l),
(598,1724,l),
(299,1505,l),
(375,1404,l)
);
}
);
width = 1208;
},
{
layerId = "01003CDD-FB01-4E06-850F-7A3DCDD105CB";
shapes = (
{
closed = 1;
nodes = (
(46,0,l),
(114,0,l),
(245,362,l),
(850,362,l),
(979,0,l),
(1046,0,l),
(586,1320,l),
(509,1320,l)
);
},
{
closed = 1;
nodes = (
(546,1237,l),
(549,1237,l),
(834,426,l),
(262,426,l)
);
},
{
closed = 1;
nodes = (
(546,1559,l),
(753,1407,l),
(801,1473,l),
(546,1660,l),
(292,1474,l),
(341,1409,l)
);
}
);
width = 1086;
}
);
unicode = 194;
},
{
glyphname = Acircumflexacute;
layers = (
{
layerId = "004841D3-970D-426C-AC4F-50F76441CB62";
name = "#instance";
shapes = (
{
closed = 1;
nodes = (
(46,0,l),
(114,0,l),
(245,362,l),
(850,362,l),
(979,0,l),
(1046,0,l),
(586,1320,l),
(509,1320,l)
);
},
{
closed = 1;
nodes = (
(546,1237,l),
(549,1237,l),
(834,426,l),
(262,426,l)
);
},
{
closed = 1;
nodes = (
(547,1579,l),
(754,1427,l),
(802,1493,l),
(547,1680,l),
(293,1494,l),
(342,1429,l)
);
},
{
closed = 1;
nodes = (
(1040,1866,l),
(979,1941,l),
(693,1715,l),
(731,1666,l)
);
}
);
width = 1086;
},
{
layerId = "C0D83D2B-9CDF-4EFD-A4CD-122316F7B684";
shapes = (
{
closed = 1;
nodes = (
(-32,0,l),
(382,0,l),
(467,229,l),
(938,229,l),
(1022,0,l),
(1435,0,l),
(891,1320,l),
(512,1320,l)
);
},
{
closed = 1;
nodes = (
(701,856,l),
(704,856,l),
(808,565,l),
(597,565,l)
);
},
{
closed = 1;
nodes = (
(704,1559,l),
(962,1370,l),
(1093,1544,l),
(704,1829,l),
(314,1544,l),
(445,1370,l)
);
},
{
closed = 1;
nodes = (
(1391,1914,l),
(1215,2136,l),
(876,1835,l),
(984,1685,l)
);
}
);
width = 1451;
},
{
layerId = "825DD155-F87C-490A-ABDF-19954D756790";
shapes = (
{
closed = 1;
nodes = (
(20,0,l),
(203,0,l),
(319,318,l),
(879,318,l),
(993,0,l),
(1176,0,l),
(688,1320,l),
(510,1320,l)
);
},
{
closed = 1;
nodes = (
(598,1110,l),
(601,1110,l),
(825,472,l),
(374,472,l)
);
},
{
closed = 1;
nodes = (
(599,1572,l),
(823,1408,l),
(899,1510,l),
(599,1729,l),
(300,1510,l),
(376,1409,l)
);
},
{
closed = 1;
nodes = (
(1157,1882,l),
(1057,2006,l),
(754,1755,l),
(815,1673,l)
);
}
);
width = 1208;
},
{
layerId = "01003CDD-FB01-4E06-850F-7A3DCDD105CB";
shapes = (
{
closed = 1;
nodes = (
(46,0,l),
(114,0,l),
(245,362,l),
(850,362,l),
(979,0,l),
(1046,0,l),
(586,1320,l),
(509,1320,l)
);
},
{
closed = 1;
nodes = (
(546,1237,l),
(549,1237,l),
(834,426,l),
(262,426,l)
);
},
{
closed = 1;
nodes = (
(547,1579,l),
(754,1427,l),
(802,1493,l),
(547,1680,l),
(293,1494,l),
(342,1429,l)
);
},
{
closed = 1;
nodes = (
(1040,1866,l),
(979,1941,l),
(693,1715,l),
(731,1666,l)
);
}
);
width = 1086;
}
);
unicode = 7844;
},
{
glyphname = Acircumflexdotbelow;
layers = (
{
layerId = "004841D3-970D-426C-AC4F-50F76441CB62";
name = "#instance";
shapes = (
{
closed = 1;
nodes = (
(46,0,l),
(114,0,l),
(245,362,l),
(850,362,l),
(979,0,l),
(1046,0,l),
(586,1320,l),
(509,1320,l)
);
},
{
closed = 1;
nodes = (
(546,1237,l),
(549,1237,l),
(834,426,l),
(262,426,l)
);
},
{
closed = 1;
nodes = (
(506,-96,o),
(473,-131,o),
(473,-170,cs),
(473,-208,o),
(506,-243,o),
(546,-243,cs),
(585,-243,o),
(620,-210,o),
(620,-170,cs),
(620,-130,o),
(585,-96,o),
(546,-96,cs)
);
},
{
closed = 1;
nodes = (
(546,1559,l),
(753,1407,l),
(801,1473,l),
(546,1660,l),
(292,1474,l),
(341,1409,l)
);
}
);
width = 1086;
},
{
layerId = "C0D83D2B-9CDF-4EFD-A4CD-122316F7B684";
shapes = (
{
closed = 1;
nodes = (
(-32,0,l),
(382,0,l),
(467,229,l),
(938,229,l),
(1022,0,l),
(1435,0,l),
(891,1320,l),
(512,1320,l)
);
},
{
closed = 1;
nodes = (
(701,856,l),
(704,856,l),
(808,565,l),
(597,565,l)
);
},
{
closed = 1;
nodes = (
(629,-85,o),
(571,-145,o),
(571,-217,cs),
(571,-289,o),
(629,-348,o),
(702,-348,cs),
(774,-348,o),
(832,-289,o),
(832,-217,cs),
(832,-145,o),
(774,-85,o),
(702,-85,cs)
);
},
{
closed = 1;
nodes = (
(702,1582,l),
(960,1393,l),
(1091,1567,l),
(702,1852,l),
(312,1567,l),
(443,1393,l)
);
}
);
width = 1451;
},
{
layerId = "825DD155-F87C-490A-ABDF-19954D756790";
shapes = (
{
closed = 1;
nodes = (
(20,0,l),
(203,0,l),
(319,318,l),
(879,318,l),
(993,0,l),
(1176,0,l),
(688,1320,l),
(510,1320,l)
);
},
{
closed = 1;
nodes = (
(598,1110,l),
(601,1110,l),
(825,472,l),
(374,472,l)
);
},
{
closed = 1;
nodes = (
(547,-92,o),
(506,-136,o),
(506,-186,cs),
(506,-235,o),
(547,-278,o),
(598,-278,cs),
(648,-278,o),
(691,-236,o),
(691,-186,cs),
(691,-135,o),
(648,-92,o),
(598,-92,cs)
);
},
{
closed = 1;
nodes = (
(598,1567,l),
(822,1402,l),
(898,1504,l),
(598,1724,l),
(299,1505,l),
(375,1404,l)
);
}
);
width = 1208;
},
{
layerId = "01003CDD-FB01-4E06-850F-7A3DCDD105CB";
shapes = (
{
closed = 1;
nodes = (
(46,0,l),
(114,0,l),
(245,362,l),
(850,362,l),
(979,0,l),
(1046,0,l),
(586,1320,l),
(509,1320,l)
);
},
{
closed = 1;
nodes = (
(546,1237,l),
(549,1237,l),
(834,426,l),
(262,426,l)
);
},
{
closed = 1;
nodes = (
(506,-96,o),
(473,-131,o),
(473,-170,cs),
(473,-208,o),
(506,-243,o),
(546,-243,cs),
(585,-243,o),
(620,-210,o),
(620,-170,cs),
(620,-130,o),
(585,-96,o),
(546,-96,cs)
);
},
{
closed = 1;
nodes = (
(546,1559,l),
(753,1407,l),
(801,1473,l),
(546,1660,l),
(292,1474,l),
(341,1409,l)
);
}
);
width = 1086;
}
);
unicode = 7852;
},
{
glyphname = Acircumflexgrave;
layers = (
{
layerId = "004841D3-970D-426C-AC4F-50F76441CB62";
name = "#instance";
shapes = (
{
closed = 1;
nodes = (
(46,0,l),
(114,0,l),
(245,362,l),
(850,362,l),
(979,0,l),
(1046,0,l),
(586,1320,l),
(509,1320,l)
);
},
{
closed = 1;
nodes = (
(546,1237,l),
(549,1237,l),
(834,426,l),
(262,426,l)
);
},
{
closed = 1;
nodes = (
(552,1562,l),
(759,1410,l),
(807,1476,l),
(552,1663,l),
(298,1477,l),
(347,1412,l)
);
},
{
closed = 1;
nodes = (
(932,1681,l),
(644,1907,l),
(585,1832,l),
(893,1632,l)
);
}
);
width = 1086;
},
{
layerId = "C0D83D2B-9CDF-4EFD-A4CD-122316F7B684";
shapes = (
{
closed = 1;
nodes = (
(-32,0,l),
(382,0,l),
(467,229,l),
(938,229,l),
(1022,0,l),
(1435,0,l),
(891,1320,l),
(512,1320,l)
);
},
{
closed = 1;
nodes = (
(701,856,l),
(704,856,l),
(808,565,l),
(597,565,l)
);
},
{
closed = 1;
nodes = (
(704,1564,l),
(962,1375,l),
(1093,1549,l),
(704,1834,l),
(314,1549,l),
(445,1375,l)
);
},
{
closed = 1;
nodes = (
(1248,1825,l),
(908,2126,l),
(732,1904,l),
(1139,1675,l)
);
}
);
width = 1451;
},
{
layerId = "825DD155-F87C-490A-ABDF-19954D756790";
shapes = (
{
closed = 1;
nodes = (
(20,0,l),
(203,0,l),
(319,318,l),
(879,318,l),
(993,0,l),
(1176,0,l),
(688,1320,l),
(510,1320,l)
);
},
{
closed = 1;
nodes = (
(598,1110,l),
(601,1110,l),
(825,472,l),
(374,472,l)
);
},
{
closed = 1;
nodes = (
(602,1563,l),
(826,1399,l),
(902,1501,l),
(602,1720,l),
(303,1501,l),
(379,1400,l)
);
},
{
closed = 1;
nodes = (
(1037,1729,l),
(731,1980,l),
(633,1856,l),
(974,1647,l)
);
}
);
width = 1208;
},
{
layerId = "01003CDD-FB01-4E06-850F-7A3DCDD105CB";
shapes = (
{
closed = 1;
nodes = (
(46,0,l),
(114,0,l),
(245,362,l),
(850,362,l),
(979,0,l),
(1046,0,l),
(586,1320,l),
(509,1320,l)
);
},
{
closed = 1;
nodes = (
(546,1237,l),
(549,1237,l),
(834,426,l),
(262,426,l)
);
},
{
closed = 1;
nodes = (
(552,1562,l),
(759,1410,l),
(807,1476,l),
(552,1663,l),
(298,1477,l),
(347,1412,l)
);
},
{
closed = 1;
nodes = (
(932,1681,l),
(644,1907,l),
(585,1832,l),
(893,1632,l)
);
}
);
width = 1086;
}
);
unicode = 7846;
},
{
glyphname = Acircumflexhookabove;
layers = (
{
layerId = "004841D3-970D-426C-AC4F-50F76441CB62";
name = "#instance";
shapes = (
{
closed = 1;
nodes = (
(46,0,l),
(114,0,l),
(245,362,l),
(850,362,l),
(979,0,l),
(1046,0,l),
(586,1320,l),
(509,1320,l)
);
},
{
closed = 1;
nodes = (
(546,1237,l),
(549,1237,l),
(834,426,l),
(262,426,l)
);
},
{
closed = 1;
nodes = (
(548,1565,l),
(755,1413,l),
(803,1479,l),
(548,1666,l),
(294,1480,l),
(343,1415,l)
);
},
{
closed = 1;
nodes = (
(728,1630,l),
(815,1667,o),
(941,1733,o),
(941,1880,cs),
(941,2019,o),
(845,2058,o),
(744,2058,cs),
(637,2058,o),
(568,2026,o),
(544,2010,c),
(544,1946,l),
(584,1966,o),
(668,1995,o),
(725,1995,cs),
(786,1995,o),
(874,1989,o),
(874,1872,cs),
(874,1755,o),
(746,1696,o),
(690,1682,c)
);
}
);
width = 1086;
},
{
layerId = "C0D83D2B-9CDF-4EFD-A4CD-122316F7B684";
shapes = (
{
closed = 1;
nodes = (
(-32,0,l),
(382,0,l),
(467,229,l),
(938,229,l),
(1022,0,l),
(1435,0,l),
(891,1320,l),
(512,1320,l)
);
},
{
closed = 1;
nodes = (
(701,856,l),
(704,856,l),
(808,565,l),
(597,565,l)
);
},
{
closed = 1;
nodes = (
(706,1559,l),
(964,1370,l),
(1095,1544,l),
(706,1829,l),
(316,1544,l),
(447,1370,l)
);
},
{
closed = 1;
nodes = (
(910,1731,l),
(987,1754,o),
(1187,1840,o),
(1187,2016,cs),
(1187,2182,o),
(1048,2242,o),
(910,2242,cs),
(787,2242,o),
(734,2210,o),
(710,2194,c),
(710,2006,l),
(750,2027,o),
(806,2051,o),
(864,2051,cs),
(925,2051,o),
(960,2043,o),
(960,1986,cs),
(960,1928,o),
(864,1878,o),
(824,1867,c)
);
}
);
width = 1451;
},
{
layerId = "825DD155-F87C-490A-ABDF-19954D756790";
shapes = (
{
closed = 1;
nodes = (
(20,0,l),
(203,0,l),
(319,318,l),
(879,318,l),
(993,0,l),
(1176,0,l),
(688,1320,l),
(510,1320,l)
);
},
{
closed = 1;
nodes = (
(598,1110,l),
(601,1110,l),
(825,472,l),
(374,472,l)
);
},
{
closed = 1;
nodes = (
(600,1563,l),
(824,1399,l),
(900,1501,l),
(600,1720,l),
(301,1501,l),
(377,1400,l)
);
},
{
closed = 1;
nodes = (
(788,1664,l),
(872,1696,o),
(1023,1769,o),
(1023,1925,cs),
(1023,2073,o),
(912,2119,o),
(799,2119,cs),
(687,2119,o),
(623,2087,o),
(599,2071,c),
(599,1966,l),
(639,1986,o),
(714,2014,o),
(771,2014,cs),
(832,2014,o),
(902,2007,o),
(902,1910,cs),
(902,1813,o),
(785,1757,o),
(734,1744,c)
);
}
);
width = 1208;
},
{
layerId = "01003CDD-FB01-4E06-850F-7A3DCDD105CB";
shapes = (
{
closed = 1;
nodes = (
(46,0,l),
(114,0,l),
(245,362,l),
(850,362,l),
(979,0,l),
(1046,0,l),
(586,1320,l),
(509,1320,l)
);
},
{
closed = 1;
nodes = (
(546,1237,l),
(549,1237,l),
(834,426,l),
(262,426,l)
);
},
{
closed = 1;
nodes = (
(548,1565,l),
(755,1413,l),
(803,1479,l),
(548,1666,l),
(294,1480,l),
(343,1415,l)
);
},
{
closed = 1;
nodes = (
(728,1630,l),
(815,1667,o),
(941,1733,o),
(941,1880,cs),
(941,2019,o),
(845,2058,o),
(744,2058,cs),
(637,2058,o),
(568,2026,o),
(544,2010,c),
(544,1946,l),
(584,1966,o),
(668,1995,o),
(725,1995,cs),
(786,1995,o),
(874,1989,o),
(874,1872,cs),
(874,1755,o),
(746,1696,o),
(690,1682,c)
);
}
);
width = 1086;
}
);
unicode = 7848;
},
{
glyphname = Acircumflextilde;
layers = (
{
layerId = "004841D3-970D-426C-AC4F-50F76441CB62";
name = "#instance";
shapes = (
{
closed = 1;
nodes = (
(46,0,l),
(114,0,l),
(245,362,l),
(850,362,l),
(979,0,l),
(1046,0,l),
(586,1320,l),
(509,1320,l)
);
},
{
closed = 1;
nodes = (
(546,1237,l),
(549,1237,l),
(834,426,l),
(262,426,l)
);
},
{
closed = 1;
nodes = (
(543,1559,l),
(750,1407,l),
(798,1473,l),
(543,1660,l),
(289,1474,l),
(338,1409,l)
);
},
{
closed = 1;
nodes = (
(515,1806,o),
(557,1729,o),
(677,1729,cs),
(765,1729,o),
(827,1817,o),
(849,1884,c),
(753,1884,l),
(745,1850,o),
(715,1806,o),
(661,1806,cs),
(569,1806,o),
(536,1884,o),
(416,1884,cs),
(328,1884,o),
(269,1796,o),
(249,1729,c),
(345,1729,l),
(357,1762,o),
(392,1806,o),
(443,1806,cs)
);
}
);
width = 1086;
},
{
layerId = "C0D83D2B-9CDF-4EFD-A4CD-122316F7B684";
shapes = (
{
closed = 1;
nodes = (
(-32,0,l),
(382,0,l),
(467,229,l),
(938,229,l),
(1022,0,l),
(1435,0,l),
(891,1320,l),
(512,1320,l)
);
},
{
closed = 1;
nodes = (
(701,856,l),
(704,856,l),
(808,565,l),
(597,565,l)
);
},
{
closed = 1;
nodes = (
(702,1552,l),
(960,1363,l),
(1091,1537,l),
(702,1822,l),
(312,1537,l),
(443,1363,l)
);
},
{
closed = 1;
nodes = (
(665,1923,o),
(749,1851,o),
(877,1851,cs),
(1019,1851,o),
(1094,2032,o),
(1112,2168,c),
(926,2168,l),
(917,2138,o),
(893,2096,o),
(861,2096,cs),
(773,2096,o),
(686,2168,o),
(558,2168,cs),
(416,2168,o),
(339,1987,o),
(321,1851,c),
(507,1851,l),
(515,1882,o),
(537,1923,o),
(569,1923,cs)
);
}
);
width = 1451;
},
{
layerId = "825DD155-F87C-490A-ABDF-19954D756790";
shapes = (
{
closed = 1;
nodes = (
(20,0,l),
(203,0,l),
(319,318,l),
(879,318,l),
(993,0,l),
(1176,0,l),
(688,1320,l),
(510,1320,l)
);
},
{
closed = 1;
nodes = (
(598,1110,l),
(601,1110,l),
(825,472,l),
(374,472,l)
);
},
{
closed = 1;
nodes = (
(596,1557,l),
(820,1393,l),
(896,1495,l),
(596,1714,l),
(297,1495,l),
(373,1394,l)
);
},
{
closed = 1;
nodes = (
(565,1845,o),
(621,1770,o),
(744,1770,cs),
(850,1770,o),
(916,1889,o),
(937,1979,c),
(811,1979,l),
(803,1946,o),
(775,1903,o),
(728,1903,cs),
(637,1903,o),
(586,1979,o),
(464,1979,cs),
(358,1979,o),
(293,1860,o),
(273,1770,c),
(399,1770,l),
(410,1802,o),
(441,1845,o),
(485,1845,cs)
);
}
);
width = 1208;
},
{
layerId = "01003CDD-FB01-4E06-850F-7A3DCDD105CB";
shapes = (
{
closed = 1;
nodes = (
(46,0,l),
(114,0,l),
(245,362,l),
(850,362,l),
(979,0,l),
(1046,0,l),
(586,1320,l),
(509,1320,l)
);
},
{
closed = 1;
nodes = (
(546,1237,l),
(549,1237,l),
(834,426,l),
(262,426,l)
);
},
{
closed = 1;
nodes = (
(543,1559,l),
(750,1407,l),
(798,1473,l),
(543,1660,l),
(289,1474,l),
(338,1409,l)
);
},
{
closed = 1;
nodes = (
(515,1806,o),
(557,1729,o),
(677,1729,cs),
(765,1729,o),
(827,1817,o),
(849,1884,c),
(753,1884,l),
(745,1850,o),
(715,1806,o),
(661,1806,cs),
(569,1806,o),
(536,1884,o),
(416,1884,cs),
(328,1884,o),
(269,1796,o),
(249,1729,c),
(345,1729,l),
(357,1762,o),
(392,1806,o),
(443,1806,cs)
);
}
);
width = 1086;
}
);
unicode = 7850;
},
{
glyphname = Adblgrave;
layers = (
{
layerId = "004841D3-970D-426C-AC4F-50F76441CB62";
name = "#instance";
shapes = (
{
closed = 1;
nodes = (
(46,0,l),
(114,0,l),
(245,362,l),
(850,362,l),
(979,0,l),
(1046,0,l),
(586,1320,l),
(509,1320,l)
);
},
{
closed = 1;
nodes = (
(546,1237,l),
(549,1237,l),
(834,426,l),
(262,426,l)
);
},
{
closed = 1;
nodes = (
(885,1420,l),
(597,1646,l),
(538,1571,l),
(846,1371,l)
);
},
{
closed = 1;
nodes = (
(555,1420,l),
(267,1646,l),
(208,1571,l),
(516,1371,l)
);
}
);
width = 1086;
},
{
layerId = "C0D83D2B-9CDF-4EFD-A4CD-122316F7B684";
shapes = (
{
closed = 1;
nodes = (
(-32,0,l),
(382,0,l),
(467,229,l),
(938,229,l),
(1022,0,l),
(1435,0,l),
(891,1320,l),
(512,1320,l)
);
},
{
closed = 1;
nodes = (
(701,856,l),
(704,856,l),
(808,565,l),
(597,565,l)
);
},
{
closed = 1;
nodes = (
(1189,1528,l),
(849,1829,l),
(673,1607,l),
(1080,1378,l)
);
},
{
closed = 1;
nodes = (
(731,1528,l),
(391,1829,l),
(215,1607,l),
(622,1378,l)
);
}
);
width = 1451;
},
{
layerId = "825DD155-F87C-490A-ABDF-19954D756790";
shapes = (
{
closed = 1;
nodes = (
(20,0,l),
(203,0,l),
(319,318,l),
(879,318,l),
(993,0,l),
(1176,0,l),
(688,1320,l),
(510,1320,l)
);
},
{
closed = 1;
nodes = (
(598,1110,l),
(601,1110,l),
(825,472,l),
(374,472,l)
);
},
{
closed = 1;
nodes = (
(987,1456,l),
(681,1707,l),
(583,1583,l),
(924,1373,l)
);
},
{
closed = 1;
nodes = (
(614,1456,l),
(309,1707,l),
(211,1583,l),
(552,1373,l)
);
}
);
width = 1208;
},
{
layerId = "01003CDD-FB01-4E06-850F-7A3DCDD105CB";
shapes = (
{
closed = 1;
nodes = (
(46,0,l),
(114,0,l),
(245,362,l),
(850,362,l),
(979,0,l),
(1046,0,l),
(586,1320,l),
(509,1320,l)
);
},
{
closed = 1;
nodes = (
(546,1237,l),
(549,1237,l),
(834,426,l),
(262,426,l)
);
},
{
closed = 1;
nodes = (
(885,1420,l),
(597,1646,l),
(538,1571,l),
(846,1371,l)
);
},
{
closed = 1;
nodes = (
(555,1420,l),
(267,1646,l),
(208,1571,l),
(516,1371,l)
);
}
);
width = 1086;
}
);
unicode = 512;
},
{
glyphname = Adieresis;
layers = (
{
layerId = "004841D3-970D-426C-AC4F-50F76441CB62";
name = "#instance";
shapes = (
{
closed = 1;
nodes = (
(46,0,l),
(114,0,l),
(245,362,l),
(850,362,l),
(979,0,l),
(1046,0,l),
(586,1320,l),
(509,1320,l)
);
},
{
closed = 1;
nodes = (
(546,1237,l),
(549,1237,l),
(834,426,l),
(262,426,l)
);
},
{
closed = 1;
nodes = (
(317,1566,o),
(284,1531,o),
(284,1492,cs),
(284,1454,o),
(317,1419,o),
(357,1419,cs),
(396,1419,o),
(431,1452,o),
(431,1492,cs),
(431,1532,o),
(396,1566,o),
(357,1566,cs)
);
},
{
closed = 1;
nodes = (
(696,1566,o),
(663,1531,o),
(663,1492,cs),
(663,1454,o),
(696,1419,o),
(736,1419,cs),
(775,1419,o),
(810,1452,o),
(810,1492,cs),
(810,1532,o),
(775,1566,o),
(736,1566,cs)
);
}
);
width = 1086;
},
{
layerId = "C0D83D2B-9CDF-4EFD-A4CD-122316F7B684";
shapes = (
{
closed = 1;
nodes = (
(-32,0,l),
(382,0,l),
(467,229,l),
(938,229,l),
(1022,0,l),
(1435,0,l),
(891,1320,l),
(512,1320,l)
);
},
{
closed = 1;
nodes = (
(701,856,l),
(704,856,l),
(808,565,l),
(597,565,l)
);
},
{
closed = 1;
nodes = (
(400,1742,o),
(323,1663,o),
(323,1567,cs),
(323,1471,o),
(400,1393,o),
(497,1393,cs),
(593,1393,o),
(670,1471,o),
(670,1567,cs),
(670,1663,o),
(593,1742,o),
(497,1742,cs)
);
},
{
closed = 1;
nodes = (
(811,1742,o),
(734,1663,o),
(734,1567,cs),
(734,1471,o),
(811,1393,o),
(908,1393,cs),
(1004,1393,o),
(1081,1471,o),
(1081,1567,cs),
(1081,1663,o),
(1004,1742,o),
(908,1742,cs)
);
}
);
width = 1451;
},
{
layerId = "825DD155-F87C-490A-ABDF-19954D756790";
shapes = (
{
closed = 1;
nodes = (
(20,0,l),
(203,0,l),
(319,318,l),
(879,318,l),
(993,0,l),
(1176,0,l),
(688,1320,l),
(510,1320,l)
);
},
{
closed = 1;
nodes = (
(598,1110,l),
(601,1110,l),
(825,472,l),
(374,472,l)
);
},
{
closed = 1;
nodes = (
(344,1625,o),
(297,1575,o),
(297,1517,cs),
(297,1460,o),
(344,1410,o),
(403,1410,cs),
(461,1410,o),
(510,1458,o),
(510,1517,cs),
(510,1576,o),
(461,1625,o),
(403,1625,cs)
);
},
{
closed = 1;
nodes = (
(734,1625,o),
(686,1575,o),
(686,1517,cs),
(686,1460,o),
(734,1410,o),
(793,1410,cs),
(851,1410,o),
(900,1458,o),
(900,1517,cs),
(900,1576,o),
(851,1625,o),
(793,1625,cs)
);
}
);
width = 1208;
},
{
layerId = "01003CDD-FB01-4E06-850F-7A3DCDD105CB";
shapes = (
{
closed = 1;
nodes = (
(46,0,l),
(114,0,l),
(245,362,l),
(850,362,l),
(979,0,l),
(1046,0,l),
(586,1320,l),
(509,1320,l)
);
},
{
closed = 1;
nodes = (
(546,1237,l),
(549,1237,l),
(834,426,l),
(262,426,l)
);
},
{
closed = 1;
nodes = (
(317,1566,o),
(284,1531,o),
(284,1492,cs),
(284,1454,o),
(317,1419,o),
(357,1419,cs),
(396,1419,o),
(431,1452,o),
(431,1492,cs),
(431,1532,o),
(396,1566,o),
(357,1566,cs)
);
},
{
closed = 1;
nodes = (
(696,1566,o),
(663,1531,o),
(663,1492,cs),
(663,1454,o),
(696,1419,o),
(736,1419,cs),
(775,1419,o),
(810,1452,o),
(810,1492,cs),
(810,1532,o),
(775,1566,o),
(736,1566,cs)
);
}
);
width = 1086;
}
);
unicode = 196;
},
{
glyphname = Adotbelow;
layers = (
{
layerId = "004841D3-970D-426C-AC4F-50F76441CB62";
name = "#instance";
shapes = (
{
closed = 1;
nodes = (
(46,0,l),
(114,0,l),
(245,362,l),
(850,362,l),
(979,0,l),
(1046,0,l),
(586,1320,l),
(509,1320,l)
);
},
{
closed = 1;
nodes = (
(546,1237,l),
(549,1237,l),
(834,426,l),
(262,426,l)
);
},
{
closed = 1;
nodes = (
(506,-96,o),
(473,-131,o),
(473,-170,cs),
(473,-208,o),
(506,-243,o),
(546,-243,cs),
(585,-243,o),
(620,-210,o),
(620,-170,cs),
(620,-130,o),
(585,-96,o),
(546,-96,cs)
);
}
);
width = 1086;
},
{
layerId = "C0D83D2B-9CDF-4EFD-A4CD-122316F7B684";
shapes = (
{
closed = 1;
nodes = (
(-32,0,l),
(382,0,l),
(467,229,l),
(938,229,l),
(1022,0,l),
(1435,0,l),
(891,1320,l),
(512,1320,l)
);
},
{
closed = 1;
nodes = (
(701,856,l),
(704,856,l),
(808,565,l),
(597,565,l)
);
},
{
closed = 1;
nodes = (
(629,-85,o),
(571,-145,o),
(571,-217,cs),
(571,-289,o),
(629,-348,o),
(702,-348,cs),
(774,-348,o),
(832,-289,o),
(832,-217,cs),
(832,-145,o),
(774,-85,o),
(702,-85,cs)
);
}
);
width = 1451;
},
{
layerId = "825DD155-F87C-490A-ABDF-19954D756790";
shapes = (
{
closed = 1;
nodes = (
(20,0,l),
(203,0,l),
(319,318,l),
(879,318,l),
(993,0,l),
(1176,0,l),
(688,1320,l),
(510,1320,l)
);
},
{
closed = 1;
nodes = (
(598,1110,l),
(601,1110,l),
(825,472,l),
(374,472,l)
);
},
{
closed = 1;
nodes = (
(547,-92,o),
(506,-136,o),
(506,-186,cs),
(506,-235,o),
(547,-278,o),
(598,-278,cs),
(648,-278,o),
(691,-236,o),
(691,-186,cs),
(691,-135,o),
(648,-92,o),
(598,-92,cs)
);
}
);
width = 1208;
},
{
layerId = "01003CDD-FB01-4E06-850F-7A3DCDD105CB";
shapes = (
{
closed = 1;
nodes = (
(46,0,l),
(114,0,l),
(245,362,l),
(850,362,l),
(979,0,l),
(1046,0,l),
(586,1320,l),
(509,1320,l)
);
},
{
closed = 1;
nodes = (
(546,1237,l),
(549,1237,l),
(834,426,l),
(262,426,l)
);
},
{
closed = 1;
nodes = (
(506,-96,o),
(473,-131,o),
(473,-170,cs),
(473,-208,o),
(506,-243,o),
(546,-243,cs),
(585,-243,o),
(620,-210,o),
(620,-170,cs),
(620,-130,o),
(585,-96,o),
(546,-96,cs)
);
}
);
width = 1086;
}
);
unicode = 7840;
},
{
glyphname = Agrave;
layers = (
{
layerId = "004841D3-970D-426C-AC4F-50F76441CB62";
name = "#instance";
shapes = (
{
closed = 1;
nodes = (
(46,0,l),
(114,0,l),
(245,362,l),
(850,362,l),
(979,0,l),
(1046,0,l),
(586,1320,l),
(509,1320,l)
);
},
{
closed = 1;
nodes = (
(546,1237,l),
(549,1237,l),
(834,426,l),
(262,426,l)
);
},
{
closed = 1;
nodes = (
(642,1425,l),
(354,1651,l),
(295,1576,l),
(603,1376,l)
);
}
);
width = 1086;
},
{
layerId = "C0D83D2B-9CDF-4EFD-A4CD-122316F7B684";
shapes = (
{
closed = 1;
nodes = (
(-32,0,l),
(382,0,l),
(467,229,l),
(938,229,l),
(1022,0,l),
(1435,0,l),
(891,1320,l),
(512,1320,l)
);
},
{
closed = 1;
nodes = (
(701,856,l),
(704,856,l),
(808,565,l),
(597,565,l)
);
},
{
closed = 1;
nodes = (
(879,1526,l),
(539,1827,l),
(363,1605,l),
(770,1376,l)
);
}
);
width = 1451;
},
{
layerId = "825DD155-F87C-490A-ABDF-19954D756790";
shapes = (
{
closed = 1;
nodes = (
(20,0,l),
(203,0,l),
(319,318,l),
(879,318,l),
(993,0,l),
(1176,0,l),
(688,1320,l),
(510,1320,l)
);
},
{
closed = 1;
nodes = (
(598,1110,l),
(601,1110,l),
(825,472,l),
(374,472,l)
);
},
{
closed = 1;
nodes = (
(721,1459,l),
(415,1710,l),
(317,1586,l),
(658,1376,l)
);
}
);
width = 1208;
},
{
layerId = "01003CDD-FB01-4E06-850F-7A3DCDD105CB";
shapes = (
{
closed = 1;
nodes = (
(46,0,l),
(114,0,l),
(245,362,l),
(850,362,l),
(979,0,l),
(1046,0,l),
(586,1320,l),
(509,1320,l)
);
},
{
closed = 1;
nodes = (
(546,1237,l),
(549,1237,l),
(834,426,l),
(262,426,l)
);
},
{
closed = 1;
nodes = (
(642,1425,l),
(354,1651,l),
(295,1576,l),
(603,1376,l)
);
}
);
width = 1086;
}
);
unicode = 192;
},
{
glyphname = Ahookabove;
layers = (
{
layerId = "004841D3-970D-426C-AC4F-50F76441CB62";
name = "#instance";
shapes = (
{
closed = 1;
nodes = (
(46,0,l),
(114,0,l),
(245,362,l),
(850,362,l),
(979,0,l),
(1046,0,l),
(586,1320,l),
(509,1320,l)
);
},
{
closed = 1;
nodes = (
(546,1237,l),
(549,1237,l),
(834,426,l),
(262,426,l)
);
},
{
closed = 1;
nodes = (
(532,1402,l),
(619,1439,o),
(745,1495,o),
(745,1622,cs),
(745,1751,o),
(649,1790,o),
(548,1790,cs),
(441,1790,o),
(372,1758,o),
(348,1742,c),
(348,1678,l),
(388,1698,o),
(472,1727,o),
(529,1727,cs),
(590,1727,o),
(678,1721,o),
(678,1614,cs),
(678,1517,o),
(550,1468,o),
(494,1454,c)
);
}
);
width = 1086;
},
{
layerId = "C0D83D2B-9CDF-4EFD-A4CD-122316F7B684";
shapes = (
{
closed = 1;
nodes = (
(-32,0,l),
(382,0,l),
(467,229,l),
(938,229,l),
(1022,0,l),
(1435,0,l),
(891,1320,l),
(512,1320,l)
);
},
{
closed = 1;
nodes = (
(701,856,l),
(704,856,l),
(808,565,l),
(597,565,l)
);
},
{
closed = 1;
nodes = (
(663,1385,l),
(740,1404,o),
(940,1476,o),
(940,1624,cs),
(940,1763,o),
(801,1814,o),
(663,1814,cs),
(540,1814,o),
(487,1787,o),
(463,1773,c),
(463,1616,l),
(503,1633,o),
(559,1654,o),
(617,1654,cs),
(678,1654,o),
(713,1647,o),
(713,1599,cs),
(713,1550,o),
(617,1508,o),
(577,1499,c)
);
}
);
width = 1451;
},
{
layerId = "825DD155-F87C-490A-ABDF-19954D756790";
shapes = (
{
closed = 1;
nodes = (
(20,0,l),
(203,0,l),
(319,318,l),
(879,318,l),
(993,0,l),
(1176,0,l),
(688,1320,l),
(510,1320,l)
);
},
{
closed = 1;
nodes = (
(598,1110,l),
(601,1110,l),
(825,472,l),
(374,472,l)
);
},
{
closed = 1;
nodes = (
(575,1396,l),
(659,1427,o),
(810,1489,o),
(810,1623,cs),
(810,1755,o),
(699,1798,o),
(586,1798,cs),
(474,1798,o),
(410,1768,o),
(386,1752,c),
(386,1657,l),
(426,1676,o),
(501,1703,o),
(558,1703,cs),
(619,1703,o),
(689,1696,o),
(689,1609,cs),
(689,1528,o),
(572,1481,o),
(521,1469,c)
);
}
);
width = 1208;
},
{
layerId = "01003CDD-FB01-4E06-850F-7A3DCDD105CB";
shapes = (
{
closed = 1;
nodes = (
(46,0,l),
(114,0,l),
(245,362,l),
(850,362,l),
(979,0,l),
(1046,0,l),
(586,1320,l),
(509,1320,l)
);
},
{
closed = 1;
nodes = (
(546,1237,l),
(549,1237,l),
(834,426,l),
(262,426,l)
);
},
{
closed = 1;
nodes = (
(532,1402,l),
(619,1439,o),
(745,1495,o),
(745,1622,cs),
(745,1751,o),
(649,1790,o),
(548,1790,cs),
(441,1790,o),
(372,1758,o),
(348,1742,c),
(348,1678,l),
(388,1698,o),
(472,1727,o),
(529,1727,cs),
(590,1727,o),
(678,1721,o),
(678,1614,cs),
(678,1517,o),
(550,1468,o),
(494,1454,c)
);
}
);
width = 1086;
}
);
unicode = 7842;
},
{
glyphname = Ainvertedbreve;
layers = (
{
layerId = "004841D3-970D-426C-AC4F-50F76441CB62";
name = "#instance";
shapes = (
{
closed = 1;
nodes = (
(46,0,l),
(114,0,l),
(245,362,l),
(850,362,l),
(979,0,l),
(1046,0,l),
(586,1320,l),
(509,1320,l)
);
},
{
closed = 1;
nodes = (
(546,1237,l),
(549,1237,l),
(834,426,l),
(262,426,l)
);
},
{
closed = 1;
nodes = (
(400,1409,l),
(411,1464,o),
(459,1537,o),
(547,1537,cs),
(635,1537,o),
(685,1464,o),
(696,1409,c),
(779,1430,l),
(771,1504,o),
(690,1609,o),
(547,1609,cs),
(403,1609,o),
(323,1500,o),
(315,1430,c)
);
}
);
width = 1086;
},
{
layerId = "C0D83D2B-9CDF-4EFD-A4CD-122316F7B684";
shapes = (
{
closed = 1;
nodes = (
(-32,0,l),
(382,0,l),
(467,229,l),
(938,229,l),
(1022,0,l),
(1435,0,l),
(891,1320,l),
(512,1320,l)
);
},
{
closed = 1;
nodes = (
(701,856,l),
(704,856,l),
(808,565,l),
(597,565,l)
);
},
{
closed = 1;
nodes = (
(550,1381,l),
(556,1447,o),
(602,1534,o),
(701,1534,cs),
(801,1534,o),
(845,1447,o),
(851,1381,c),
(1061,1433,l),
(1041,1612,o),
(897,1716,o),
(701,1716,cs),
(500,1716,o),
(362,1607,o),
(342,1433,c)
);
}
);
width = 1451;
},
{
layerId = "825DD155-F87C-490A-ABDF-19954D756790";
shapes = (
{
closed = 1;
nodes = (
(20,0,l),
(203,0,l),
(319,318,l),
(879,318,l),
(993,0,l),
(1176,0,l),
(688,1320,l),
(510,1320,l)
);
},
{
closed = 1;
nodes = (
(598,1110,l),
(601,1110,l),
(825,472,l),
(374,472,l)
);
},
{
closed = 1;
nodes = (
(450,1400,l),
(459,1458,o),
(506,1536,o),
(598,1536,cs),
(690,1536,o),
(738,1458,o),
(747,1400,c),
(873,1431,l),
(861,1540,o),
(759,1645,o),
(598,1645,cs),
(435,1645,o),
(336,1536,o),
(324,1431,c)
);
}
);
width = 1208;
},
{
layerId = "01003CDD-FB01-4E06-850F-7A3DCDD105CB";
shapes = (
{
closed = 1;
nodes = (
(46,0,l),
(114,0,l),
(245,362,l),
(850,362,l),
(979,0,l),
(1046,0,l),
(586,1320,l),
(509,1320,l)
);
},
{
closed = 1;
nodes = (
(546,1237,l),
(549,1237,l),
(834,426,l),
(262,426,l)
);
},
{
closed = 1;
nodes = (
(400,1409,l),
(411,1464,o),
(459,1537,o),
(547,1537,cs),
(635,1537,o),
(685,1464,o),
(696,1409,c),
(779,1430,l),
(771,1504,o),
(690,1609,o),
(547,1609,cs),
(403,1609,o),
(323,1500,o),
(315,1430,c)
);
}
);
width = 1086;
}
);
unicode = 514;
},
{
glyphname = Amacron;
layers = (
{
layerId = "004841D3-970D-426C-AC4F-50F76441CB62";
name = "#instance";
shapes = (
{
closed = 1;
nodes = (
(46,0,l),
(114,0,l),
(245,362,l),
(850,362,l),
(979,0,l),
(1046,0,l),
(586,1320,l),
(509,1320,l)
);
},
{
closed = 1;
nodes = (
(546,1237,l),
(549,1237,l),
(834,426,l),
(262,426,l)
);
},
{
closed = 1;
nodes = (
(813,1466,l),
(813,1530,l),
(280,1530,l),
(280,1466,l)
);
}
);
width = 1086;
},
{
layerId = "C0D83D2B-9CDF-4EFD-A4CD-122316F7B684";
shapes = (
{
closed = 1;
nodes = (
(-32,0,l),
(382,0,l),
(467,229,l),
(938,229,l),
(1022,0,l),
(1435,0,l),
(891,1320,l),
(512,1320,l)
);
},
{
closed = 1;
nodes = (
(701,856,l),
(704,856,l),
(808,565,l),
(597,565,l)
);
},
{
closed = 1;
nodes = (
(1050,1439,l),
(1050,1676,l),
(354,1676,l),
(354,1439,l)
);
}
);
width = 1451;
},
{
layerId = "825DD155-F87C-490A-ABDF-19954D756790";
shapes = (
{
closed = 1;
nodes = (
(20,0,l),
(203,0,l),
(319,318,l),
(879,318,l),
(993,0,l),
(1176,0,l),
(688,1320,l),
(510,1320,l)
);
},
{
closed = 1;
nodes = (
(598,1110,l),
(601,1110,l),
(825,472,l),
(374,472,l)
);
},
{
closed = 1;
nodes = (
(892,1457,l),
(892,1579,l),
(305,1579,l),
(305,1457,l)
);
}
);
width = 1208;
},
{
layerId = "01003CDD-FB01-4E06-850F-7A3DCDD105CB";
shapes = (
{
closed = 1;
nodes = (
(46,0,l),
(114,0,l),
(245,362,l),
(850,362,l),
(979,0,l),
(1046,0,l),
(586,1320,l),
(509,1320,l)
);
},
{
closed = 1;
nodes = (
(546,1237,l),
(549,1237,l),
(834,426,l),
(262,426,l)
);
},
{
closed = 1;
nodes = (
(813,1466,l),
(813,1530,l),
(280,1530,l),
(280,1466,l)
);
}
);
width = 1086;
}
);
unicode = 256;
},
{
glyphname = Aogonek;
layers = (
{
layerId = "004841D3-970D-426C-AC4F-50F76441CB62";
name = "#instance";
shapes = (
{
closed = 1;
nodes = (
(46,0,l),
(114,0,l),
(245,362,l),
(850,362,l),
(979,0,l),
(1046,0,l),
(586,1320,l),
(509,1320,l)
);
},
{
closed = 1;
nodes = (
(546,1237,l),
(549,1237,l),
(834,426,l),
(262,426,l)
);
},
{
closed = 1;
nodes = (
(1079,-421,o),
(1176,-376,o),
(1207,-325,c),
(1152,-283,l),
(1127,-320,o),
(1072,-360,o),
(1007,-360,cs),
(932,-360,o),
(868,-336,o),
(868,-245,cs),
(868,-163,o),
(959,-58,o),
(1024,0,c),
(981,40,l),
(901,-24,o),
(794,-144,o),
(794,-250,cs),
(794,-389,o),
(904,-421,o),
(988,-421,cs)
);
}
);
width = 1102;
},
{
layerId = "C0D83D2B-9CDF-4EFD-A4CD-122316F7B684";
shapes = (
{
closed = 1;
nodes = (
(-32,0,l),
(382,0,l),
(467,229,l),
(938,229,l),
(1022,0,l),
(1435,0,l),
(891,1320,l),
(512,1320,l)
);
},
{
closed = 1;
nodes = (
(701,856,l),
(704,856,l),
(808,565,l),
(597,565,l)
);
},
{
closed = 1;
nodes = (
(1197,-440,o),
(1278,-374,o),
(1309,-325,c),
(1174,-224,l),
(1165,-238,o),
(1142,-259,o),
(1114,-259,cs),
(1104,-259,o),
(1080,-238,o),
(1080,-218,cs),
(1080,-136,o),
(1122,-45,o),
(1154,0,c),
(1048,42,l),
(979,-34,o),
(888,-166,o),
(888,-253,cs),
(888,-392,o),
(1006,-440,o),
(1090,-440,cs)
);
}
);
width = 1451;
},
{
layerId = "825DD155-F87C-490A-ABDF-19954D756790";
shapes = (
{
closed = 1;
nodes = (
(20,0,l),
(203,0,l),
(319,318,l),
(879,318,l),
(993,0,l),
(1176,0,l),
(688,1320,l),
(510,1320,l)
);
},
{
closed = 1;
nodes = (
(598,1110,l),
(601,1110,l),
(825,472,l),
(374,472,l)
);
},
{
closed = 1;
nodes = (
(1119,-427,o),
(1210,-375,o),
(1241,-325,c),
(1160,-263,l),
(1140,-293,o),
(1096,-326,o),
(1043,-326,cs),
(990,-326,o),
(939,-303,o),
(939,-236,cs),
(939,-154,o),
(1014,-54,o),
(1068,0,c),
(1004,41,l),
(927,-27,o),
(826,-151,o),
(826,-251,cs),
(826,-390,o),
(938,-427,o),
(1022,-427,cs)
);
}
);
width = 1218;
},
{
layerId = "01003CDD-FB01-4E06-850F-7A3DCDD105CB";
shapes = (
{
closed = 1;
nodes = (
(46,0,l),
(114,0,l),
(245,362,l),
(850,362,l),
(979,0,l),
(1046,0,l),
(586,1320,l),
(509,1320,l)
);
},
{
closed = 1;
nodes = (
(546,1237,l),
(549,1237,l),
(834,426,l),
(262,426,l)
);
},
{
closed = 1;
nodes = (
(1079,-421,o),
(1176,-376,o),
(1207,-325,c),
(1152,-283,l),
(1127,-320,o),
(1072,-360,o),
(1007,-360,cs),
(932,-360,o),
(868,-336,o),
(868,-245,cs),
(868,-163,o),
(959,-58,o),
(1024,0,c),
(981,40,l),
(901,-24,o),
(794,-144,o),
(794,-250,cs),
(794,-389,o),
(904,-421,o),
(988,-421,cs)
);
}
);
width = 1102;
}
);
leftKerningGroup = A;
rightKerningGroup = A;
unicode = 260;
},
{
glyphname = Aring;
layers = (
{
layerId = "004841D3-970D-426C-AC4F-50F76441CB62";
name = "#instance";
shapes = (
{
closed = 1;
nodes = (
(46,0,l),
(114,0,l),
(245,362,l),
(850,362,l),
(979,0,l),
(1046,0,l),
(586,1320,l),
(509,1320,l)
);
},
{
closed = 1;
nodes = (
(546,1237,l),
(549,1237,l),
(834,426,l),
(262,426,l)
);
},
{
closed = 1;
nodes = (
(385,1441,o),
(449,1381,o),
(547,1381,cs),
(641,1381,o),
(708,1441,o),
(708,1526,cs),
(708,1609,o),
(638,1672,o),
(547,1672,cs),
(457,1672,o),
(385,1609,o),
(385,1526,cs)
);
},
{
closed = 1;
nodes = (
(457,1584,o),
(500,1617,o),
(547,1617,cs),
(598,1617,o),
(636,1584,o),
(636,1526,cs),
(636,1469,o),
(598,1435,o),
(547,1435,cs),
(500,1435,o),
(457,1469,o),
(457,1526,cs)
);
}
);
width = 1086;
},
{
layerId = "C0D83D2B-9CDF-4EFD-A4CD-122316F7B684";
shapes = (
{
closed = 1;
nodes = (
(-32,0,l),
(382,0,l),
(467,229,l),
(938,229,l),
(1022,0,l),
(1435,0,l),
(891,1320,l),
(512,1320,l)
);
},
{
closed = 1;
nodes = (
(701,856,l),
(704,856,l),
(808,565,l),
(597,565,l)
);
},
{
closed = 1;
nodes = (
(451,1443,o),
(552,1351,o),
(703,1351,cs),
(848,1351,o),
(953,1443,o),
(953,1574,cs),
(953,1703,o),
(844,1795,o),
(703,1795,cs),
(562,1795,o),
(451,1703,o),
(451,1574,cs)
);
},
{
closed = 1;
nodes = (
(634,1616,o),
(664,1643,o),
(703,1643,cs),
(738,1643,o),
(770,1616,o),
(770,1574,cs),
(770,1530,o),
(740,1500,o),
(703,1500,cs),
(662,1500,o),
(634,1528,o),
(634,1574,cs)
);
}
);
width = 1451;
},
{
layerId = "825DD155-F87C-490A-ABDF-19954D756790";
shapes = (
{
closed = 1;
nodes = (
(20,0,l),
(203,0,l),
(319,318,l),
(879,318,l),
(993,0,l),
(1176,0,l),
(688,1320,l),
(510,1320,l)
);
},
{
closed = 1;
nodes = (
(598,1110,l),
(601,1110,l),
(825,472,l),
(374,472,l)
);
},
{
closed = 1;
nodes = (
(407,1442,o),
(484,1371,o),
(599,1371,cs),
(710,1371,o),
(790,1442,o),
(790,1542,cs),
(790,1640,o),
(707,1713,o),
(599,1713,cs),
(492,1713,o),
(407,1640,o),
(407,1542,cs)
);
},
{
closed = 1;
nodes = (
(516,1595,o),
(555,1626,o),
(599,1626,cs),
(645,1626,o),
(681,1595,o),
(681,1542,cs),
(681,1489,o),
(646,1457,o),
(599,1457,cs),
(554,1457,o),
(516,1489,o),
(516,1542,cs)
);
}
);
width = 1208;
},
{
layerId = "01003CDD-FB01-4E06-850F-7A3DCDD105CB";
shapes = (
{
closed = 1;
nodes = (
(46,0,l),
(114,0,l),
(245,362,l),
(850,362,l),
(979,0,l),
(1046,0,l),
(586,1320,l),
(509,1320,l)
);
},
{
closed = 1;
nodes = (
(546,1237,l),
(549,1237,l),
(834,426,l),
(262,426,l)
);
},
{
closed = 1;
nodes = (
(385,1441,o),
(449,1381,o),
(547,1381,cs),
(641,1381,o),
(708,1441,o),
(708,1526,cs),
(708,1609,o),
(638,1672,o),
(547,1672,cs),
(457,1672,o),
(385,1609,o),
(385,1526,cs)
);
},
{
closed = 1;
nodes = (
(457,1584,o),
(500,1617,o),
(547,1617,cs),
(598,1617,o),
(636,1584,o),
(636,1526,cs),
(636,1469,o),
(598,1435,o),
(547,1435,cs),
(500,1435,o),
(457,1469,o),
(457,1526,cs)
);
}
);
width = 1086;
}
);
unicode = 197;
},
{
glyphname = Aringacute;
layers = (
{
layerId = "004841D3-970D-426C-AC4F-50F76441CB62";
name = "#instance";
shapes = (
{
closed = 1;
nodes = (
(46,0,l),
(114,0,l),
(245,362,l),
(850,362,l),
(979,0,l),
(1046,0,l),
(586,1320,l),
(509,1320,l)
);
},
{
closed = 1;
nodes = (
(546,1237,l),
(549,1237,l),
(834,426,l),
(262,426,l)
);
},
{
closed = 1;
nodes = (
(385,1441,o),
(449,1381,o),
(547,1381,cs),
(641,1381,o),
(708,1441,o),
(708,1526,cs),
(708,1609,o),
(638,1672,o),
(547,1672,cs),
(457,1672,o),
(385,1609,o),
(385,1526,cs)
);
},
{
closed = 1;
nodes = (
(457,1584,o),
(500,1617,o),
(547,1617,cs),
(598,1617,o),
(636,1584,o),
(636,1526,cs),
(636,1469,o),
(598,1435,o),
(547,1435,cs),
(500,1435,o),
(457,1469,o),
(457,1526,cs)
);
},
{
closed = 1;
nodes = (
(781,1928,l),
(722,2003,l),
(434,1777,l),
(473,1728,l)
);
}
);
width = 1086;
},
{
layerId = "C0D83D2B-9CDF-4EFD-A4CD-122316F7B684";
shapes = (
{
closed = 1;
nodes = (
(-32,0,l),
(382,0,l),
(467,229,l),
(938,229,l),
(1022,0,l),
(1435,0,l),
(891,1320,l),
(512,1320,l)
);
},
{
closed = 1;
nodes = (
(701,856,l),
(704,856,l),
(808,565,l),
(597,565,l)
);
},
{
closed = 1;
nodes = (
(451,1443,o),
(552,1351,o),
(703,1351,cs),
(848,1351,o),
(953,1443,o),
(953,1574,cs),
(953,1703,o),
(844,1795,o),
(703,1795,cs),
(562,1795,o),
(451,1703,o),
(451,1574,cs)
);
},
{
closed = 1;
nodes = (
(634,1616,o),
(664,1643,o),
(703,1643,cs),
(738,1643,o),
(770,1616,o),
(770,1574,cs),
(770,1530,o),
(740,1500,o),
(703,1500,cs),
(662,1500,o),
(634,1528,o),
(634,1574,cs)
);
},
{
closed = 1;
nodes = (
(1020,2080,l),
(844,2302,l),
(504,2001,l),
(613,1851,l)
);
}
);
width = 1451;
},
{
layerId = "825DD155-F87C-490A-ABDF-19954D756790";
shapes = (
{
closed = 1;
nodes = (
(20,0,l),
(203,0,l),
(319,318,l),
(879,318,l),
(993,0,l),
(1176,0,l),
(688,1320,l),
(510,1320,l)
);
},
{
closed = 1;
nodes = (
(598,1110,l),
(601,1110,l),
(825,472,l),
(374,472,l)
);
},
{
closed = 1;
nodes = (
(407,1442,o),
(484,1371,o),
(599,1371,cs),
(710,1371,o),
(790,1442,o),
(790,1542,cs),
(790,1640,o),
(707,1713,o),
(599,1713,cs),
(492,1713,o),
(407,1640,o),
(407,1542,cs)
);
},
{
closed = 1;
nodes = (
(516,1595,o),
(555,1626,o),
(599,1626,cs),
(645,1626,o),
(681,1595,o),
(681,1542,cs),
(681,1489,o),
(646,1457,o),
(599,1457,cs),
(554,1457,o),
(516,1489,o),
(516,1542,cs)
);
},
{
closed = 1;
nodes = (
(861,1979,l),
(763,2103,l),
(458,1852,l),
(520,1769,l)
);
}
);
width = 1208;
},
{
layerId = "01003CDD-FB01-4E06-850F-7A3DCDD105CB";
shapes = (
{
closed = 1;
nodes = (
(46,0,l),
(114,0,l),
(245,362,l),
(850,362,l),
(979,0,l),
(1046,0,l),
(586,1320,l),
(509,1320,l)
);
},
{
closed = 1;
nodes = (
(546,1237,l),
(549,1237,l),
(834,426,l),
(262,426,l)
);
},
{
closed = 1;
nodes = (
(385,1441,o),
(449,1381,o),
(547,1381,cs),
(641,1381,o),
(708,1441,o),
(708,1526,cs),
(708,1609,o),
(638,1672,o),
(547,1672,cs),
(457,1672,o),
(385,1609,o),
(385,1526,cs)
);
},
{
closed = 1;
nodes = (
(457,1584,o),
(500,1617,o),
(547,1617,cs),
(598,1617,o),
(636,1584,o),
(636,1526,cs),
(636,1469,o),
(598,1435,o),
(547,1435,cs),
(500,1435,o),
(457,1469,o),
(457,1526,cs)
);
},
{
closed = 1;
nodes = (
(781,1928,l),
(722,2003,l),
(434,1777,l),
(473,1728,l)
);
}
);
width = 1086;
}
);
unicode = 506;
},
{
glyphname = Atilde;
layers = (
{
layerId = "004841D3-970D-426C-AC4F-50F76441CB62";
name = "#instance";
shapes = (
{
closed = 1;
nodes = (
(46,0,l),
(114,0,l),
(245,362,l),
(850,362,l),
(979,0,l),
(1046,0,l),
(586,1320,l),
(509,1320,l)
);
},
{
closed = 1;
nodes = (
(546,1237,l),
(549,1237,l),
(834,426,l),
(262,426,l)
);
},
{
closed = 1;
nodes = (
(513,1492,o),
(555,1415,o),
(675,1415,cs),
(763,1415,o),
(825,1503,o),
(847,1570,c),
(751,1570,l),
(743,1536,o),
(713,1492,o),
(659,1492,cs),
(567,1492,o),
(534,1570,o),
(414,1570,cs),
(326,1570,o),
(267,1482,o),
(247,1415,c),
(343,1415,l),
(355,1448,o),
(390,1492,o),
(441,1492,cs)
);
}
);
width = 1086;
},
{
layerId = "C0D83D2B-9CDF-4EFD-A4CD-122316F7B684";
shapes = (
{
closed = 1;
nodes = (
(-32,0,l),
(382,0,l),
(467,229,l),
(938,229,l),
(1022,0,l),
(1435,0,l),
(891,1320,l),
(512,1320,l)
);
},
{
closed = 1;
nodes = (
(701,856,l),
(704,856,l),
(808,565,l),
(597,565,l)
);
},
{
closed = 1;
nodes = (
(650,1479,o),
(734,1407,o),
(862,1407,cs),
(1004,1407,o),
(1079,1588,o),
(1097,1724,c),
(911,1724,l),
(902,1694,o),
(878,1652,o),
(846,1652,cs),
(758,1652,o),
(671,1724,o),
(543,1724,cs),
(401,1724,o),
(324,1543,o),
(306,1407,c),
(492,1407,l),
(500,1438,o),
(522,1479,o),
(554,1479,cs)
);
}
);
width = 1451;
},
{
layerId = "825DD155-F87C-490A-ABDF-19954D756790";
shapes = (
{
closed = 1;
nodes = (
(20,0,l),
(203,0,l),
(319,318,l),
(879,318,l),
(993,0,l),
(1176,0,l),
(688,1320,l),
(510,1320,l)
);
},
{
closed = 1;
nodes = (
(598,1110,l),
(601,1110,l),
(825,472,l),
(374,472,l)
);
},
{
closed = 1;
nodes = (
(558,1488,o),
(614,1412,o),
(737,1412,cs),
(843,1412,o),
(909,1531,o),
(930,1621,c),
(804,1621,l),
(796,1589,o),
(768,1545,o),
(721,1545,cs),
(630,1545,o),
(579,1621,o),
(457,1621,cs),
(351,1621,o),
(286,1502,o),
(266,1412,c),
(392,1412,l),
(403,1445,o),
(434,1488,o),
(478,1488,cs)
);
}
);
width = 1208;
},
{
layerId = "01003CDD-FB01-4E06-850F-7A3DCDD105CB";
shapes = (
{
closed = 1;
nodes = (
(46,0,l),
(114,0,l),
(245,362,l),
(850,362,l),
(979,0,l),
(1046,0,l),
(586,1320,l),
(509,1320,l)
);
},
{
closed = 1;
nodes = (
(546,1237,l),
(549,1237,l),
(834,426,l),
(262,426,l)
);
},
{
closed = 1;
nodes = (
(513,1492,o),
(555,1415,o),
(675,1415,cs),
(763,1415,o),
(825,1503,o),
(847,1570,c),
(751,1570,l),
(743,1536,o),
(713,1492,o),
(659,1492,cs),
(567,1492,o),
(534,1570,o),
(414,1570,cs),
(326,1570,o),
(267,1482,o),
(247,1415,c),
(343,1415,l),
(355,1448,o),
(390,1492,o),
(441,1492,cs)
);
}
);
width = 1086;
}
);
unicode = 195;
},
{
glyphname = AE;
layers = (
{
layerId = "004841D3-970D-426C-AC4F-50F76441CB62";
name = "#instance";
shapes = (
{
closed = 1;
nodes = (
(27,0,l),
(94,0,l),
(301,362,l),
(867,362,l),
(853,1320,l),
(774,1320,l)
);
},
{
closed = 1;
nodes = (
(810,1266,l),
(813,1250,l),
(813,426,l),
(330,426,l)
);
},
{
closed = 1;
nodes = (
(804,0,l),
(1532,0,l),
(1532,64,l),
(865,64,l),
(865,630,l),
(1513,630,l),
(1513,694,l),
(865,694,l),
(865,1256,l),
(1532,1256,l),
(1532,1320,l),
(804,1320,l)
);
}
);
width = 1603;
},
{
layerId = "C0D83D2B-9CDF-4EFD-A4CD-122316F7B684";
shapes = (
{
closed = 1;
nodes = (
(-34,0,l),
(387,0,l),
(501,229,l),
(978,229,l),
(1064,1320,l),
(664,1320,l)
);
},
{
closed = 1;
nodes = (
(798,802,l),
(802,802,l),
(802,517,l),
(645,517,l)
);
},
{
closed = 1;
nodes = (
(781,0,l),
(1667,0,l),
(1667,336,l),
(1168,336,l),
(1168,499,l),
(1667,499,l),
(1667,824,l),
(1168,824,l),
(1168,984,l),
(1667,984,l),
(1667,1320,l),
(781,1320,l)
);
}
);
width = 1763;
},
{
layerId = "825DD155-F87C-490A-ABDF-19954D756790";
shapes = (
{
closed = 1;
nodes = (
(7,0,l),
(192,0,l),
(368,318,l),
(904,318,l),
(923,1320,l),
(737,1320,l)
);
},
{
closed = 1;
nodes = (
(806,1111,l),
(809,1100,l),
(809,456,l),
(435,456,l)
);
},
{
closed = 1;
nodes = (
(797,0,l),
(1577,0,l),
(1577,155,l),
(966,155,l),
(966,586,l),
(1565,586,l),
(1565,737,l),
(966,737,l),
(966,1165,l),
(1577,1165,l),
(1577,1320,l),
(797,1320,l)
);
}
);
width = 1656;
},
{
layerId = "01003CDD-FB01-4E06-850F-7A3DCDD105CB";
shapes = (
{
closed = 1;
nodes = (
(27,0,l),
(94,0,l),
(301,362,l),
(867,362,l),
(853,1320,l),
(774,1320,l)
);
},
{
closed = 1;
nodes = (
(810,1266,l),
(813,1250,l),
(813,426,l),
(330,426,l)
);
},
{
closed = 1;
nodes = (
(804,0,l),
(1532,0,l),
(1532,64,l),
(865,64,l),
(865,630,l),
(1513,630,l),
(1513,694,l),
(865,694,l),
(865,1256,l),
(1532,1256,l),
(1532,1320,l),
(804,1320,l)
);
}
);
width = 1603;
}
);
leftKerningGroup = A;
rightKerningGroup = E;
unicode = 198;
},
{
glyphname = AEacute;
layers = (
{
layerId = "004841D3-970D-426C-AC4F-50F76441CB62";
name = "#instance";
shapes = (
{
closed = 1;
nodes = (
(27,0,l),
(94,0,l),
(301,362,l),
(867,362,l),
(853,1320,l),
(774,1320,l)
);
},
{
closed = 1;
nodes = (
(810,1266,l),
(813,1250,l),
(813,426,l),
(330,426,l)
);
},
{
closed = 1;
nodes = (
(804,0,l),
(1532,0,l),
(1532,64,l),
(865,64,l),
(865,630,l),
(1513,630,l),
(1513,694,l),
(865,694,l),
(865,1256,l),
(1532,1256,l),
(1532,1320,l),
(804,1320,l)
);
},
{
closed = 1;
nodes = (
(1367,1701,l),
(1306,1776,l),
(1020,1550,l),
(1058,1501,l)
);
}
);
width = 1603;
},
{
layerId = "C0D83D2B-9CDF-4EFD-A4CD-122316F7B684";
shapes = (
{
closed = 1;
nodes = (
(-34,0,l),
(387,0,l),
(501,229,l),
(978,229,l),
(1064,1320,l),
(664,1320,l)
);
},
{
closed = 1;
nodes = (
(798,802,l),
(802,802,l),
(802,517,l),
(645,517,l)
);
},
{
closed = 1;
nodes = (
(781,0,l),
(1667,0,l),
(1667,336,l),
(1168,336,l),
(1168,499,l),
(1667,499,l),
(1667,824,l),
(1168,824,l),
(1168,984,l),
(1667,984,l),
(1667,1320,l),
(781,1320,l)
);
},
{
closed = 1;
nodes = (
(1463,1645,l),
(1287,1867,l),
(948,1566,l),
(1056,1416,l)
);
}
);
width = 1763;
},
{
layerId = "825DD155-F87C-490A-ABDF-19954D756790";
shapes = (
{
closed = 1;
nodes = (
(7,0,l),
(192,0,l),
(368,318,l),
(904,318,l),
(923,1320,l),
(737,1320,l)
);
},
{
closed = 1;
nodes = (
(806,1111,l),
(809,1100,l),
(809,456,l),
(435,456,l)
);
},
{
closed = 1;
nodes = (
(797,0,l),
(1577,0,l),
(1577,155,l),
(966,155,l),
(966,586,l),
(1565,586,l),
(1565,737,l),
(966,737,l),
(966,1165,l),
(1577,1165,l),
(1577,1320,l),
(797,1320,l)
);
},
{
closed = 1;
nodes = (
(1399,1682,l),
(1299,1806,l),
(996,1555,l),
(1057,1473,l)
);
}
);
width = 1656;
},
{
layerId = "01003CDD-FB01-4E06-850F-7A3DCDD105CB";
shapes = (
{
closed = 1;
nodes = (
(27,0,l),
(94,0,l),
(301,362,l),
(867,362,l),
(853,1320,l),
(774,1320,l)
);
},
{
closed = 1;
nodes = (
(810,1266,l),
(813,1250,l),
(813,426,l),
(330,426,l)
);
},
{
closed = 1;
nodes = (
(804,0,l),
(1532,0,l),
(1532,64,l),
(865,64,l),
(865,630,l),
(1513,630,l),
(1513,694,l),
(865,694,l),
(865,1256,l),
(1532,1256,l),
(1532,1320,l),
(804,1320,l)
);
},
{
closed = 1;
nodes = (
(1367,1701,l),
(1306,1776,l),
(1020,1550,l),
(1058,1501,l)
);
}
);
width = 1603;
}
);
leftKerningGroup = A;
rightKerningGroup = E;
unicode = 508;
},
{
glyphname = B;
layers = (
{
layerId = "004841D3-970D-426C-AC4F-50F76441CB62";
name = "#instance";
shapes = (
{
closed = 1;
nodes = (
(126,0,l),
(514,0,ls),
(787,0,o),
(899,155,o),
(899,368,cs),
(899,582,o),
(701,678,o),
(624,682,c),
(701,688,o),
(829,829,o),
(829,1005,cs),
(829,1254,o),
(629,1320,o),
(421,1320,cs),
(126,1320,l)
);
},
{
closed = 1;
nodes = (
(187,643,l),
(522,643,ls),
(728,643,o),
(837,517,o),
(837,360,cs),
(837,219,o),
(784,62,o),
(542,62,cs),
(187,62,l)
);
},
{
closed = 1;
nodes = (
(187,1258,l),
(453,1258,ls),
(642,1258,o),
(766,1187,o),
(766,997,cs),
(766,867,o),
(682,704,o),
(493,704,cs),
(187,704,l)
);
}
);
width = 1021;
},
{
layerId = "C0D83D2B-9CDF-4EFD-A4CD-122316F7B684";
shapes = (
{
closed = 1;
nodes = (
(78,0,l),
(629,0,ls),
(902,0,o),
(1070,152,o),
(1070,378,cs),
(1070,589,o),
(960,688,o),
(806,710,c),
(931,742,o),
(1021,843,o),
(1021,994,cs),
(1021,1229,o),
(822,1320,o),
(590,1320,cs),
(78,1320,l)
);
},
{
closed = 1;
nodes = (
(466,525,l),
(520,525,ls),
(606,525,o),
(661,506,o),
(661,418,cs),
(661,330,o),
(606,306,o),
(520,306,cs),
(466,306,l)
);
},
{
closed = 1;
nodes = (
(466,1014,l),
(518,1014,ls),
(592,1014,o),
(637,1000,o),
(637,923,cs),
(637,846,o),
(592,824,o),
(518,824,cs),
(466,824,l)
);
}
);
width = 1154;
},
{
layerId = "825DD155-F87C-490A-ABDF-19954D756790";
shapes = (
{
closed = 1;
nodes = (
(110,0,l),
(552,0,ls),
(825,0,o),
(956,154,o),
(956,371,cs),
(956,584,o),
(787,681,o),
(685,691,c),
(778,706,o),
(893,834,o),
(893,1001,cs),
(893,1246,o),
(693,1320,o),
(477,1320,cs),
(110,1320,l)
);
},
{
closed = 1;
nodes = (
(280,604,l),
(521,604,ls),
(687,604,o),
(778,513,o),
(778,379,cs),
(778,256,o),
(725,143,o),
(535,143,cs),
(280,143,l)
);
},
{
closed = 1;
nodes = (
(280,1177,l),
(475,1177,ls),
(625,1177,o),
(723,1125,o),
(723,972,cs),
(723,860,o),
(652,744,o),
(501,744,cs),
(280,744,l)
);
}
);
width = 1065;
},
{
layerId = "01003CDD-FB01-4E06-850F-7A3DCDD105CB";
shapes = (
{
closed = 1;
nodes = (
(126,0,l),
(514,0,ls),
(787,0,o),
(899,155,o),
(899,368,cs),
(899,582,o),
(701,678,o),
(624,682,c),
(701,688,o),
(829,829,o),
(829,1005,cs),
(829,1254,o),
(629,1320,o),
(421,1320,cs),
(126,1320,l)
);
},
{
closed = 1;
nodes = (
(187,643,l),
(522,643,ls),
(728,643,o),
(837,517,o),
(837,360,cs),
(837,219,o),
(784,62,o),
(542,62,cs),
(187,62,l)
);
},
{
closed = 1;
nodes = (
(187,1258,l),
(453,1258,ls),
(642,1258,o),
(766,1187,o),
(766,997,cs),
(766,867,o),
(682,704,o),
(493,704,cs),
(187,704,l)
);
}
);
width = 1021;
}
);
leftKerningGroup = H;
rightKerningGroup = B;
unicode = 66;
},
{
glyphname = C;
layers = (
{
anchors = (
{
name = bottom;
position = "{741, 0}";
},
{
name = top;
position = "{725, 1320}";
}
);
layerId = "004841D3-970D-426C-AC4F-50F76441CB62";
name = "#instance";
shapes = (
{
closed = 1;
nodes = (
(406,37,o),
(126,283,o),
(126,661,cs),
(126,1037,o),
(406,1283,o),
(725,1283,cs),
(925,1283,o),
(1067,1216,o),
(1120,1166,c),
(1149,1222,l),
(1091,1275,o),
(939,1344,o),
(731,1344,cs),
(341,1344,o),
(59,1037,o),
(59,658,cs),
(59,280,o),
(342,-24,o),
(731,-24,cs),
(939,-24,o),
(1091,45,o),
(1149,98,c),
(1120,154,l),
(1067,104,o),
(925,37,o),
(725,37,cs)
);
}
);
width = 1242;
},
{
anchors = (
{
name = bottom;
position = "{771, 0}";
},
{
name = top;
position = "{709, 1320}";
}
);
layerId = "C0D83D2B-9CDF-4EFD-A4CD-122316F7B684";
shapes = (
{
closed = 1;
nodes = (
(550,360,o),
(470,523,o),
(470,661,cs),
(470,797,o),
(550,960,o),
(803,960,cs),
(896,960,o),
(992,923,o),
(1040,894,c),
(1205,1222,l),
(1141,1275,o),
(979,1344,o),
(771,1344,cs),
(381,1344,o),
(50,1053,o),
(50,658,cs),
(50,264,o),
(382,-24,o),
(771,-24,cs),
(979,-24,o),
(1141,45,o),
(1205,98,c),
(1040,426,l),
(992,397,o),
(896,360,o),
(803,360,cs)
);
}
);
width = 1306;
},
{
anchors = (
{
name = bottom;
position = "{751, 0}";
},
{
name = top;
position = "{720, 1320}";
}
);
layerId = "825DD155-F87C-490A-ABDF-19954D756790";
shapes = (
{
closed = 1;
nodes = (
(454,145,o),
(241,363,o),
(241,661,cs),
(241,957,o),
(454,1175,o),
(751,1175,cs),
(915,1175,o),
(1042,1118,o),
(1093,1075,c),
(1168,1222,l),
(1108,1275,o),
(952,1344,o),
(744,1344,cs),
(354,1344,o),
(56,1042,o),
(56,658,cs),
(56,275,o),
(355,-24,o),
(744,-24,cs),
(952,-24,o),
(1108,45,o),
(1168,98,c),
(1093,245,l),
(1042,202,o),
(915,145,o),
(751,145,cs)
);
}
);
width = 1263;
},
{
anchors = (
{
name = bottom;
position = "{741, 0}";
},
{
name = top;
position = "{725, 1320}";
}
);
layerId = "01003CDD-FB01-4E06-850F-7A3DCDD105CB";
shapes = (
{
closed = 1;
nodes = (
(406,37,o),
(126,283,o),
(126,661,cs),
(126,1037,o),
(406,1283,o),
(725,1283,cs),
(925,1283,o),
(1067,1216,o),
(1120,1166,c),
(1149,1222,l),
(1091,1275,o),
(939,1344,o),
(731,1344,cs),
(341,1344,o),
(59,1037,o),
(59,658,cs),
(59,280,o),
(342,-24,o),
(731,-24,cs),
(939,-24,o),
(1091,45,o),
(1149,98,c),
(1120,154,l),
(1067,104,o),
(925,37,o),
(725,37,cs)
);
}
);
width = 1242;
}
);
leftKerningGroup = O;
rightKerningGroup = C;
unicode = 67;
},
{
glyphname = C.ss01;
leftMetricsKey = O;
layers = (
{
layerId = "004841D3-970D-426C-AC4F-50F76441CB62";
name = "#instance";
shapes = (
{
closed = 1;
nodes = (
(925,1283,l),
(872,1318,o),
(787,1344,o),
(651,1344,cs),
(286,1344,o),
(48,1046,o),
(48,661,cs),
(48,275,o),
(258,-24,o),
(651,-24,cs),
(784,-24,o),
(886,14,o),
(925,45,c),
(925,114,l),
(890,91,o),
(806,38,o),
(651,38,cs),
(363,38,o),
(114,272,o),
(114,661,cs),
(114,1050,o),
(378,1282,o),
(651,1282,cs),
(811,1282,o),
(894,1232,o),
(925,1213,c)
);
}
);
width = 1056;
},
{
layerId = "C0D83D2B-9CDF-4EFD-A4CD-122316F7B684";
shapes = (
{
closed = 1;
nodes = (
(1090,1296,l),
(1018,1333,o),
(909,1344,o),
(789,1344,cs),
(333,1344,o),
(38,1046,o),
(38,661,cs),
(38,275,o),
(304,-24,o),
(789,-24,cs),
(898,-24,o),
(1027,-8,o),
(1090,18,c),
(1090,406,l),
(1054,379,o),
(973,333,o),
(789,333,cs),
(570,333,o),
(442,470,o),
(442,661,cs),
(442,851,o),
(570,989,o),
(789,989,cs),
(973,989,o),
(1054,938,o),
(1090,907,c)
);
}
);
width = 1206;
},
{
layerId = "825DD155-F87C-490A-ABDF-19954D756790";
shapes = (
{
closed = 1;
nodes = (
(980,1287,l),
(921,1323,o),
(828,1344,o),
(697,1344,cs),
(302,1344,o),
(45,1046,o),
(45,661,cs),
(45,275,o),
(273,-24,o),
(697,-24,cs),
(822,-24,o),
(933,7,o),
(980,36,c),
(980,211,l),
(945,187,o),
(862,136,o),
(697,136,cs),
(432,136,o),
(223,338,o),
(223,661,cs),
(223,984,o),
(442,1184,o),
(697,1184,cs),
(865,1184,o),
(947,1134,o),
(980,1111,c)
);
}
);
width = 1106;
},
{
layerId = "01003CDD-FB01-4E06-850F-7A3DCDD105CB";
shapes = (
{
closed = 1;
nodes = (
(925,1283,l),
(872,1318,o),
(787,1344,o),
(651,1344,cs),
(286,1344,o),
(48,1046,o),
(48,661,cs),
(48,275,o),
(258,-24,o),
(651,-24,cs),
(784,-24,o),
(886,14,o),
(925,45,c),
(925,114,l),
(890,91,o),
(806,38,o),
(651,38,cs),
(363,38,o),
(114,272,o),
(114,661,cs),
(114,1050,o),
(378,1282,o),
(651,1282,cs),
(811,1282,o),
(894,1232,o),
(925,1213,c)
);
}
);
width = 1056;
}
);
leftKerningGroup = O;
rightKerningGroup = C;
},
{
glyphname = Cacute;
layers = (
{
layerId = "004841D3-970D-426C-AC4F-50F76441CB62";
name = "#instance";
shapes = (
{
closed = 1;
nodes = (
(406,37,o),
(126,283,o),
(126,661,cs),
(126,1037,o),
(406,1283,o),
(725,1283,cs),
(925,1283,o),
(1067,1216,o),
(1120,1166,c),
(1149,1222,l),
(1091,1275,o),
(939,1344,o),
(731,1344,cs),
(341,1344,o),
(59,1037,o),
(59,658,cs),
(59,280,o),
(342,-24,o),
(731,-24,cs),
(939,-24,o),
(1091,45,o),
(1149,98,c),
(1120,154,l),
(1067,104,o),
(925,37,o),
(725,37,cs)
);
},
{
closed = 1;
nodes = (
(959,1576,l),
(900,1651,l),
(612,1425,l),
(651,1376,l)
);
}
);
width = 1242;
},
{
layerId = "C0D83D2B-9CDF-4EFD-A4CD-122316F7B684";
shapes = (
{
closed = 1;
nodes = (
(550,360,o),
(470,523,o),
(470,661,cs),
(470,797,o),
(550,960,o),
(803,960,cs),
(896,960,o),
(992,923,o),
(1040,894,c),
(1205,1222,l),
(1141,1275,o),
(979,1344,o),
(771,1344,cs),
(381,1344,o),
(50,1053,o),
(50,658,cs),
(50,264,o),
(382,-24,o),
(771,-24,cs),
(979,-24,o),
(1141,45,o),
(1205,98,c),
(1040,426,l),
(992,397,o),
(896,360,o),
(803,360,cs)
);
},
{
closed = 1;
nodes = (
(1027,1605,l),
(851,1827,l),
(511,1526,l),
(620,1376,l)
);
}
);
width = 1306;
},
{
layerId = "825DD155-F87C-490A-ABDF-19954D756790";
shapes = (
{
closed = 1;
nodes = (
(454,145,o),
(241,363,o),
(241,661,cs),
(241,957,o),
(454,1175,o),
(751,1175,cs),
(915,1175,o),
(1042,1118,o),
(1093,1075,c),
(1168,1222,l),
(1108,1275,o),
(952,1344,o),
(744,1344,cs),
(354,1344,o),
(56,1042,o),
(56,658,cs),
(56,275,o),
(355,-24,o),
(744,-24,cs),
(952,-24,o),
(1108,45,o),
(1168,98,c),
(1093,245,l),
(1042,202,o),
(915,145,o),
(751,145,cs)
);
},
{
closed = 1;
nodes = (
(982,1586,l),
(884,1710,l),
(579,1459,l),
(641,1376,l)
);
}
);
width = 1263;
},
{
layerId = "01003CDD-FB01-4E06-850F-7A3DCDD105CB";
shapes = (
{
closed = 1;
nodes = (
(406,37,o),
(126,283,o),
(126,661,cs),
(126,1037,o),
(406,1283,o),
(725,1283,cs),
(925,1283,o),
(1067,1216,o),
(1120,1166,c),
(1149,1222,l),
(1091,1275,o),
(939,1344,o),
(731,1344,cs),
(341,1344,o),
(59,1037,o),
(59,658,cs),
(59,280,o),
(342,-24,o),
(731,-24,cs),
(939,-24,o),
(1091,45,o),
(1149,98,c),
(1120,154,l),
(1067,104,o),
(925,37,o),
(725,37,cs)
);
},
{
closed = 1;
nodes = (
(959,1576,l),
(900,1651,l),
(612,1425,l),
(651,1376,l)
);
}
);
width = 1242;
}
);
unicode = 262;
},
{
glyphname = Cacute.ss01;
layers = (
{
layerId = "004841D3-970D-426C-AC4F-50F76441CB62";
name = "#instance";
shapes = (
{
closed = 1;
nodes = (
(925,1283,l),
(872,1318,o),
(787,1344,o),
(651,1344,cs),
(286,1344,o),
(48,1046,o),
(48,661,cs),
(48,275,o),
(258,-24,o),
(651,-24,cs),
(784,-24,o),
(886,14,o),
(925,45,c),
(925,114,l),
(890,91,o),
(806,38,o),
(651,38,cs),
(363,38,o),
(114,272,o),
(114,661,cs),
(114,1050,o),
(378,1282,o),
(651,1282,cs),
(811,1282,o),
(894,1232,o),
(925,1213,c)
);
},
{
closed = 1;
nodes = (
(861,1576,l),
(802,1651,l),
(514,1425,l),
(553,1376,l)
);
}
);
width = 1056;
},
{
layerId = "C0D83D2B-9CDF-4EFD-A4CD-122316F7B684";
shapes = (
{
closed = 1;
nodes = (
(1090,1296,l),
(1018,1333,o),
(909,1344,o),
(789,1344,cs),
(333,1344,o),
(38,1046,o),
(38,661,cs),
(38,275,o),
(304,-24,o),
(789,-24,cs),
(898,-24,o),
(1027,-8,o),
(1090,18,c),
(1090,406,l),
(1054,379,o),
(973,333,o),
(789,333,cs),
(570,333,o),
(442,470,o),
(442,661,cs),
(442,851,o),
(570,989,o),
(789,989,cs),
(973,989,o),
(1054,938,o),
(1090,907,c)
);
},
{
closed = 1;
nodes = (
(1016,1605,l),
(840,1827,l),
(500,1526,l),
(609,1376,l)
);
}
);
width = 1206;
},
{
layerId = "825DD155-F87C-490A-ABDF-19954D756790";
shapes = (
{
closed = 1;
nodes = (
(980,1287,l),
(921,1323,o),
(828,1344,o),
(697,1344,cs),
(302,1344,o),
(45,1046,o),
(45,661,cs),
(45,275,o),
(273,-24,o),
(697,-24,cs),
(822,-24,o),
(933,7,o),
(980,36,c),
(980,211,l),
(945,187,o),
(862,136,o),
(697,136,cs),
(432,136,o),
(223,338,o),
(223,661,cs),
(223,984,o),
(442,1184,o),
(697,1184,cs),
(865,1184,o),
(947,1134,o),
(980,1111,c)
);
},
{
closed = 1;
nodes = (
(913,1586,l),
(815,1710,l),
(510,1459,l),
(572,1376,l)
);
}
);
width = 1106;
},
{
layerId = "01003CDD-FB01-4E06-850F-7A3DCDD105CB";
shapes = (
{
closed = 1;
nodes = (
(925,1283,l),
(872,1318,o),
(787,1344,o),
(651,1344,cs),
(286,1344,o),
(48,1046,o),
(48,661,cs),
(48,275,o),
(258,-24,o),
(651,-24,cs),
(784,-24,o),
(886,14,o),
(925,45,c),
(925,114,l),
(890,91,o),
(806,38,o),
(651,38,cs),
(363,38,o),
(114,272,o),
(114,661,cs),
(114,1050,o),
(378,1282,o),
(651,1282,cs),
(811,1282,o),
(894,1232,o),
(925,1213,c)
);
},
{
closed = 1;
nodes = (
(861,1576,l),
(802,1651,l),
(514,1425,l),
(553,1376,l)
);
}
);
width = 1056;
}
);
},
{
glyphname = Ccaron;
layers = (
{
layerId = "004841D3-970D-426C-AC4F-50F76441CB62";
name = "#instance";
shapes = (
{
closed = 1;
nodes = (
(406,37,o),
(126,283,o),
(126,661,cs),
(126,1037,o),
(406,1283,o),
(725,1283,cs),
(925,1283,o),
(1067,1216,o),
(1120,1166,c),
(1149,1222,l),
(1091,1275,o),
(939,1344,o),
(731,1344,cs),
(341,1344,o),
(59,1037,o),
(59,658,cs),
(59,280,o),
(342,-24,o),
(731,-24,cs),
(939,-24,o),
(1091,45,o),
(1149,98,c),
(1120,154,l),
(1067,104,o),
(925,37,o),
(725,37,cs)
);
},
{
closed = 1;
nodes = (
(725,1382,l),
(947,1545,l),
(906,1603,l),
(725,1472,l),
(546,1601,l),
(503,1544,l)
);
}
);
width = 1242;
},
{
layerId = "C0D83D2B-9CDF-4EFD-A4CD-122316F7B684";
shapes = (
{
closed = 1;
nodes = (
(550,360,o),
(470,523,o),
(470,661,cs),
(470,797,o),
(550,960,o),
(803,960,cs),
(896,960,o),
(992,923,o),
(1040,894,c),
(1205,1222,l),
(1141,1275,o),
(979,1344,o),
(771,1344,cs),
(381,1344,o),
(50,1053,o),
(50,658,cs),
(50,264,o),
(382,-24,o),
(771,-24,cs),
(979,-24,o),
(1141,45,o),
(1205,98,c),
(1040,426,l),
(992,397,o),
(896,360,o),
(803,360,cs)
);
},
{
closed = 1;
nodes = (
(710,1355,l),
(1049,1604,l),
(935,1756,l),
(710,1591,l),
(484,1757,l),
(369,1605,l)
);
}
);
width = 1306;
},
{
layerId = "825DD155-F87C-490A-ABDF-19954D756790";
shapes = (
{
closed = 1;
nodes = (
(454,145,o),
(241,363,o),
(241,661,cs),
(241,957,o),
(454,1175,o),
(751,1175,cs),
(915,1175,o),
(1042,1118,o),
(1093,1075,c),
(1168,1222,l),
(1108,1275,o),
(952,1344,o),
(744,1344,cs),
(354,1344,o),
(56,1042,o),
(56,658,cs),
(56,275,o),
(355,-24,o),
(744,-24,cs),
(952,-24,o),
(1108,45,o),
(1168,98,c),
(1093,245,l),
(1042,202,o),
(915,145,o),
(751,145,cs)
);
},
{
closed = 1;
nodes = (
(720,1373,l),
(981,1565,l),
(916,1654,l),
(720,1512,l),
(526,1653,l),
(459,1564,l)
);
}
);
width = 1263;
},
{
layerId = "01003CDD-FB01-4E06-850F-7A3DCDD105CB";
shapes = (
{
closed = 1;
nodes = (
(406,37,o),
(126,283,o),
(126,661,cs),
(126,1037,o),
(406,1283,o),
(725,1283,cs),
(925,1283,o),
(1067,1216,o),
(1120,1166,c),
(1149,1222,l),
(1091,1275,o),
(939,1344,o),
(731,1344,cs),
(341,1344,o),
(59,1037,o),
(59,658,cs),
(59,280,o),
(342,-24,o),
(731,-24,cs),
(939,-24,o),
(1091,45,o),
(1149,98,c),
(1120,154,l),
(1067,104,o),
(925,37,o),
(725,37,cs)
);
},
{
closed = 1;
nodes = (
(725,1382,l),
(947,1545,l),
(906,1603,l),
(725,1472,l),
(546,1601,l),
(503,1544,l)
);
}
);
width = 1242;
}
);
unicode = 268;
},
{
glyphname = Ccaron.ss01;
layers = (
{
layerId = "004841D3-970D-426C-AC4F-50F76441CB62";
name = "#instance";
shapes = (
{
closed = 1;
nodes = (
(925,1283,l),
(872,1318,o),
(787,1344,o),
(651,1344,cs),
(286,1344,o),
(48,1046,o),
(48,661,cs),
(48,275,o),
(258,-24,o),
(651,-24,cs),
(784,-24,o),
(886,14,o),
(925,45,c),
(925,114,l),
(890,91,o),
(806,38,o),
(651,38,cs),
(363,38,o),
(114,272,o),
(114,661,cs),
(114,1050,o),
(378,1282,o),
(651,1282,cs),
(811,1282,o),
(894,1232,o),
(925,1213,c)
);
},
{
closed = 1;
nodes = (
(627,1382,l),
(849,1545,l),
(808,1603,l),
(627,1472,l),
(448,1601,l),
(405,1544,l)
);
}
);
width = 1056;
},
{
layerId = "C0D83D2B-9CDF-4EFD-A4CD-122316F7B684";
shapes = (
{
closed = 1;
nodes = (
(1090,1296,l),
(1018,1333,o),
(909,1344,o),
(789,1344,cs),
(333,1344,o),
(38,1046,o),
(38,661,cs),
(38,275,o),
(304,-24,o),
(789,-24,cs),
(898,-24,o),
(1027,-8,o),
(1090,18,c),
(1090,406,l),
(1054,379,o),
(973,333,o),
(789,333,cs),
(570,333,o),
(442,470,o),
(442,661,cs),
(442,851,o),
(570,989,o),
(789,989,cs),
(973,989,o),
(1054,938,o),
(1090,907,c)
);
},
{
closed = 1;
nodes = (
(699,1355,l),
(1038,1604,l),
(924,1756,l),
(699,1591,l),
(473,1757,l),
(358,1605,l)
);
}
);
width = 1206;
},
{
layerId = "825DD155-F87C-490A-ABDF-19954D756790";
shapes = (
{
closed = 1;
nodes = (
(980,1287,l),
(921,1323,o),
(828,1344,o),
(697,1344,cs),
(302,1344,o),
(45,1046,o),
(45,661,cs),
(45,275,o),
(273,-24,o),
(697,-24,cs),
(822,-24,o),
(933,7,o),
(980,36,c),
(980,211,l),
(945,187,o),
(862,136,o),
(697,136,cs),
(432,136,o),
(223,338,o),
(223,661,cs),
(223,984,o),
(442,1184,o),
(697,1184,cs),
(865,1184,o),
(947,1134,o),
(980,1111,c)
);
},
{
closed = 1;
nodes = (
(651,1373,l),
(912,1565,l),
(847,1654,l),
(651,1512,l),
(457,1653,l),
(390,1564,l)
);
}
);
width = 1106;
},
{
layerId = "01003CDD-FB01-4E06-850F-7A3DCDD105CB";
shapes = (
{
closed = 1;
nodes = (
(925,1283,l),
(872,1318,o),
(787,1344,o),
(651,1344,cs),
(286,1344,o),
(48,1046,o),
(48,661,cs),
(48,275,o),
(258,-24,o),
(651,-24,cs),
(784,-24,o),
(886,14,o),
(925,45,c),
(925,114,l),
(890,91,o),
(806,38,o),
(651,38,cs),
(363,38,o),
(114,272,o),
(114,661,cs),
(114,1050,o),
(378,1282,o),
(651,1282,cs),
(811,1282,o),
(894,1232,o),
(925,1213,c)
);
},
{
closed = 1;
nodes = (
(627,1382,l),
(849,1545,l),
(808,1603,l),
(627,1472,l),
(448,1601,l),
(405,1544,l)
);
}
);
width = 1056;
}
);
},
{
glyphname = Ccedilla;
layers = (
{
layerId = "004841D3-970D-426C-AC4F-50F76441CB62";
name = "#instance";
shapes = (
{
closed = 1;
nodes = (
(406,37,o),
(126,283,o),
(126,661,cs),
(126,1037,o),
(406,1283,o),
(725,1283,cs),
(925,1283,o),
(1067,1216,o),
(1120,1166,c),
(1149,1222,l),
(1091,1275,o),
(939,1344,o),
(731,1344,cs),
(341,1344,o),
(59,1037,o),
(59,658,cs),
(59,280,o),
(342,-24,o),
(731,-24,cs),
(939,-24,o),
(1091,45,o),
(1149,98,c),
(1120,154,l),
(1067,104,o),
(925,37,o),
(725,37,cs)
);
},
{
closed = 1;
nodes = (
(625,-178,l),
(666,-200,l),
(685,-194,o),
(725,-186,o),
(767,-186,cs),
(828,-186,o),
(868,-211,o),
(868,-266,cs),
(868,-322,o),
(805,-358,o),
(727,-358,cs),
(669,-358,o),
(613,-333,o),
(588,-314,c),
(545,-368,l),
(578,-390,o),
(652,-419,o),
(727,-419,cs),
(823,-419,o),
(937,-365,o),
(937,-253,cs),
(937,-138,o),
(783,-117,o),
(701,-146,c),
(756,14,l),
(701,42,l)
);
}
);
width = 1242;
},
{
layerId = "C0D83D2B-9CDF-4EFD-A4CD-122316F7B684";
shapes = (
{
closed = 1;
nodes = (
(550,360,o),
(470,523,o),
(470,661,cs),
(470,797,o),
(550,960,o),
(803,960,cs),
(896,960,o),
(992,923,o),
(1040,894,c),
(1205,1222,l),
(1141,1275,o),
(979,1344,o),
(771,1344,cs),
(381,1344,o),
(50,1053,o),
(50,658,cs),
(50,264,o),
(382,-24,o),
(771,-24,cs),
(979,-24,o),
(1141,45,o),
(1205,98,c),
(1040,426,l),
(992,397,o),
(896,360,o),
(803,360,cs)
);
},
{
closed = 1;
nodes = (
(644,-168,l),
(649,-176,l),
(655,-170,o),
(681,-162,o),
(722,-162,cs),
(767,-162,o),
(810,-182,o),
(810,-224,cs),
(810,-254,o),
(790,-274,o),
(754,-274,cs),
(705,-274,o),
(657,-235,o),
(633,-206,c),
(511,-341,l),
(545,-382,o),
(642,-438,o),
(788,-438,cs),
(924,-438,o),
(1030,-358,o),
(1030,-230,cs),
(1030,-130,o),
(940,-61,o),
(817,-61,c),
(846,3,l),
(721,42,l)
);
}
);
width = 1306;
},
{
layerId = "825DD155-F87C-490A-ABDF-19954D756790";
shapes = (
{
closed = 1;
nodes = (
(454,145,o),
(241,363,o),
(241,661,cs),
(241,957,o),
(454,1175,o),
(751,1175,cs),
(915,1175,o),
(1042,1118,o),
(1093,1075,c),
(1168,1222,l),
(1108,1275,o),
(952,1344,o),
(744,1344,cs),
(354,1344,o),
(56,1042,o),
(56,658,cs),
(56,275,o),
(355,-24,o),
(744,-24,cs),
(952,-24,o),
(1108,45,o),
(1168,98,c),
(1093,245,l),
(1042,202,o),
(915,145,o),
(751,145,cs)
);
},
{
closed = 1;
nodes = (
(631,-175,l),
(660,-192,l),
(675,-186,o),
(710,-178,o),
(752,-178,cs),
(808,-178,o),
(849,-201,o),
(849,-252,cs),
(849,-299,o),
(800,-330,o),
(736,-330,cs),
(681,-330,o),
(628,-300,o),
(603,-278,c),
(534,-359,l),
(567,-387,o),
(649,-425,o),
(747,-425,cs),
(857,-425,o),
(968,-363,o),
(968,-245,cs),
(968,-135,o),
(835,-98,o),
(740,-118,c),
(786,10,l),
(708,42,l)
);
}
);
width = 1263;
},
{
layerId = "01003CDD-FB01-4E06-850F-7A3DCDD105CB";
shapes = (
{
closed = 1;
nodes = (
(406,37,o),
(126,283,o),
(126,661,cs),
(126,1037,o),
(406,1283,o),
(725,1283,cs),
(925,1283,o),
(1067,1216,o),
(1120,1166,c),
(1149,1222,l),
(1091,1275,o),
(939,1344,o),
(731,1344,cs),
(341,1344,o),
(59,1037,o),
(59,658,cs),
(59,280,o),
(342,-24,o),
(731,-24,cs),
(939,-24,o),
(1091,45,o),
(1149,98,c),
(1120,154,l),
(1067,104,o),
(925,37,o),
(725,37,cs)
);
},
{
closed = 1;
nodes = (
(625,-178,l),
(666,-200,l),
(685,-194,o),
(725,-186,o),
(767,-186,cs),
(828,-186,o),
(868,-211,o),
(868,-266,cs),
(868,-322,o),
(805,-358,o),
(727,-358,cs),
(669,-358,o),
(613,-333,o),
(588,-314,c),
(545,-368,l),
(578,-390,o),
(652,-419,o),
(727,-419,cs),
(823,-419,o),
(937,-365,o),
(937,-253,cs),
(937,-138,o),
(783,-117,o),
(701,-146,c),
(756,14,l),
(701,42,l)
);
}
);
width = 1242;
}
);
unicode = 199;
},
{
glyphname = Ccedilla.ss01;
layers = (
{
layerId = "004841D3-970D-426C-AC4F-50F76441CB62";
name = "#instance";
shapes = (
{
closed = 1;
nodes = (
(925,1283,l),
(872,1318,o),
(787,1344,o),
(651,1344,cs),
(286,1344,o),
(48,1046,o),
(48,661,cs),
(48,275,o),
(258,-24,o),
(651,-24,cs),
(784,-24,o),
(886,14,o),
(925,45,c),
(925,114,l),
(890,91,o),
(806,38,o),
(651,38,cs),
(363,38,o),
(114,272,o),
(114,661,cs),
(114,1050,o),
(378,1282,o),
(651,1282,cs),
(811,1282,o),
(894,1232,o),
(925,1213,c)
);
},
{
closed = 1;
nodes = (
(511,-178,l),
(552,-200,l),
(571,-194,o),
(611,-186,o),
(653,-186,cs),
(714,-186,o),
(754,-211,o),
(754,-266,cs),
(754,-322,o),
(691,-358,o),
(613,-358,cs),
(555,-358,o),
(499,-333,o),
(474,-314,c),
(431,-368,l),
(464,-390,o),
(538,-419,o),
(613,-419,cs),
(709,-419,o),
(823,-365,o),
(823,-253,cs),
(823,-138,o),
(669,-117,o),
(587,-146,c),
(642,14,l),
(587,42,l)
);
}
);
width = 1056;
},
{
layerId = "C0D83D2B-9CDF-4EFD-A4CD-122316F7B684";
shapes = (
{
closed = 1;
nodes = (
(1090,1296,l),
(1018,1333,o),
(909,1344,o),
(789,1344,cs),
(333,1344,o),
(38,1046,o),
(38,661,cs),
(38,275,o),
(304,-24,o),
(789,-24,cs),
(898,-24,o),
(1027,-8,o),
(1090,18,c),
(1090,406,l),
(1054,379,o),
(973,333,o),
(789,333,cs),
(570,333,o),
(442,470,o),
(442,661,cs),
(442,851,o),
(570,989,o),
(789,989,cs),
(973,989,o),
(1054,938,o),
(1090,907,c)
);
},
{
closed = 1;
nodes = (
(571,-168,l),
(576,-176,l),
(582,-170,o),
(608,-162,o),
(649,-162,cs),
(694,-162,o),
(737,-182,o),
(737,-224,cs),
(737,-254,o),
(717,-274,o),
(681,-274,cs),
(632,-274,o),
(584,-235,o),
(560,-206,c),
(438,-341,l),
(472,-382,o),
(569,-438,o),
(715,-438,cs),
(851,-438,o),
(957,-358,o),
(957,-230,cs),
(957,-130,o),
(867,-61,o),
(744,-61,c),
(773,3,l),
(648,42,l)
);
}
);
width = 1206;
},
{
layerId = "825DD155-F87C-490A-ABDF-19954D756790";
shapes = (
{
closed = 1;
nodes = (
(980,1287,l),
(921,1323,o),
(828,1344,o),
(697,1344,cs),
(302,1344,o),
(45,1046,o),
(45,661,cs),
(45,275,o),
(273,-24,o),
(697,-24,cs),
(822,-24,o),
(933,7,o),
(980,36,c),
(980,211,l),
(945,187,o),
(862,136,o),
(697,136,cs),
(432,136,o),
(223,338,o),
(223,661,cs),
(223,984,o),
(442,1184,o),
(697,1184,cs),
(865,1184,o),
(947,1134,o),
(980,1111,c)
);
},
{
closed = 1;
nodes = (
(531,-175,l),
(560,-192,l),
(575,-186,o),
(610,-178,o),
(652,-178,cs),
(708,-178,o),
(749,-201,o),
(749,-252,cs),
(749,-299,o),
(700,-330,o),
(636,-330,cs),
(581,-330,o),
(528,-300,o),
(503,-278,c),
(434,-359,l),
(467,-387,o),
(549,-425,o),
(647,-425,cs),
(757,-425,o),
(868,-363,o),
(868,-245,cs),
(868,-135,o),
(735,-98,o),
(640,-118,c),
(686,10,l),
(608,42,l)
);
}
);
width = 1106;
},
{
layerId = "01003CDD-FB01-4E06-850F-7A3DCDD105CB";
shapes = (
{
closed = 1;
nodes = (
(925,1283,l),
(872,1318,o),
(787,1344,o),
(651,1344,cs),
(286,1344,o),
(48,1046,o),
(48,661,cs),
(48,275,o),
(258,-24,o),
(651,-24,cs),
(784,-24,o),
(886,14,o),
(925,45,c),
(925,114,l),
(890,91,o),
(806,38,o),
(651,38,cs),
(363,38,o),
(114,272,o),
(114,661,cs),
(114,1050,o),
(378,1282,o),
(651,1282,cs),
(811,1282,o),
(894,1232,o),
(925,1213,c)
);
},
{
closed = 1;
nodes = (
(511,-178,l),
(552,-200,l),
(571,-194,o),
(611,-186,o),
(653,-186,cs),
(714,-186,o),
(754,-211,o),
(754,-266,cs),
(754,-322,o),
(691,-358,o),
(613,-358,cs),
(555,-358,o),
(499,-333,o),
(474,-314,c),
(431,-368,l),
(464,-390,o),
(538,-419,o),
(613,-419,cs),
(709,-419,o),
(823,-365,o),
(823,-253,cs),
(823,-138,o),
(669,-117,o),
(587,-146,c),
(642,14,l),
(587,42,l)
);
}
);
width = 1056;
}
);
},
{
glyphname = Ccircumflex;
layers = (
{
layerId = "004841D3-970D-426C-AC4F-50F76441CB62";
name = "#instance";
shapes = (
{
closed = 1;
nodes = (
(406,37,o),
(126,283,o),
(126,661,cs),
(126,1037,o),
(406,1283,o),
(725,1283,cs),
(925,1283,o),
(1067,1216,o),
(1120,1166,c),
(1149,1222,l),
(1091,1275,o),
(939,1344,o),
(731,1344,cs),
(341,1344,o),
(59,1037,o),
(59,658,cs),
(59,280,o),
(342,-24,o),
(731,-24,cs),
(939,-24,o),
(1091,45,o),
(1149,98,c),
(1120,154,l),
(1067,104,o),
(925,37,o),
(725,37,cs)
);
},
{
closed = 1;
nodes = (
(724,1559,l),
(931,1407,l),
(979,1473,l),
(724,1660,l),
(470,1474,l),
(519,1409,l)
);
}
);
width = 1242;
},
{
layerId = "C0D83D2B-9CDF-4EFD-A4CD-122316F7B684";
shapes = (
{
closed = 1;
nodes = (
(550,360,o),
(470,523,o),
(470,661,cs),
(470,797,o),
(550,960,o),
(803,960,cs),
(896,960,o),
(992,923,o),
(1040,894,c),
(1205,1222,l),
(1141,1275,o),
(979,1344,o),
(771,1344,cs),
(381,1344,o),
(50,1053,o),
(50,658,cs),
(50,264,o),
(382,-24,o),
(771,-24,cs),
(979,-24,o),
(1141,45,o),
(1205,98,c),
(1040,426,l),
(992,397,o),
(896,360,o),
(803,360,cs)
);
},
{
closed = 1;
nodes = (
(709,1582,l),
(967,1393,l),
(1098,1567,l),
(709,1852,l),
(319,1567,l),
(450,1393,l)
);
}
);
width = 1306;
},
{
layerId = "825DD155-F87C-490A-ABDF-19954D756790";
shapes = (
{
closed = 1;
nodes = (
(454,145,o),
(241,363,o),
(241,661,cs),
(241,957,o),
(454,1175,o),
(751,1175,cs),
(915,1175,o),
(1042,1118,o),
(1093,1075,c),
(1168,1222,l),
(1108,1275,o),
(952,1344,o),
(744,1344,cs),
(354,1344,o),
(56,1042,o),
(56,658,cs),
(56,275,o),
(355,-24,o),
(744,-24,cs),
(952,-24,o),
(1108,45,o),
(1168,98,c),
(1093,245,l),
(1042,202,o),
(915,145,o),
(751,145,cs)
);
},
{
closed = 1;
nodes = (
(719,1567,l),
(943,1402,l),
(1019,1504,l),
(719,1724,l),
(420,1505,l),
(496,1404,l)
);
}
);
width = 1263;
},
{
layerId = "01003CDD-FB01-4E06-850F-7A3DCDD105CB";
shapes = (
{
closed = 1;
nodes = (
(406,37,o),
(126,283,o),
(126,661,cs),
(126,1037,o),
(406,1283,o),
(725,1283,cs),
(925,1283,o),
(1067,1216,o),
(1120,1166,c),
(1149,1222,l),
(1091,1275,o),
(939,1344,o),
(731,1344,cs),
(341,1344,o),
(59,1037,o),
(59,658,cs),
(59,280,o),
(342,-24,o),
(731,-24,cs),
(939,-24,o),
(1091,45,o),
(1149,98,c),
(1120,154,l),
(1067,104,o),
(925,37,o),
(725,37,cs)
);
},
{
closed = 1;
nodes = (
(724,1559,l),
(931,1407,l),
(979,1473,l),
(724,1660,l),
(470,1474,l),
(519,1409,l)
);
}
);
width = 1242;
}
);
unicode = 264;
},
{
glyphname = Ccircumflex.ss01;
layers = (
{
layerId = "004841D3-970D-426C-AC4F-50F76441CB62";
name = "#instance";
shapes = (
{
closed = 1;
nodes = (
(925,1283,l),
(872,1318,o),
(787,1344,o),
(651,1344,cs),
(286,1344,o),
(48,1046,o),
(48,661,cs),
(48,275,o),
(258,-24,o),
(651,-24,cs),
(784,-24,o),
(886,14,o),
(925,45,c),
(925,114,l),
(890,91,o),
(806,38,o),
(651,38,cs),
(363,38,o),
(114,272,o),
(114,661,cs),
(114,1050,o),
(378,1282,o),
(651,1282,cs),
(811,1282,o),
(894,1232,o),
(925,1213,c)
);
},
{
closed = 1;
nodes = (
(626,1559,l),
(833,1407,l),
(881,1473,l),
(626,1660,l),
(372,1474,l),
(421,1409,l)
);
}
);
width = 1056;
},
{
layerId = "C0D83D2B-9CDF-4EFD-A4CD-122316F7B684";
shapes = (
{
closed = 1;
nodes = (
(1090,1296,l),
(1018,1333,o),
(909,1344,o),
(789,1344,cs),
(333,1344,o),
(38,1046,o),
(38,661,cs),
(38,275,o),
(304,-24,o),
(789,-24,cs),
(898,-24,o),
(1027,-8,o),
(1090,18,c),
(1090,406,l),
(1054,379,o),
(973,333,o),
(789,333,cs),
(570,333,o),
(442,470,o),
(442,661,cs),
(442,851,o),
(570,989,o),
(789,989,cs),
(973,989,o),
(1054,938,o),
(1090,907,c)
);
},
{
closed = 1;
nodes = (
(698,1582,l),
(956,1393,l),
(1087,1567,l),
(698,1852,l),
(308,1567,l),
(439,1393,l)
);
}
);
width = 1206;
},
{
layerId = "825DD155-F87C-490A-ABDF-19954D756790";
shapes = (
{
closed = 1;
nodes = (
(980,1287,l),
(921,1323,o),
(828,1344,o),
(697,1344,cs),
(302,1344,o),
(45,1046,o),
(45,661,cs),
(45,275,o),
(273,-24,o),
(697,-24,cs),
(822,-24,o),
(933,7,o),
(980,36,c),
(980,211,l),
(945,187,o),
(862,136,o),
(697,136,cs),
(432,136,o),
(223,338,o),
(223,661,cs),
(223,984,o),
(442,1184,o),
(697,1184,cs),
(865,1184,o),
(947,1134,o),
(980,1111,c)
);
},
{
closed = 1;
nodes = (
(650,1567,l),
(874,1402,l),
(950,1504,l),
(650,1724,l),
(351,1505,l),
(427,1404,l)
);
}
);
width = 1106;
},
{
layerId = "01003CDD-FB01-4E06-850F-7A3DCDD105CB";
shapes = (
{
closed = 1;
nodes = (
(925,1283,l),
(872,1318,o),
(787,1344,o),
(651,1344,cs),
(286,1344,o),
(48,1046,o),
(48,661,cs),
(48,275,o),
(258,-24,o),
(651,-24,cs),
(784,-24,o),
(886,14,o),
(925,45,c),
(925,114,l),
(890,91,o),
(806,38,o),
(651,38,cs),
(363,38,o),
(114,272,o),
(114,661,cs),
(114,1050,o),
(378,1282,o),
(651,1282,cs),
(811,1282,o),
(894,1232,o),
(925,1213,c)
);
},
{
closed = 1;
nodes = (
(626,1559,l),
(833,1407,l),
(881,1473,l),
(626,1660,l),
(372,1474,l),
(421,1409,l)
);
}
);
width = 1056;
}
);
},
{
glyphname = Cdotaccent;
layers = (
{
layerId = "004841D3-970D-426C-AC4F-50F76441CB62";
name = "#instance";
shapes = (
{
closed = 1;
nodes = (
(406,37,o),
(126,283,o),
(126,661,cs),
(126,1037,o),
(406,1283,o),
(725,1283,cs),
(925,1283,o),
(1067,1216,o),
(1120,1166,c),
(1149,1222,l),
(1091,1275,o),
(939,1344,o),
(731,1344,cs),
(341,1344,o),
(59,1037,o),
(59,658,cs),
(59,280,o),
(342,-24,o),
(731,-24,cs),
(939,-24,o),
(1091,45,o),
(1149,98,c),
(1120,154,l),
(1067,104,o),
(925,37,o),
(725,37,cs)
);
},
{
closed = 1;
nodes = (
(684,1566,o),
(651,1531,o),
(651,1492,cs),
(651,1454,o),
(684,1419,o),
(724,1419,cs),
(763,1419,o),
(798,1452,o),
(798,1492,cs),
(798,1532,o),
(763,1566,o),
(724,1566,cs)
);
}
);
width = 1242;
},
{
layerId = "C0D83D2B-9CDF-4EFD-A4CD-122316F7B684";
shapes = (
{
closed = 1;
nodes = (
(550,360,o),
(470,523,o),
(470,661,cs),
(470,797,o),
(550,960,o),
(803,960,cs),
(896,960,o),
(992,923,o),
(1040,894,c),
(1205,1222,l),
(1141,1275,o),
(979,1344,o),
(771,1344,cs),
(381,1344,o),
(50,1053,o),
(50,658,cs),
(50,264,o),
(382,-24,o),
(771,-24,cs),
(979,-24,o),
(1141,45,o),
(1205,98,c),
(1040,426,l),
(992,397,o),
(896,360,o),
(803,360,cs)
);
},
{
closed = 1;
nodes = (
(612,1738,o),
(535,1659,o),
(535,1563,cs),
(535,1467,o),
(612,1389,o),
(709,1389,cs),
(805,1389,o),
(882,1467,o),
(882,1563,cs),
(882,1659,o),
(805,1738,o),
(709,1738,cs)
);
}
);
width = 1306;
},
{
layerId = "825DD155-F87C-490A-ABDF-19954D756790";
shapes = (
{
closed = 1;
nodes = (
(454,145,o),
(241,363,o),
(241,661,cs),
(241,957,o),
(454,1175,o),
(751,1175,cs),
(915,1175,o),
(1042,1118,o),
(1093,1075,c),
(1168,1222,l),
(1108,1275,o),
(952,1344,o),
(744,1344,cs),
(354,1344,o),
(56,1042,o),
(56,658,cs),
(56,275,o),
(355,-24,o),
(744,-24,cs),
(952,-24,o),
(1108,45,o),
(1168,98,c),
(1093,245,l),
(1042,202,o),
(915,145,o),
(751,145,cs)
);
},
{
closed = 1;
nodes = (
(660,1623,o),
(613,1574,o),
(613,1516,cs),
(613,1458,o),
(660,1409,o),
(719,1409,cs),
(777,1409,o),
(826,1457,o),
(826,1516,cs),
(826,1574,o),
(777,1623,o),
(719,1623,cs)
);
}
);
width = 1263;
},
{
layerId = "01003CDD-FB01-4E06-850F-7A3DCDD105CB";
shapes = (
{
closed = 1;
nodes = (
(406,37,o),
(126,283,o),
(126,661,cs),
(126,1037,o),
(406,1283,o),
(725,1283,cs),
(925,1283,o),
(1067,1216,o),
(1120,1166,c),
(1149,1222,l),
(1091,1275,o),
(939,1344,o),
(731,1344,cs),
(341,1344,o),
(59,1037,o),
(59,658,cs),
(59,280,o),
(342,-24,o),
(731,-24,cs),
(939,-24,o),
(1091,45,o),
(1149,98,c),
(1120,154,l),
(1067,104,o),
(925,37,o),
(725,37,cs)
);
},
{
closed = 1;
nodes = (
(684,1566,o),
(651,1531,o),
(651,1492,cs),
(651,1454,o),
(684,1419,o),
(724,1419,cs),
(763,1419,o),
(798,1452,o),
(798,1492,cs),
(798,1532,o),
(763,1566,o),
(724,1566,cs)
);
}
);
width = 1242;
}
);
unicode = 266;
},
{
glyphname = Cdotaccent.ss01;
layers = (
{
layerId = "004841D3-970D-426C-AC4F-50F76441CB62";
name = "#instance";
shapes = (
{
closed = 1;
nodes = (
(925,1283,l),
(872,1318,o),
(787,1344,o),
(651,1344,cs),
(286,1344,o),
(48,1046,o),
(48,661,cs),
(48,275,o),
(258,-24,o),
(651,-24,cs),
(784,-24,o),
(886,14,o),
(925,45,c),
(925,114,l),
(890,91,o),
(806,38,o),
(651,38,cs),
(363,38,o),
(114,272,o),
(114,661,cs),
(114,1050,o),
(378,1282,o),
(651,1282,cs),
(811,1282,o),
(894,1232,o),
(925,1213,c)
);
},
{
closed = 1;
nodes = (
(586,1566,o),
(553,1531,o),
(553,1492,cs),
(553,1454,o),
(586,1419,o),
(626,1419,cs),
(665,1419,o),
(700,1452,o),
(700,1492,cs),
(700,1532,o),
(665,1566,o),
(626,1566,cs)
);
}
);
width = 1056;
},
{
layerId = "C0D83D2B-9CDF-4EFD-A4CD-122316F7B684";
shapes = (
{
closed = 1;
nodes = (
(1090,1296,l),
(1018,1333,o),
(909,1344,o),
(789,1344,cs),
(333,1344,o),
(38,1046,o),
(38,661,cs),
(38,275,o),
(304,-24,o),
(789,-24,cs),
(898,-24,o),
(1027,-8,o),
(1090,18,c),
(1090,406,l),
(1054,379,o),
(973,333,o),
(789,333,cs),
(570,333,o),
(442,470,o),
(442,661,cs),
(442,851,o),
(570,989,o),
(789,989,cs),
(973,989,o),
(1054,938,o),
(1090,907,c)
);
},
{
closed = 1;
nodes = (
(601,1738,o),
(524,1659,o),
(524,1563,cs),
(524,1467,o),
(601,1389,o),
(698,1389,cs),
(794,1389,o),
(871,1467,o),
(871,1563,cs),
(871,1659,o),
(794,1738,o),
(698,1738,cs)
);
}
);
width = 1206;
},
{
layerId = "825DD155-F87C-490A-ABDF-19954D756790";
shapes = (
{
closed = 1;
nodes = (
(980,1287,l),
(921,1323,o),
(828,1344,o),
(697,1344,cs),
(302,1344,o),
(45,1046,o),
(45,661,cs),
(45,275,o),
(273,-24,o),
(697,-24,cs),
(822,-24,o),
(933,7,o),
(980,36,c),
(980,211,l),
(945,187,o),
(862,136,o),
(697,136,cs),
(432,136,o),
(223,338,o),
(223,661,cs),
(223,984,o),
(442,1184,o),
(697,1184,cs),
(865,1184,o),
(947,1134,o),
(980,1111,c)
);
},
{
closed = 1;
nodes = (
(591,1623,o),
(544,1574,o),
(544,1516,cs),
(544,1458,o),
(591,1409,o),
(650,1409,cs),
(708,1409,o),
(757,1457,o),
(757,1516,cs),
(757,1574,o),
(708,1623,o),
(650,1623,cs)
);
}
);
width = 1106;
},
{
layerId = "01003CDD-FB01-4E06-850F-7A3DCDD105CB";
shapes = (
{
closed = 1;
nodes = (
(925,1283,l),
(872,1318,o),
(787,1344,o),
(651,1344,cs),
(286,1344,o),
(48,1046,o),
(48,661,cs),
(48,275,o),
(258,-24,o),
(651,-24,cs),
(784,-24,o),
(886,14,o),
(925,45,c),
(925,114,l),
(890,91,o),
(806,38,o),
(651,38,cs),
(363,38,o),
(114,272,o),
(114,661,cs),
(114,1050,o),
(378,1282,o),
(651,1282,cs),
(811,1282,o),
(894,1232,o),
(925,1213,c)
);
},
{
closed = 1;
nodes = (
(586,1566,o),
(553,1531,o),
(553,1492,cs),
(553,1454,o),
(586,1419,o),
(626,1419,cs),
(665,1419,o),
(700,1452,o),
(700,1492,cs),
(700,1532,o),
(665,1566,o),
(626,1566,cs)
);
}
);
width = 1056;
}
);
},
{
glyphname = D;
layers = (
{
layerId = "004841D3-970D-426C-AC4F-50F76441CB62";
name = "#instance";
shapes = (
{
closed = 1;
nodes = (
(123,0,l),
(362,0,ls),
(786,0,o),
(968,275,o),
(968,661,cs),
(968,1045,o),
(784,1320,o),
(362,1320,cs),
(123,1320,l)
);
},
{
closed = 1;
nodes = (
(358,1256,ls),
(744,1256,o),
(906,1008,o),
(904,659,cs),
(902,310,o),
(741,64,o),
(358,64,cs),
(184,64,l),
(184,1256,l)
);
}
);
width = 1088;
},
{
layerId = "C0D83D2B-9CDF-4EFD-A4CD-122316F7B684";
shapes = (
{
closed = 1;
nodes = (
(72,0,l),
(528,0,ls),
(949,0,o),
(1162,275,o),
(1162,661,cs),
(1162,1045,o),
(949,1320,o),
(528,1320,cs),
(72,1320,l)
);
},
{
closed = 1;
nodes = (
(493,979,ls),
(659,979,o),
(750,838,o),
(750,659,cs),
(750,480,o),
(658,341,o),
(493,341,cs),
(459,341,l),
(459,979,l)
);
}
);
width = 1243;
},
{
layerId = "825DD155-F87C-490A-ABDF-19954D756790";
shapes = (
{
closed = 1;
nodes = (
(106,0,l),
(417,0,ls),
(840,0,o),
(1033,275,o),
(1033,661,cs),
(1033,1045,o),
(839,1320,o),
(417,1320,cs),
(106,1320,l)
);
},
{
closed = 1;
nodes = (
(403,1164,ls),
(716,1164,o),
(854,951,o),
(853,659,cs),
(851,367,o),
(713,156,o),
(403,156,cs),
(276,156,l),
(276,1164,l)
);
}
);
width = 1140;
},
{
layerId = "01003CDD-FB01-4E06-850F-7A3DCDD105CB";
shapes = (
{
closed = 1;
nodes = (
(123,0,l),
(362,0,ls),
(786,0,o),
(968,275,o),
(968,661,cs),
(968,1045,o),
(784,1320,o),
(362,1320,cs),
(123,1320,l)
);
},
{
closed = 1;
nodes = (
(358,1256,ls),
(744,1256,o),
(906,1008,o),
(904,659,cs),
(902,310,o),
(741,64,o),
(358,64,cs),
(184,64,l),
(184,1256,l)
);
}
);
width = 1088;
}
);
leftKerningGroup = H;
rightKerningGroup = O;
unicode = 68;
},
{
glyphname = DZcaron;
layers = (
{
layerId = "004841D3-970D-426C-AC4F-50F76441CB62";
name = "#instance";
shapes = (
{
closed = 1;
nodes = (
(123,0,l),
(362,0,ls),
(786,0,o),
(968,275,o),
(968,661,cs),
(968,1045,o),
(784,1320,o),
(362,1320,cs),
(123,1320,l)
);
},
{
closed = 1;
nodes = (
(358,1256,ls),
(744,1256,o),
(906,1008,o),
(904,659,cs),
(902,310,o),
(741,64,o),
(358,64,cs),
(184,64,l),
(184,1256,l)
);
},
{
closed = 1;
nodes = (
(1245,1256,l),
(1974,1256,l),
(1152,0,l),
(2048,0,l),
(2048,64,l),
(1275,64,l),
(2091,1320,l),
(1245,1320,l)
);
},
{
closed = 1;
nodes = (
(1638,1478,l),
(1893,1665,l),
(1845,1731,l),
(1638,1581,l),
(1433,1729,l),
(1384,1664,l)
);
}
);
width = 2195;
},
{
layerId = "C0D83D2B-9CDF-4EFD-A4CD-122316F7B684";
shapes = (
{
closed = 1;
nodes = (
(72,0,l),
(528,0,ls),
(949,0,o),
(1162,275,o),
(1162,661,cs),
(1162,1045,o),
(949,1320,o),
(528,1320,cs),
(72,1320,l)
);
},
{
closed = 1;
nodes = (
(493,979,ls),
(659,979,o),
(750,838,o),
(750,659,cs),
(750,480,o),
(658,341,o),
(493,341,cs),
(459,341,l),
(459,979,l)
);
},
{
closed = 1;
nodes = (
(1326,984,l),
(1824,984,l),
(1233,0,l),
(2456,0,l),
(2456,336,l),
(1904,336,l),
(2499,1320,l),
(1326,1320,l)
);
},
{
closed = 1;
nodes = (
(1884,1424,l),
(2273,1709,l),
(2142,1883,l),
(1884,1694,l),
(1625,1885,l),
(1494,1710,l)
);
}
);
width = 2561;
},
{
layerId = "825DD155-F87C-490A-ABDF-19954D756790";
shapes = (
{
closed = 1;
nodes = (
(106,0,l),
(417,0,ls),
(840,0,o),
(1033,275,o),
(1033,661,cs),
(1033,1045,o),
(839,1320,o),
(417,1320,cs),
(106,1320,l)
);
},
{
closed = 1;
nodes = (
(403,1164,ls),
(716,1164,o),
(854,951,o),
(853,659,cs),
(851,367,o),
(713,156,o),
(403,156,cs),
(276,156,l),
(276,1164,l)
);
},
{
closed = 1;
nodes = (
(1272,1165,l),
(1924,1165,l),
(1179,0,l),
(2184,0,l),
(2184,155,l),
(1485,155,l),
(2227,1320,l),
(1272,1320,l)
);
},
{
closed = 1;
nodes = (
(1720,1460,l),
(2020,1680,l),
(1944,1782,l),
(1720,1619,l),
(1497,1781,l),
(1421,1679,l)
);
}
);
width = 2317;
},
{
layerId = "01003CDD-FB01-4E06-850F-7A3DCDD105CB";
shapes = (
{
closed = 1;
nodes = (
(123,0,l),
(362,0,ls),
(786,0,o),
(968,275,o),
(968,661,cs),
(968,1045,o),
(784,1320,o),
(362,1320,cs),
(123,1320,l)
);
},
{
closed = 1;
nodes = (
(358,1256,ls),
(744,1256,o),
(906,1008,o),
(904,659,cs),
(902,310,o),
(741,64,o),
(358,64,cs),
(184,64,l),
(184,1256,l)
);
},
{
closed = 1;
nodes = (
(1245,1256,l),
(1974,1256,l),
(1152,0,l),
(2048,0,l),
(2048,64,l),
(1275,64,l),
(2091,1320,l),
(1245,1320,l)
);
},
{
closed = 1;
nodes = (
(1638,1478,l),
(1893,1665,l),
(1845,1731,l),
(1638,1581,l),
(1433,1729,l),
(1384,1664,l)
);
}
);
width = 2195;
}
);
leftKerningGroup = H;
rightKerningGroup = Z;
unicode = 452;
},
{
glyphname = Eth;
layers = (
{
layerId = "004841D3-970D-426C-AC4F-50F76441CB62";
name = "#instance";
shapes = (
{
closed = 1;
nodes = (
(123,0,l),
(362,0,ls),
(786,0,o),
(968,275,o),
(968,661,cs),
(968,1045,o),
(784,1320,o),
(362,1320,cs),
(123,1320,l)
);
},
{
closed = 1;
nodes = (
(358,1256,ls),
(744,1256,o),
(906,1008,o),
(904,659,cs),
(902,310,o),
(741,64,o),
(358,64,cs),
(184,64,l),
(184,1256,l)
);
},
{
closed = 1;
nodes = (
(503,628,l),
(503,688,l),
(-12,688,l),
(-12,628,l)
);
}
);
width = 1088;
},
{
layerId = "C0D83D2B-9CDF-4EFD-A4CD-122316F7B684";
shapes = (
{
closed = 1;
nodes = (
(72,0,l),
(528,0,ls),
(949,0,o),
(1162,275,o),
(1162,661,cs),
(1162,1045,o),
(949,1320,o),
(528,1320,cs),
(72,1320,l)
);
},
{
closed = 1;
nodes = (
(493,979,ls),
(659,979,o),
(750,838,o),
(750,659,cs),
(750,480,o),
(658,341,o),
(493,341,cs),
(459,341,l),
(459,979,l)
);
},
{
closed = 1;
nodes = (
(596.68,490,l),
(596.68,823,l),
(-20.388,823,l),
(-20.388,490,l)
);
}
);
width = 1243;
},
{
layerId = "825DD155-F87C-490A-ABDF-19954D756790";
shapes = (
{
closed = 1;
nodes = (
(106,0,l),
(417,0,ls),
(840,0,o),
(1033,275,o),
(1033,661,cs),
(1033,1045,o),
(839,1320,o),
(417,1320,cs),
(106,1320,l)
);
},
{
closed = 1;
nodes = (
(403,1164,ls),
(716,1164,o),
(854,951,o),
(853,659,cs),
(851,367,o),
(713,156,o),
(403,156,cs),
(276,156,l),
(276,1164,l)
);
},
{
closed = 1;
nodes = (
(534.275,582,l),
(534.275,733,l),
(-14.79,733,l),
(-14.79,582,l)
);
}
);
width = 1140;
},
{
layerId = "01003CDD-FB01-4E06-850F-7A3DCDD105CB";
shapes = (
{
closed = 1;
nodes = (
(123,0,l),
(362,0,ls),
(786,0,o),
(968,275,o),
(968,661,cs),
(968,1045,o),
(784,1320,o),
(362,1320,cs),
(123,1320,l)
);
},
{
closed = 1;
nodes = (
(358,1256,ls),
(744,1256,o),
(906,1008,o),
(904,659,cs),
(902,310,o),
(741,64,o),
(358,64,cs),
(184,64,l),
(184,1256,l)
);
},
{
closed = 1;
nodes = (
(503,628,l),
(503,688,l),
(-12,688,l),
(-12,628,l)
);
}
);
width = 1088;
}
);
leftKerningGroup = H;
rightKerningGroup = O;
unicode = 208;
},
{
glyphname = Dcaron;
layers = (
{
layerId = "004841D3-970D-426C-AC4F-50F76441CB62";
name = "#instance";
shapes = (
{
closed = 1;
nodes = (
(123,0,l),
(362,0,ls),
(786,0,o),
(968,275,o),
(968,661,cs),
(968,1045,o),
(784,1320,o),
(362,1320,cs),
(123,1320,l)
);
},
{
closed = 1;
nodes = (
(358,1256,ls),
(744,1256,o),
(906,1008,o),
(904,659,cs),
(902,310,o),
(741,64,o),
(358,64,cs),
(184,64,l),
(184,1256,l)
);
},
{
closed = 1;
nodes = (
(518,1382,l),
(740,1545,l),
(699,1603,l),
(518,1472,l),
(339,1601,l),
(296,1544,l)
);
}
);
width = 1088;
},
{
layerId = "C0D83D2B-9CDF-4EFD-A4CD-122316F7B684";
shapes = (
{
closed = 1;
nodes = (
(72,0,l),
(528,0,ls),
(949,0,o),
(1162,275,o),
(1162,661,cs),
(1162,1045,o),
(949,1320,o),
(528,1320,cs),
(72,1320,l)
);
},
{
closed = 1;
nodes = (
(493,979,ls),
(659,979,o),
(750,838,o),
(750,659,cs),
(750,480,o),
(658,341,o),
(493,341,cs),
(459,341,l),
(459,979,l)
);
},
{
closed = 1;
nodes = (
(585,1355,l),
(924,1604,l),
(810,1756,l),
(585,1591,l),
(359,1757,l),
(244,1605,l)
);
}
);
width = 1243;
},
{
layerId = "825DD155-F87C-490A-ABDF-19954D756790";
shapes = (
{
closed = 1;
nodes = (
(106,0,l),
(417,0,ls),
(840,0,o),
(1033,275,o),
(1033,661,cs),
(1033,1045,o),
(839,1320,o),
(417,1320,cs),
(106,1320,l)
);
},
{
closed = 1;
nodes = (
(403,1164,ls),
(716,1164,o),
(854,951,o),
(853,659,cs),
(851,367,o),
(713,156,o),
(403,156,cs),
(276,156,l),
(276,1164,l)
);
},
{
closed = 1;
nodes = (
(540,1373,l),
(801,1565,l),
(736,1654,l),
(540,1512,l),
(346,1653,l),
(279,1564,l)
);
}
);
width = 1140;
},
{
layerId = "01003CDD-FB01-4E06-850F-7A3DCDD105CB";
shapes = (
{
closed = 1;
nodes = (
(123,0,l),
(362,0,ls),
(786,0,o),
(968,275,o),
(968,661,cs),
(968,1045,o),
(784,1320,o),
(362,1320,cs),
(123,1320,l)
);
},
{
closed = 1;
nodes = (
(358,1256,ls),
(744,1256,o),
(906,1008,o),
(904,659,cs),
(902,310,o),
(741,64,o),
(358,64,cs),
(184,64,l),
(184,1256,l)
);
},
{
closed = 1;
nodes = (
(518,1382,l),
(740,1545,l),
(699,1603,l),
(518,1472,l),
(339,1601,l),
(296,1544,l)
);
}
);
width = 1088;
}
);
unicode = 270;
},
{
glyphname = Dcroat;
rightMetricsKey = D;
layers = (
{
layerId = "004841D3-970D-426C-AC4F-50F76441CB62";
name = "#instance";
shapes = (
{
closed = 1;
nodes = (
(123,0,l),
(362,0,ls),
(786,0,o),
(968,275,o),
(968,661,cs),
(968,1045,o),
(784,1320,o),
(362,1320,cs),
(123,1320,l)
);
},
{
closed = 1;
nodes = (
(358,1256,ls),
(744,1256,o),
(906,1008,o),
(904,659,cs),
(902,310,o),
(741,64,o),
(358,64,cs),
(184,64,l),
(184,1256,l)
);
},
{
closed = 1;
nodes = (
(503,628,l),
(503,688,l),
(-12,688,l),
(-12,628,l)
);
}
);
width = 1088;
},
{
layerId = "C0D83D2B-9CDF-4EFD-A4CD-122316F7B684";
shapes = (
{
closed = 1;
nodes = (
(72,0,l),
(528,0,ls),
(949,0,o),
(1162,275,o),
(1162,661,cs),
(1162,1045,o),
(949,1320,o),
(528,1320,cs),
(72,1320,l)
);
},
{
closed = 1;
nodes = (
(493,979,ls),
(659,979,o),
(750,838,o),
(750,659,cs),
(750,480,o),
(658,341,o),
(493,341,cs),
(459,341,l),
(459,979,l)
);
},
{
closed = 1;
nodes = (
(596.68,490,l),
(596.68,823,l),
(-20.388,823,l),
(-20.388,490,l)
);
}
);
width = 1243;
},
{
layerId = "825DD155-F87C-490A-ABDF-19954D756790";
shapes = (
{
closed = 1;
nodes = (
(106,0,l),
(417,0,ls),
(840,0,o),
(1033,275,o),
(1033,661,cs),
(1033,1045,o),
(839,1320,o),
(417,1320,cs),
(106,1320,l)
);
},
{
closed = 1;
nodes = (
(403,1164,ls),
(716,1164,o),
(854,951,o),
(853,659,cs),
(851,367,o),
(713,156,o),
(403,156,cs),
(276,156,l),
(276,1164,l)
);
},
{
closed = 1;
nodes = (
(534.275,582,l),
(534.275,733,l),
(-14.79,733,l),
(-14.79,582,l)
);
}
);
width = 1140;
},
{
layerId = "01003CDD-FB01-4E06-850F-7A3DCDD105CB";
shapes = (
{
closed = 1;
nodes = (
(123,0,l),
(362,0,ls),
(786,0,o),
(968,275,o),
(968,661,cs),
(968,1045,o),
(784,1320,o),
(362,1320,cs),
(123,1320,l)
);
},
{
closed = 1;
nodes = (
(358,1256,ls),
(744,1256,o),
(906,1008,o),
(904,659,cs),
(902,310,o),
(741,64,o),
(358,64,cs),
(184,64,l),
(184,1256,l)
);
},
{
closed = 1;
nodes = (
(503,628,l),
(503,688,l),
(-12,688,l),
(-12,628,l)
);
}
);
width = 1088;
}
);
leftKerningGroup = D;
rightKerningGroup = D;
unicode = 272;
},
{
glyphname = Dzcaron;
layers = (
{
layerId = "004841D3-970D-426C-AC4F-50F76441CB62";
name = "#instance";
shapes = (
{
closed = 1;
nodes = (
(123,0,l),
(362,0,ls),
(786,0,o),
(968,275,o),
(968,661,cs),
(968,1045,o),
(784,1320,o),
(362,1320,cs),
(123,1320,l)
);
},
{
closed = 1;
nodes = (
(358,1256,ls),
(744,1256,o),
(906,1008,o),
(904,659,cs),
(902,310,o),
(741,64,o),
(358,64,cs),
(184,64,l),
(184,1256,l)
);
},
{
closed = 1;
nodes = (
(1171,757,l),
(1683,757,l),
(1123,0,l),
(1794,0,l),
(1794,64,l),
(1245,64,l),
(1805,821,l),
(1171,821,l)
);
},
{
closed = 1;
nodes = (
(1482,979,l),
(1737,1166,l),
(1689,1232,l),
(1482,1082,l),
(1277,1230,l),
(1228,1165,l)
);
}
);
width = 1882;
},
{
layerId = "C0D83D2B-9CDF-4EFD-A4CD-122316F7B684";
shapes = (
{
closed = 1;
nodes = (
(72,0,l),
(528,0,ls),
(949,0,o),
(1162,275,o),
(1162,661,cs),
(1162,1045,o),
(949,1320,o),
(528,1320,cs),
(72,1320,l)
);
},
{
closed = 1;
nodes = (
(493,979,ls),
(659,979,o),
(750,838,o),
(750,659,cs),
(750,480,o),
(658,341,o),
(493,341,cs),
(459,341,l),
(459,979,l)
);
},
{
closed = 1;
nodes = (
(1297,555,l),
(1577,555,l),
(1224,0,l),
(2137,0,l),
(2137,267,l),
(1824,267,l),
(2177,821,l),
(1297,821,l)
);
},
{
closed = 1;
nodes = (
(1719,925,l),
(2108,1210,l),
(1977,1384,l),
(1719,1195,l),
(1460,1386,l),
(1329,1211,l)
);
}
);
width = 2181;
},
{
layerId = "825DD155-F87C-490A-ABDF-19954D756790";
shapes = (
{
closed = 1;
nodes = (
(106,0,l),
(417,0,ls),
(840,0,o),
(1033,275,o),
(1033,661,cs),
(1033,1045,o),
(839,1320,o),
(417,1320,cs),
(106,1320,l)
);
},
{
closed = 1;
nodes = (
(403,1164,ls),
(716,1164,o),
(854,951,o),
(853,659,cs),
(851,367,o),
(713,156,o),
(403,156,cs),
(276,156,l),
(276,1164,l)
);
},
{
closed = 1;
nodes = (
(1213,690,l),
(1648,690,l),
(1157,0,l),
(1909,0,l),
(1909,132,l),
(1439,132,l),
(1929,821,l),
(1213,821,l)
);
},
{
closed = 1;
nodes = (
(1561,961,l),
(1861,1181,l),
(1785,1283,l),
(1561,1120,l),
(1338,1282,l),
(1262,1180,l)
);
}
);
width = 1982;
},
{
layerId = "01003CDD-FB01-4E06-850F-7A3DCDD105CB";
shapes = (
{
closed = 1;
nodes = (
(123,0,l),
(362,0,ls),
(786,0,o),
(968,275,o),
(968,661,cs),
(968,1045,o),
(784,1320,o),
(362,1320,cs),
(123,1320,l)
);
},
{
closed = 1;
nodes = (
(358,1256,ls),
(744,1256,o),
(906,1008,o),
(904,659,cs),
(902,310,o),
(741,64,o),
(358,64,cs),
(184,64,l),
(184,1256,l)
);
},
{
closed = 1;
nodes = (
(1171,757,l),
(1683,757,l),
(1123,0,l),
(1794,0,l),
(1794,64,l),
(1245,64,l),
(1805,821,l),
(1171,821,l)
);
},
{
closed = 1;
nodes = (
(1482,979,l),
(1737,1166,l),
(1689,1232,l),
(1482,1082,l),
(1277,1230,l),
(1228,1165,l)
);
}
);
width = 1882;
}
);
leftKerningGroup = H;
rightKerningGroup = z;
unicode = 453;
},
{
glyphname = E;
leftMetricsKey = H;
rightMetricsKey = H;
layers = (
{
anchors = (
{
name = bottom;
position = "{451, 0}";
},
{
name = ogonek;
position = "{842, 16}";
},
{
name = top;
position = "{507, 1320}";
},
{
name = topleft;
position = "{51, 1320}";
}
);
layerId = "004841D3-970D-426C-AC4F-50F76441CB62";
name = "#instance";
shapes = (
{
closed = 1;
nodes = (
(134,0,l),
(862,0,l),
(862,64,l),
(195,64,l),
(195,630,l),
(843,630,l),
(843,694,l),
(195,694,l),
(195,1256,l),
(862,1256,l),
(862,1320,l),
(134,1320,l)
);
}
);
width = 1035;
},
{
anchors = (
{
name = bottom;
position = "{472, 0}";
},
{
name = ogonek;
position = "{870, 16}";
},
{
name = top;
position = "{472, 1320}";
},
{
name = topleft;
position = "{8, 1320}";
}
);
layerId = "C0D83D2B-9CDF-4EFD-A4CD-122316F7B684";
shapes = (
{
closed = 1;
nodes = (
(64,0,l),
(950,0,l),
(950,336,l),
(451,336,l),
(451,499,l),
(950,499,l),
(950,824,l),
(451,824,l),
(451,984,l),
(950,984,l),
(950,1320,l),
(64,1320,l)
);
}
);
width = 1082;
},
{
anchors = (
{
name = bottom;
position = "{458, 0}";
},
{
name = ogonek;
position = "{851, 16}";
},
{
name = top;
position = "{495, 1320}";
},
{
name = topleft;
position = "{37, 1320}";
}
);
layerId = "825DD155-F87C-490A-ABDF-19954D756790";
shapes = (
{
closed = 1;
nodes = (
(111,0,l),
(891,0,l),
(891,155,l),
(280,155,l),
(280,586,l),
(879,586,l),
(879,737,l),
(280,737,l),
(280,1165,l),
(891,1165,l),
(891,1320,l),
(111,1320,l)
);
}
);
width = 1050;
},
{
anchors = (
{
name = bottom;
position = "{451, 0}";
},
{
name = ogonek;
position = "{842, 16}";
},
{
name = top;
position = "{507, 1320}";
},
{
name = topleft;
position = "{51, 1320}";
}
);
layerId = "01003CDD-FB01-4E06-850F-7A3DCDD105CB";
shapes = (
{
closed = 1;
nodes = (
(134,0,l),
(862,0,l),
(862,64,l),
(195,64,l),
(195,630,l),
(843,630,l),
(843,694,l),
(195,694,l),
(195,1256,l),
(862,1256,l),
(862,1320,l),
(134,1320,l)
);
}
);
width = 1035;
}
);
leftKerningGroup = H;
rightKerningGroup = E;
unicode = 69;
},
{
glyphname = Eacute;
layers = (
{
layerId = "004841D3-970D-426C-AC4F-50F76441CB62";
name = "#instance";
shapes = (
{
closed = 1;
nodes = (
(134,0,l),
(862,0,l),
(862,64,l),
(195,64,l),
(195,630,l),
(843,630,l),
(843,694,l),
(195,694,l),
(195,1256,l),
(862,1256,l),
(862,1320,l),
(134,1320,l)
);
},
{
closed = 1;
nodes = (
(741,1576,l),
(682,1651,l),
(394,1425,l),
(433,1376,l)
);
}
);
width = 1035;
},
{
layerId = "C0D83D2B-9CDF-4EFD-A4CD-122316F7B684";
shapes = (
{
closed = 1;
nodes = (
(64,0,l),
(950,0,l),
(950,336,l),
(451,336,l),
(451,499,l),
(950,499,l),
(950,824,l),
(451,824,l),
(451,984,l),
(950,984,l),
(950,1320,l),
(64,1320,l)
);
},
{
closed = 1;
nodes = (
(790,1605,l),
(614,1827,l),
(274,1526,l),
(383,1376,l)
);
}
);
width = 1082;
},
{
layerId = "825DD155-F87C-490A-ABDF-19954D756790";
shapes = (
{
closed = 1;
nodes = (
(111,0,l),
(891,0,l),
(891,155,l),
(280,155,l),
(280,586,l),
(879,586,l),
(879,737,l),
(280,737,l),
(280,1165,l),
(891,1165,l),
(891,1320,l),
(111,1320,l)
);
},
{
closed = 1;
nodes = (
(757,1586,l),
(659,1710,l),
(354,1459,l),
(416,1376,l)
);
}
);
width = 1051;
},
{
layerId = "01003CDD-FB01-4E06-850F-7A3DCDD105CB";
shapes = (
{
closed = 1;
nodes = (
(134,0,l),
(862,0,l),
(862,64,l),
(195,64,l),
(195,630,l),
(843,630,l),
(843,694,l),
(195,694,l),
(195,1256,l),
(862,1256,l),
(862,1320,l),
(134,1320,l)
);
},
{
closed = 1;
nodes = (
(741,1576,l),
(682,1651,l),
(394,1425,l),
(433,1376,l)
);
}
);
width = 1035;
}
);
unicode = 201;
},
{
glyphname = Ebreve;
layers = (
{
layerId = "004841D3-970D-426C-AC4F-50F76441CB62";
name = "#instance";
shapes = (
{
closed = 1;
nodes = (
(134,0,l),
(862,0,l),
(862,64,l),
(195,64,l),
(195,630,l),
(843,630,l),
(843,694,l),
(195,694,l),
(195,1256,l),
(862,1256,l),
(862,1320,l),
(134,1320,l)
);
},
{
closed = 1;
nodes = (
(654,1580,l),
(643,1525,o),
(595,1452,o),
(507,1452,cs),
(419,1452,o),
(369,1525,o),
(358,1580,c),
(275,1559,l),
(283,1485,o),
(364,1380,o),
(507,1380,cs),
(651,1380,o),
(731,1489,o),
(739,1559,c)
);
}
);
width = 1035;
},
{
layerId = "C0D83D2B-9CDF-4EFD-A4CD-122316F7B684";
shapes = (
{
closed = 1;
nodes = (
(64,0,l),
(950,0,l),
(950,336,l),
(451,336,l),
(451,499,l),
(950,499,l),
(950,824,l),
(451,824,l),
(451,984,l),
(950,984,l),
(950,1320,l),
(64,1320,l)
);
},
{
closed = 1;
nodes = (
(624,1722,l),
(618,1655,o),
(572,1567,o),
(472,1567,cs),
(371,1567,o),
(327,1655,o),
(321,1722,c),
(109,1669,l),
(130,1489,o),
(274,1384,o),
(472,1384,cs),
(675,1384,o),
(815,1495,o),
(834,1669,c)
);
}
);
width = 1082;
},
{
layerId = "825DD155-F87C-490A-ABDF-19954D756790";
shapes = (
{
closed = 1;
nodes = (
(111,0,l),
(891,0,l),
(891,155,l),
(280,155,l),
(280,586,l),
(879,586,l),
(879,737,l),
(280,737,l),
(280,1165,l),
(891,1165,l),
(891,1320,l),
(111,1320,l)
);
},
{
closed = 1;
nodes = (
(644,1627,l),
(635,1568,o),
(588,1490,o),
(496,1490,cs),
(403,1490,o),
(355,1568,o),
(346,1627,c),
(220,1596,l),
(232,1486,o),
(334,1381,o),
(496,1381,cs),
(659,1381,o),
(759,1491,o),
(771,1596,c)
);
}
);
width = 1051;
},
{
layerId = "01003CDD-FB01-4E06-850F-7A3DCDD105CB";
shapes = (
{
closed = 1;
nodes = (
(134,0,l),
(862,0,l),
(862,64,l),
(195,64,l),
(195,630,l),
(843,630,l),
(843,694,l),
(195,694,l),
(195,1256,l),
(862,1256,l),
(862,1320,l),
(134,1320,l)
);
},
{
closed = 1;
nodes = (
(654,1580,l),
(643,1525,o),
(595,1452,o),
(507,1452,cs),
(419,1452,o),
(369,1525,o),
(358,1580,c),
(275,1559,l),
(283,1485,o),
(364,1380,o),
(507,1380,cs),
(651,1380,o),
(731,1489,o),
(739,1559,c)
);
}
);
width = 1035;
}
);
unicode = 276;
},
{
glyphname = Ecaron;
layers = (
{
layerId = "004841D3-970D-426C-AC4F-50F76441CB62";
name = "#instance";
shapes = (
{
closed = 1;
nodes = (
(134,0,l),
(862,0,l),
(862,64,l),
(195,64,l),
(195,630,l),
(843,630,l),
(843,694,l),
(195,694,l),
(195,1256,l),
(862,1256,l),
(862,1320,l),
(134,1320,l)
);
},
{
closed = 1;
nodes = (
(507,1382,l),
(729,1545,l),
(688,1603,l),
(507,1472,l),
(328,1601,l),
(285,1544,l)
);
}
);
width = 1035;
},
{
layerId = "C0D83D2B-9CDF-4EFD-A4CD-122316F7B684";
shapes = (
{
closed = 1;
nodes = (
(64,0,l),
(950,0,l),
(950,336,l),
(451,336,l),
(451,499,l),
(950,499,l),
(950,824,l),
(451,824,l),
(451,984,l),
(950,984,l),
(950,1320,l),
(64,1320,l)
);
},
{
closed = 1;
nodes = (
(473,1355,l),
(812,1604,l),
(698,1756,l),
(473,1591,l),
(247,1757,l),
(132,1605,l)
);
}
);
width = 1082;
},
{
layerId = "825DD155-F87C-490A-ABDF-19954D756790";
shapes = (
{
closed = 1;
nodes = (
(111,0,l),
(891,0,l),
(891,155,l),
(280,155,l),
(280,586,l),
(879,586,l),
(879,737,l),
(280,737,l),
(280,1165,l),
(891,1165,l),
(891,1320,l),
(111,1320,l)
);
},
{
closed = 1;
nodes = (
(495,1373,l),
(756,1565,l),
(691,1654,l),
(495,1512,l),
(301,1653,l),
(234,1564,l)
);
}
);
width = 1051;
},
{
layerId = "01003CDD-FB01-4E06-850F-7A3DCDD105CB";
shapes = (
{
closed = 1;
nodes = (
(134,0,l),
(862,0,l),
(862,64,l),
(195,64,l),
(195,630,l),
(843,630,l),
(843,694,l),
(195,694,l),
(195,1256,l),
(862,1256,l),
(862,1320,l),
(134,1320,l)
);
},
{
closed = 1;
nodes = (
(507,1382,l),
(729,1545,l),
(688,1603,l),
(507,1472,l),
(328,1601,l),
(285,1544,l)
);
}
);
width = 1035;
}
);
unicode = 282;
},
{
glyphname = Ecircumflex;
layers = (
{
layerId = "004841D3-970D-426C-AC4F-50F76441CB62";
name = "#instance";
shapes = (
{
closed = 1;
nodes = (
(134,0,l),
(862,0,l),
(862,64,l),
(195,64,l),
(195,630,l),
(843,630,l),
(843,694,l),
(195,694,l),
(195,1256,l),
(862,1256,l),
(862,1320,l),
(134,1320,l)
);
},
{
closed = 1;
nodes = (
(506,1559,l),
(713,1407,l),
(761,1473,l),
(506,1660,l),
(252,1474,l),
(301,1409,l)
);
}
);
width = 1035;
},
{
layerId = "C0D83D2B-9CDF-4EFD-A4CD-122316F7B684";
shapes = (
{
closed = 1;
nodes = (
(64,0,l),
(950,0,l),
(950,336,l),
(451,336,l),
(451,499,l),
(950,499,l),
(950,824,l),
(451,824,l),
(451,984,l),
(950,984,l),
(950,1320,l),
(64,1320,l)
);
},
{
closed = 1;
nodes = (
(472,1582,l),
(730,1393,l),
(861,1567,l),
(472,1852,l),
(82,1567,l),
(213,1393,l)
);
}
);
width = 1082;
},
{
layerId = "825DD155-F87C-490A-ABDF-19954D756790";
shapes = (
{
closed = 1;
nodes = (
(111,0,l),
(891,0,l),
(891,155,l),
(280,155,l),
(280,586,l),
(879,586,l),
(879,737,l),
(280,737,l),
(280,1165,l),
(891,1165,l),
(891,1320,l),
(111,1320,l)
);
},
{
closed = 1;
nodes = (
(494,1567,l),
(718,1402,l),
(794,1504,l),
(494,1724,l),
(195,1505,l),
(271,1404,l)
);
}
);
width = 1051;
},
{
layerId = "01003CDD-FB01-4E06-850F-7A3DCDD105CB";
shapes = (
{
closed = 1;
nodes = (
(134,0,l),
(862,0,l),
(862,64,l),
(195,64,l),
(195,630,l),
(843,630,l),
(843,694,l),
(195,694,l),
(195,1256,l),
(862,1256,l),
(862,1320,l),
(134,1320,l)
);
},
{
closed = 1;
nodes = (
(506,1559,l),
(713,1407,l),
(761,1473,l),
(506,1660,l),
(252,1474,l),
(301,1409,l)
);
}
);
width = 1035;
}
);
unicode = 202;
},
{
glyphname = Ecircumflexacute;
layers = (
{
layerId = "004841D3-970D-426C-AC4F-50F76441CB62";
name = "#instance";
shapes = (
{
closed = 1;
nodes = (
(134,0,l),
(862,0,l),
(862,64,l),
(195,64,l),
(195,630,l),
(843,630,l),
(843,694,l),
(195,694,l),
(195,1256,l),
(862,1256,l),
(862,1320,l),
(134,1320,l)
);
},
{
closed = 1;
nodes = (
(507,1579,l),
(714,1427,l),
(762,1493,l),
(507,1680,l),
(253,1494,l),
(302,1429,l)
);
},
{
closed = 1;
nodes = (
(1000,1866,l),
(939,1941,l),
(653,1715,l),
(691,1666,l)
);
}
);
width = 1035;
},
{
layerId = "C0D83D2B-9CDF-4EFD-A4CD-122316F7B684";
shapes = (
{
closed = 1;
nodes = (
(64,0,l),
(950,0,l),
(950,336,l),
(451,336,l),
(451,499,l),
(950,499,l),
(950,824,l),
(451,824,l),
(451,984,l),
(950,984,l),
(950,1320,l),
(64,1320,l)
);
},
{
closed = 1;
nodes = (
(474,1559,l),
(732,1370,l),
(863,1544,l),
(474,1829,l),
(84,1544,l),
(215,1370,l)
);
},
{
closed = 1;
nodes = (
(1161,1914,l),
(985,2136,l),
(646,1835,l),
(754,1685,l)
);
}
);
width = 1082;
},
{
layerId = "825DD155-F87C-490A-ABDF-19954D756790";
shapes = (
{
closed = 1;
nodes = (
(111,0,l),
(891,0,l),
(891,155,l),
(280,155,l),
(280,586,l),
(879,586,l),
(879,737,l),
(280,737,l),
(280,1165,l),
(891,1165,l),
(891,1320,l),
(111,1320,l)
);
},
{
closed = 1;
nodes = (
(496,1572,l),
(720,1408,l),
(796,1510,l),
(496,1729,l),
(197,1510,l),
(273,1409,l)
);
},
{
closed = 1;
nodes = (
(1054,1882,l),
(954,2006,l),
(651,1755,l),
(712,1673,l)
);
}
);
width = 1051;
},
{
layerId = "01003CDD-FB01-4E06-850F-7A3DCDD105CB";
shapes = (
{
closed = 1;
nodes = (
(134,0,l),
(862,0,l),
(862,64,l),
(195,64,l),
(195,630,l),
(843,630,l),
(843,694,l),
(195,694,l),
(195,1256,l),
(862,1256,l),
(862,1320,l),
(134,1320,l)
);
},
{
closed = 1;
nodes = (
(507,1579,l),
(714,1427,l),
(762,1493,l),
(507,1680,l),
(253,1494,l),
(302,1429,l)
);
},
{
closed = 1;
nodes = (
(1000,1866,l),
(939,1941,l),
(653,1715,l),
(691,1666,l)
);
}
);
width = 1035;
}
);
unicode = 7870;
},
{
glyphname = Ecircumflexdotbelow;
layers = (
{
layerId = "004841D3-970D-426C-AC4F-50F76441CB62";
name = "#instance";
shapes = (
{
closed = 1;
nodes = (
(134,0,l),
(862,0,l),
(862,64,l),
(195,64,l),
(195,630,l),
(843,630,l),
(843,694,l),
(195,694,l),
(195,1256,l),
(862,1256,l),
(862,1320,l),
(134,1320,l)
);
},
{
closed = 1;
nodes = (
(410,-96,o),
(377,-131,o),
(377,-170,cs),
(377,-208,o),
(410,-243,o),
(450,-243,cs),
(489,-243,o),
(524,-210,o),
(524,-170,cs),
(524,-130,o),
(489,-96,o),
(450,-96,cs)
);
},
{
closed = 1;
nodes = (
(506,1559,l),
(713,1407,l),
(761,1473,l),
(506,1660,l),
(252,1474,l),
(301,1409,l)
);
}
);
width = 1035;
},
{
layerId = "C0D83D2B-9CDF-4EFD-A4CD-122316F7B684";
shapes = (
{
closed = 1;
nodes = (
(64,0,l),
(950,0,l),
(950,336,l),
(451,336,l),
(451,499,l),
(950,499,l),
(950,824,l),
(451,824,l),
(451,984,l),
(950,984,l),
(950,1320,l),
(64,1320,l)
);
},
{
closed = 1;
nodes = (
(399,-85,o),
(341,-145,o),
(341,-217,cs),
(341,-289,o),
(399,-348,o),
(472,-348,cs),
(544,-348,o),
(602,-289,o),
(602,-217,cs),
(602,-145,o),
(544,-85,o),
(472,-85,cs)
);
},
{
closed = 1;
nodes = (
(472,1582,l),
(730,1393,l),
(861,1567,l),
(472,1852,l),
(82,1567,l),
(213,1393,l)
);
}
);
width = 1082;
},
{
layerId = "825DD155-F87C-490A-ABDF-19954D756790";
shapes = (
{
closed = 1;
nodes = (
(111,0,l),
(891,0,l),
(891,155,l),
(280,155,l),
(280,586,l),
(879,586,l),
(879,737,l),
(280,737,l),
(280,1165,l),
(891,1165,l),
(891,1320,l),
(111,1320,l)
);
},
{
closed = 1;
nodes = (
(406,-92,o),
(365,-136,o),
(365,-186,cs),
(365,-235,o),
(406,-278,o),
(457,-278,cs),
(507,-278,o),
(550,-236,o),
(550,-186,cs),
(550,-135,o),
(507,-92,o),
(457,-92,cs)
);
},
{
closed = 1;
nodes = (
(494,1567,l),
(718,1402,l),
(794,1504,l),
(494,1724,l),
(195,1505,l),
(271,1404,l)
);
}
);
width = 1051;
},
{
layerId = "01003CDD-FB01-4E06-850F-7A3DCDD105CB";
shapes = (
{
closed = 1;
nodes = (
(134,0,l),
(862,0,l),
(862,64,l),
(195,64,l),
(195,630,l),
(843,630,l),
(843,694,l),
(195,694,l),
(195,1256,l),
(862,1256,l),
(862,1320,l),
(134,1320,l)
);
},
{
closed = 1;
nodes = (
(410,-96,o),
(377,-131,o),
(377,-170,cs),
(377,-208,o),
(410,-243,o),
(450,-243,cs),
(489,-243,o),
(524,-210,o),
(524,-170,cs),
(524,-130,o),
(489,-96,o),
(450,-96,cs)
);
},
{
closed = 1;
nodes = (
(506,1559,l),
(713,1407,l),
(761,1473,l),
(506,1660,l),
(252,1474,l),
(301,1409,l)
);
}
);
width = 1035;
}
);
unicode = 7878;
},
{
glyphname = Ecircumflexgrave;
layers = (
{
layerId = "004841D3-970D-426C-AC4F-50F76441CB62";
name = "#instance";
shapes = (
{
closed = 1;
nodes = (
(134,0,l),
(862,0,l),
(862,64,l),
(195,64,l),
(195,630,l),
(843,630,l),
(843,694,l),
(195,694,l),
(195,1256,l),
(862,1256,l),
(862,1320,l),
(134,1320,l)
);
},
{
closed = 1;
nodes = (
(512,1562,l),
(719,1410,l),
(767,1476,l),
(512,1663,l),
(258,1477,l),
(307,1412,l)
);
},
{
closed = 1;
nodes = (
(892,1681,l),
(604,1907,l),
(545,1832,l),
(853,1632,l)
);
}
);
width = 1035;
},
{
layerId = "C0D83D2B-9CDF-4EFD-A4CD-122316F7B684";
shapes = (
{
closed = 1;
nodes = (
(64,0,l),
(950,0,l),
(950,336,l),
(451,336,l),
(451,499,l),
(950,499,l),
(950,824,l),
(451,824,l),
(451,984,l),
(950,984,l),
(950,1320,l),
(64,1320,l)
);
},
{
closed = 1;
nodes = (
(474,1564,l),
(732,1375,l),
(863,1549,l),
(474,1834,l),
(84,1549,l),
(215,1375,l)
);
},
{
closed = 1;
nodes = (
(1018,1825,l),
(678,2126,l),
(502,1904,l),
(909,1675,l)
);
}
);
width = 1082;
},
{
layerId = "825DD155-F87C-490A-ABDF-19954D756790";
shapes = (
{
closed = 1;
nodes = (
(111,0,l),
(891,0,l),
(891,155,l),
(280,155,l),
(280,586,l),
(879,586,l),
(879,737,l),
(280,737,l),
(280,1165,l),
(891,1165,l),
(891,1320,l),
(111,1320,l)
);
},
{
closed = 1;
nodes = (
(499,1563,l),
(723,1399,l),
(799,1501,l),
(499,1720,l),
(200,1501,l),
(276,1400,l)
);
},
{
closed = 1;
nodes = (
(934,1729,l),
(628,1980,l),
(530,1856,l),
(871,1647,l)
);
}
);
width = 1051;
},
{
layerId = "01003CDD-FB01-4E06-850F-7A3DCDD105CB";
shapes = (
{
closed = 1;
nodes = (
(134,0,l),
(862,0,l),
(862,64,l),
(195,64,l),
(195,630,l),
(843,630,l),
(843,694,l),
(195,694,l),
(195,1256,l),
(862,1256,l),
(862,1320,l),
(134,1320,l)
);
},
{
closed = 1;
nodes = (
(512,1562,l),
(719,1410,l),
(767,1476,l),
(512,1663,l),
(258,1477,l),
(307,1412,l)
);
},
{
closed = 1;
nodes = (
(892,1681,l),
(604,1907,l),
(545,1832,l),
(853,1632,l)
);
}
);
width = 1035;
}
);
unicode = 7872;
},
{
glyphname = Ecircumflexhookabove;
layers = (
{
layerId = "004841D3-970D-426C-AC4F-50F76441CB62";
name = "#instance";
shapes = (
{
closed = 1;
nodes = (
(134,0,l),
(862,0,l),
(862,64,l),
(195,64,l),
(195,630,l),
(843,630,l),
(843,694,l),
(195,694,l),
(195,1256,l),
(862,1256,l),
(862,1320,l),
(134,1320,l)
);
},
{
closed = 1;
nodes = (
(508,1565,l),
(715,1413,l),
(763,1479,l),
(508,1666,l),
(254,1480,l),
(303,1415,l)
);
},
{
closed = 1;
nodes = (
(688,1630,l),
(775,1667,o),
(901,1733,o),
(901,1880,cs),
(901,2019,o),
(805,2058,o),
(704,2058,cs),
(597,2058,o),
(528,2026,o),
(504,2010,c),
(504,1946,l),
(544,1966,o),
(628,1995,o),
(685,1995,cs),
(746,1995,o),
(834,1989,o),
(834,1872,cs),
(834,1755,o),
(706,1696,o),
(650,1682,c)
);
}
);
width = 1035;
},
{
layerId = "C0D83D2B-9CDF-4EFD-A4CD-122316F7B684";
shapes = (
{
closed = 1;
nodes = (
(64,0,l),
(950,0,l),
(950,336,l),
(451,336,l),
(451,499,l),
(950,499,l),
(950,824,l),
(451,824,l),
(451,984,l),
(950,984,l),
(950,1320,l),
(64,1320,l)
);
},
{
closed = 1;
nodes = (
(476,1559,l),
(734,1370,l),
(865,1544,l),
(476,1829,l),
(86,1544,l),
(217,1370,l)
);
},
{
closed = 1;
nodes = (
(680,1731,l),
(757,1754,o),
(957,1840,o),
(957,2016,cs),
(957,2182,o),
(818,2242,o),
(680,2242,cs),
(557,2242,o),
(504,2210,o),
(480,2194,c),
(480,2006,l),
(520,2027,o),
(576,2051,o),
(634,2051,cs),
(695,2051,o),
(730,2043,o),
(730,1986,cs),
(730,1928,o),
(634,1878,o),
(594,1867,c)
);
}
);
width = 1082;
},
{
layerId = "825DD155-F87C-490A-ABDF-19954D756790";
shapes = (
{
closed = 1;
nodes = (
(111,0,l),
(891,0,l),
(891,155,l),
(280,155,l),
(280,586,l),
(879,586,l),
(879,737,l),
(280,737,l),
(280,1165,l),
(891,1165,l),
(891,1320,l),
(111,1320,l)
);
},
{
closed = 1;
nodes = (
(497,1563,l),
(721,1399,l),
(797,1501,l),
(497,1720,l),
(198,1501,l),
(274,1400,l)
);
},
{
closed = 1;
nodes = (
(685,1664,l),
(769,1696,o),
(920,1769,o),
(920,1925,cs),
(920,2073,o),
(809,2119,o),
(696,2119,cs),
(584,2119,o),
(520,2087,o),
(496,2071,c),
(496,1966,l),
(536,1986,o),
(611,2014,o),
(668,2014,cs),
(729,2014,o),
(799,2007,o),
(799,1910,cs),
(799,1813,o),
(682,1757,o),
(631,1744,c)
);
}
);
width = 1051;
},
{
layerId = "01003CDD-FB01-4E06-850F-7A3DCDD105CB";
shapes = (
{
closed = 1;
nodes = (
(134,0,l),
(862,0,l),
(862,64,l),
(195,64,l),
(195,630,l),
(843,630,l),
(843,694,l),
(195,694,l),
(195,1256,l),
(862,1256,l),
(862,1320,l),
(134,1320,l)
);
},
{
closed = 1;
nodes = (
(508,1565,l),
(715,1413,l),
(763,1479,l),
(508,1666,l),
(254,1480,l),
(303,1415,l)
);
},
{
closed = 1;
nodes = (
(688,1630,l),
(775,1667,o),
(901,1733,o),
(901,1880,cs),
(901,2019,o),
(805,2058,o),
(704,2058,cs),
(597,2058,o),
(528,2026,o),
(504,2010,c),
(504,1946,l),
(544,1966,o),
(628,1995,o),
(685,1995,cs),
(746,1995,o),
(834,1989,o),
(834,1872,cs),
(834,1755,o),
(706,1696,o),
(650,1682,c)
);
}
);
width = 1035;
}
);
unicode = 7874;
},
{
glyphname = Ecircumflextilde;
layers = (
{
layerId = "004841D3-970D-426C-AC4F-50F76441CB62";
name = "#instance";
shapes = (
{
closed = 1;
nodes = (
(134,0,l),
(862,0,l),
(862,64,l),
(195,64,l),
(195,630,l),
(843,630,l),
(843,694,l),
(195,694,l),
(195,1256,l),
(862,1256,l),
(862,1320,l),
(134,1320,l)
);
},
{
closed = 1;
nodes = (
(503,1559,l),
(710,1407,l),
(758,1473,l),
(503,1660,l),
(249,1474,l),
(298,1409,l)
);
},
{
closed = 1;
nodes = (
(475,1806,o),
(517,1729,o),
(637,1729,cs),
(725,1729,o),
(787,1817,o),
(809,1884,c),
(713,1884,l),
(705,1850,o),
(675,1806,o),
(621,1806,cs),
(529,1806,o),
(496,1884,o),
(376,1884,cs),
(288,1884,o),
(229,1796,o),
(209,1729,c),
(305,1729,l),
(317,1762,o),
(352,1806,o),
(403,1806,cs)
);
}
);
width = 1035;
},
{
layerId = "C0D83D2B-9CDF-4EFD-A4CD-122316F7B684";
shapes = (
{
closed = 1;
nodes = (
(64,0,l),
(950,0,l),
(950,336,l),
(451,336,l),
(451,499,l),
(950,499,l),
(950,824,l),
(451,824,l),
(451,984,l),
(950,984,l),
(950,1320,l),
(64,1320,l)
);
},
{
closed = 1;
nodes = (
(472,1552,l),
(730,1363,l),
(861,1537,l),
(472,1822,l),
(82,1537,l),
(213,1363,l)
);
},
{
closed = 1;
nodes = (
(435,1923,o),
(519,1851,o),
(647,1851,cs),
(789,1851,o),
(864,2032,o),
(882,2168,c),
(696,2168,l),
(687,2138,o),
(663,2096,o),
(631,2096,cs),
(543,2096,o),
(456,2168,o),
(328,2168,cs),
(186,2168,o),
(109,1987,o),
(91,1851,c),
(277,1851,l),
(285,1882,o),
(307,1923,o),
(339,1923,cs)
);
}
);
width = 1082;
},
{
layerId = "825DD155-F87C-490A-ABDF-19954D756790";
shapes = (
{
closed = 1;
nodes = (
(111,0,l),
(891,0,l),
(891,155,l),
(280,155,l),
(280,586,l),
(879,586,l),
(879,737,l),
(280,737,l),
(280,1165,l),
(891,1165,l),
(891,1320,l),
(111,1320,l)
);
},
{
closed = 1;
nodes = (
(492,1557,l),
(716,1393,l),
(792,1495,l),
(492,1714,l),
(193,1495,l),
(269,1394,l)
);
},
{
closed = 1;
nodes = (
(461,1845,o),
(517,1770,o),
(640,1770,cs),
(746,1770,o),
(812,1889,o),
(833,1979,c),
(707,1979,l),
(699,1946,o),
(671,1903,o),
(624,1903,cs),
(533,1903,o),
(482,1979,o),
(360,1979,cs),
(254,1979,o),
(189,1860,o),
(169,1770,c),
(295,1770,l),
(306,1802,o),
(337,1845,o),
(381,1845,cs)
);
}
);
width = 1051;
},
{
layerId = "01003CDD-FB01-4E06-850F-7A3DCDD105CB";
shapes = (
{
closed = 1;
nodes = (
(134,0,l),
(862,0,l),
(862,64,l),
(195,64,l),
(195,630,l),
(843,630,l),
(843,694,l),
(195,694,l),
(195,1256,l),
(862,1256,l),
(862,1320,l),
(134,1320,l)
);
},
{
closed = 1;
nodes = (
(503,1559,l),
(710,1407,l),
(758,1473,l),
(503,1660,l),
(249,1474,l),
(298,1409,l)
);
},
{
closed = 1;
nodes = (
(475,1806,o),
(517,1729,o),
(637,1729,cs),
(725,1729,o),
(787,1817,o),
(809,1884,c),
(713,1884,l),
(705,1850,o),
(675,1806,o),
(621,1806,cs),
(529,1806,o),
(496,1884,o),
(376,1884,cs),
(288,1884,o),
(229,1796,o),
(209,1729,c),
(305,1729,l),
(317,1762,o),
(352,1806,o),
(403,1806,cs)
);
}
);
width = 1035;
}
);
unicode = 7876;
},
{
glyphname = Edblgrave;
layers = (
{
layerId = "004841D3-970D-426C-AC4F-50F76441CB62";
name = "#instance";
shapes = (
{
closed = 1;
nodes = (
(134,0,l),
(862,0,l),
(862,64,l),
(195,64,l),
(195,630,l),
(843,630,l),
(843,694,l),
(195,694,l),
(195,1256,l),
(862,1256,l),
(862,1320,l),
(134,1320,l)
);
},
{
closed = 1;
nodes = (
(845,1420,l),
(557,1646,l),
(498,1571,l),
(806,1371,l)
);
},
{
closed = 1;
nodes = (
(515,1420,l),
(227,1646,l),
(168,1571,l),
(476,1371,l)
);
}
);
width = 1035;
},
{
layerId = "C0D83D2B-9CDF-4EFD-A4CD-122316F7B684";
shapes = (
{
closed = 1;
nodes = (
(64,0,l),
(950,0,l),
(950,336,l),
(451,336,l),
(451,499,l),
(950,499,l),
(950,824,l),
(451,824,l),
(451,984,l),
(950,984,l),
(950,1320,l),
(64,1320,l)
);
},
{
closed = 1;
nodes = (
(959,1528,l),
(619,1829,l),
(443,1607,l),
(850,1378,l)
);
},
{
closed = 1;
nodes = (
(501,1528,l),
(161,1829,l),
(-15,1607,l),
(392,1378,l)
);
}
);
width = 1082;
},
{
layerId = "825DD155-F87C-490A-ABDF-19954D756790";
shapes = (
{
closed = 1;
nodes = (
(111,0,l),
(891,0,l),
(891,155,l),
(280,155,l),
(280,586,l),
(879,586,l),
(879,737,l),
(280,737,l),
(280,1165,l),
(891,1165,l),
(891,1320,l),
(111,1320,l)
);
},
{
closed = 1;
nodes = (
(883,1456,l),
(577,1707,l),
(479,1583,l),
(820,1373,l)
);
},
{
closed = 1;
nodes = (
(510,1456,l),
(205,1707,l),
(107,1583,l),
(448,1373,l)
);
}
);
width = 1051;
},
{
layerId = "01003CDD-FB01-4E06-850F-7A3DCDD105CB";
shapes = (
{
closed = 1;
nodes = (
(134,0,l),
(862,0,l),
(862,64,l),
(195,64,l),
(195,630,l),
(843,630,l),
(843,694,l),
(195,694,l),
(195,1256,l),
(862,1256,l),
(862,1320,l),
(134,1320,l)
);
},
{
closed = 1;
nodes = (
(845,1420,l),
(557,1646,l),
(498,1571,l),
(806,1371,l)
);
},
{
closed = 1;
nodes = (
(515,1420,l),
(227,1646,l),
(168,1571,l),
(476,1371,l)
);
}
);
width = 1035;
}
);
unicode = 516;
},
{
glyphname = Edieresis;
layers = (
{
layerId = "004841D3-970D-426C-AC4F-50F76441CB62";
name = "#instance";
shapes = (
{
closed = 1;
nodes = (
(134,0,l),
(862,0,l),
(862,64,l),
(195,64,l),
(195,630,l),
(843,630,l),
(843,694,l),
(195,694,l),
(195,1256,l),
(862,1256,l),
(862,1320,l),
(134,1320,l)
);
},
{
closed = 1;
nodes = (
(277,1566,o),
(244,1531,o),
(244,1492,cs),
(244,1454,o),
(277,1419,o),
(317,1419,cs),
(356,1419,o),
(391,1452,o),
(391,1492,cs),
(391,1532,o),
(356,1566,o),
(317,1566,cs)
);
},
{
closed = 1;
nodes = (
(656,1566,o),
(623,1531,o),
(623,1492,cs),
(623,1454,o),
(656,1419,o),
(696,1419,cs),
(735,1419,o),
(770,1452,o),
(770,1492,cs),
(770,1532,o),
(735,1566,o),
(696,1566,cs)
);
}
);
width = 1035;
},
{
layerId = "C0D83D2B-9CDF-4EFD-A4CD-122316F7B684";
shapes = (
{
closed = 1;
nodes = (
(64,0,l),
(950,0,l),
(950,336,l),
(451,336,l),
(451,499,l),
(950,499,l),
(950,824,l),
(451,824,l),
(451,984,l),
(950,984,l),
(950,1320,l),
(64,1320,l)
);
},
{
closed = 1;
nodes = (
(170,1742,o),
(93,1663,o),
(93,1567,cs),
(93,1471,o),
(170,1393,o),
(267,1393,cs),
(363,1393,o),
(440,1471,o),
(440,1567,cs),
(440,1663,o),
(363,1742,o),
(267,1742,cs)
);
},
{
closed = 1;
nodes = (
(581,1742,o),
(504,1663,o),
(504,1567,cs),
(504,1471,o),
(581,1393,o),
(678,1393,cs),
(774,1393,o),
(851,1471,o),
(851,1567,cs),
(851,1663,o),
(774,1742,o),
(678,1742,cs)
);
}
);
width = 1082;
},
{
layerId = "825DD155-F87C-490A-ABDF-19954D756790";
shapes = (
{
closed = 1;
nodes = (
(111,0,l),
(891,0,l),
(891,155,l),
(280,155,l),
(280,586,l),
(879,586,l),
(879,737,l),
(280,737,l),
(280,1165,l),
(891,1165,l),
(891,1320,l),
(111,1320,l)
);
},
{
closed = 1;
nodes = (
(241,1625,o),
(194,1575,o),
(194,1517,cs),
(194,1460,o),
(241,1410,o),
(300,1410,cs),
(358,1410,o),
(407,1458,o),
(407,1517,cs),
(407,1576,o),
(358,1625,o),
(300,1625,cs)
);
},
{
closed = 1;
nodes = (
(631,1625,o),
(583,1575,o),
(583,1517,cs),
(583,1460,o),
(631,1410,o),
(690,1410,cs),
(748,1410,o),
(797,1458,o),
(797,1517,cs),
(797,1576,o),
(748,1625,o),
(690,1625,cs)
);
}
);
width = 1051;
},
{
layerId = "01003CDD-FB01-4E06-850F-7A3DCDD105CB";
shapes = (
{
closed = 1;
nodes = (
(134,0,l),
(862,0,l),
(862,64,l),
(195,64,l),
(195,630,l),
(843,630,l),
(843,694,l),
(195,694,l),
(195,1256,l),
(862,1256,l),
(862,1320,l),
(134,1320,l)
);
},
{
closed = 1;
nodes = (
(277,1566,o),
(244,1531,o),
(244,1492,cs),
(244,1454,o),
(277,1419,o),
(317,1419,cs),
(356,1419,o),
(391,1452,o),
(391,1492,cs),
(391,1532,o),
(356,1566,o),
(317,1566,cs)
);
},
{
closed = 1;
nodes = (
(656,1566,o),
(623,1531,o),
(623,1492,cs),
(623,1454,o),
(656,1419,o),
(696,1419,cs),
(735,1419,o),
(770,1452,o),
(770,1492,cs),
(770,1532,o),
(735,1566,o),
(696,1566,cs)
);
}
);
width = 1035;
}
);
unicode = 203;
},
{
glyphname = Edotaccent;
layers = (
{
layerId = "004841D3-970D-426C-AC4F-50F76441CB62";
name = "#instance";
shapes = (
{
closed = 1;
nodes = (
(134,0,l),
(862,0,l),
(862,64,l),
(195,64,l),
(195,630,l),
(843,630,l),
(843,694,l),
(195,694,l),
(195,1256,l),
(862,1256,l),
(862,1320,l),
(134,1320,l)
);
},
{
closed = 1;
nodes = (
(466,1566,o),
(433,1531,o),
(433,1492,cs),
(433,1454,o),
(466,1419,o),
(506,1419,cs),
(545,1419,o),
(580,1452,o),
(580,1492,cs),
(580,1532,o),
(545,1566,o),
(506,1566,cs)
);
}
);
width = 1035;
},
{
layerId = "C0D83D2B-9CDF-4EFD-A4CD-122316F7B684";
shapes = (
{
closed = 1;
nodes = (
(64,0,l),
(950,0,l),
(950,336,l),
(451,336,l),
(451,499,l),
(950,499,l),
(950,824,l),
(451,824,l),
(451,984,l),
(950,984,l),
(950,1320,l),
(64,1320,l)
);
},
{
closed = 1;
nodes = (
(375,1738,o),
(298,1659,o),
(298,1563,cs),
(298,1467,o),
(375,1389,o),
(472,1389,cs),
(568,1389,o),
(645,1467,o),
(645,1563,cs),
(645,1659,o),
(568,1738,o),
(472,1738,cs)
);
}
);
width = 1082;
},
{
layerId = "825DD155-F87C-490A-ABDF-19954D756790";
shapes = (
{
closed = 1;
nodes = (
(111,0,l),
(891,0,l),
(891,155,l),
(280,155,l),
(280,586,l),
(879,586,l),
(879,737,l),
(280,737,l),
(280,1165,l),
(891,1165,l),
(891,1320,l),
(111,1320,l)
);
},
{
closed = 1;
nodes = (
(435,1623,o),
(388,1574,o),
(388,1516,cs),
(388,1458,o),
(435,1409,o),
(494,1409,cs),
(552,1409,o),
(601,1457,o),
(601,1516,cs),
(601,1574,o),
(552,1623,o),
(494,1623,cs)
);
}
);
width = 1051;
},
{
layerId = "01003CDD-FB01-4E06-850F-7A3DCDD105CB";
shapes = (
{
closed = 1;
nodes = (
(134,0,l),
(862,0,l),
(862,64,l),
(195,64,l),
(195,630,l),
(843,630,l),
(843,694,l),
(195,694,l),
(195,1256,l),
(862,1256,l),
(862,1320,l),
(134,1320,l)
);
},
{
closed = 1;
nodes = (
(466,1566,o),
(433,1531,o),
(433,1492,cs),
(433,1454,o),
(466,1419,o),
(506,1419,cs),
(545,1419,o),
(580,1452,o),
(580,1492,cs),
(580,1532,o),
(545,1566,o),
(506,1566,cs)
);
}
);
width = 1035;
}
);
unicode = 278;
},
{
glyphname = Edotbelow;
layers = (
{
layerId = "004841D3-970D-426C-AC4F-50F76441CB62";
name = "#instance";
shapes = (
{
closed = 1;
nodes = (
(134,0,l),
(862,0,l),
(862,64,l),
(195,64,l),
(195,630,l),
(843,630,l),
(843,694,l),
(195,694,l),
(195,1256,l),
(862,1256,l),
(862,1320,l),
(134,1320,l)
);
},
{
closed = 1;
nodes = (
(410,-96,o),
(377,-131,o),
(377,-170,cs),
(377,-208,o),
(410,-243,o),
(450,-243,cs),
(489,-243,o),
(524,-210,o),
(524,-170,cs),
(524,-130,o),
(489,-96,o),
(450,-96,cs)
);
}
);
width = 1035;
},
{
layerId = "C0D83D2B-9CDF-4EFD-A4CD-122316F7B684";
shapes = (
{
closed = 1;
nodes = (
(64,0,l),
(950,0,l),
(950,336,l),
(451,336,l),
(451,499,l),
(950,499,l),
(950,824,l),
(451,824,l),
(451,984,l),
(950,984,l),
(950,1320,l),
(64,1320,l)
);
},
{
closed = 1;
nodes = (
(399,-85,o),
(341,-145,o),
(341,-217,cs),
(341,-289,o),
(399,-348,o),
(472,-348,cs),
(544,-348,o),
(602,-289,o),
(602,-217,cs),
(602,-145,o),
(544,-85,o),
(472,-85,cs)
);
}
);
width = 1082;
},
{
layerId = "825DD155-F87C-490A-ABDF-19954D756790";
shapes = (
{
closed = 1;
nodes = (
(111,0,l),
(891,0,l),
(891,155,l),
(280,155,l),
(280,586,l),
(879,586,l),
(879,737,l),
(280,737,l),
(280,1165,l),
(891,1165,l),
(891,1320,l),
(111,1320,l)
);
},
{
closed = 1;
nodes = (
(406,-92,o),
(365,-136,o),
(365,-186,cs),
(365,-235,o),
(406,-278,o),
(457,-278,cs),
(507,-278,o),
(550,-236,o),
(550,-186,cs),
(550,-135,o),
(507,-92,o),
(457,-92,cs)
);
}
);
width = 1051;
},
{
layerId = "01003CDD-FB01-4E06-850F-7A3DCDD105CB";
shapes = (
{
closed = 1;
nodes = (
(134,0,l),
(862,0,l),
(862,64,l),
(195,64,l),
(195,630,l),
(843,630,l),
(843,694,l),
(195,694,l),
(195,1256,l),
(862,1256,l),
(862,1320,l),
(134,1320,l)
);
},
{
closed = 1;
nodes = (
(410,-96,o),
(377,-131,o),
(377,-170,cs),
(377,-208,o),
(410,-243,o),
(450,-243,cs),
(489,-243,o),
(524,-210,o),
(524,-170,cs),
(524,-130,o),
(489,-96,o),
(450,-96,cs)
);
}
);
width = 1035;
}
);
unicode = 7864;
},
{
glyphname = Egrave;
layers = (
{
layerId = "004841D3-970D-426C-AC4F-50F76441CB62";
name = "#instance";
shapes = (
{
closed = 1;
nodes = (
(134,0,l),
(862,0,l),
(862,64,l),
(195,64,l),
(195,630,l),
(843,630,l),
(843,694,l),
(195,694,l),
(195,1256,l),
(862,1256,l),
(862,1320,l),
(134,1320,l)
);
},
{
closed = 1;
nodes = (
(602,1425,l),
(314,1651,l),
(255,1576,l),
(563,1376,l)
);
}
);
width = 1035;
},
{
layerId = "C0D83D2B-9CDF-4EFD-A4CD-122316F7B684";
shapes = (
{
closed = 1;
nodes = (
(64,0,l),
(950,0,l),
(950,336,l),
(451,336,l),
(451,499,l),
(950,499,l),
(950,824,l),
(451,824,l),
(451,984,l),
(950,984,l),
(950,1320,l),
(64,1320,l)
);
},
{
closed = 1;
nodes = (
(649,1526,l),
(309,1827,l),
(133,1605,l),
(540,1376,l)
);
}
);
width = 1082;
},
{
layerId = "825DD155-F87C-490A-ABDF-19954D756790";
shapes = (
{
closed = 1;
nodes = (
(111,0,l),
(891,0,l),
(891,155,l),
(280,155,l),
(280,586,l),
(879,586,l),
(879,737,l),
(280,737,l),
(280,1165,l),
(891,1165,l),
(891,1320,l),
(111,1320,l)
);
},
{
closed = 1;
nodes = (
(618,1459,l),
(312,1710,l),
(214,1586,l),
(555,1376,l)
);
}
);
width = 1051;
},
{
layerId = "01003CDD-FB01-4E06-850F-7A3DCDD105CB";
shapes = (
{
closed = 1;
nodes = (
(134,0,l),
(862,0,l),
(862,64,l),
(195,64,l),
(195,630,l),
(843,630,l),
(843,694,l),
(195,694,l),
(195,1256,l),
(862,1256,l),
(862,1320,l),
(134,1320,l)
);
},
{
closed = 1;
nodes = (
(602,1425,l),
(314,1651,l),
(255,1576,l),
(563,1376,l)
);
}
);
width = 1035;
}
);
unicode = 200;
},
{
glyphname = Ehookabove;
layers = (
{
layerId = "004841D3-970D-426C-AC4F-50F76441CB62";
name = "#instance";
shapes = (
{
closed = 1;
nodes = (
(134,0,l),
(862,0,l),
(862,64,l),
(195,64,l),
(195,630,l),
(843,630,l),
(843,694,l),
(195,694,l),
(195,1256,l),
(862,1256,l),
(862,1320,l),
(134,1320,l)
);
},
{
closed = 1;
nodes = (
(492,1402,l),
(579,1439,o),
(705,1495,o),
(705,1622,cs),
(705,1751,o),
(609,1790,o),
(508,1790,cs),
(401,1790,o),
(332,1758,o),
(308,1742,c),
(308,1678,l),
(348,1698,o),
(432,1727,o),
(489,1727,cs),
(550,1727,o),
(638,1721,o),
(638,1614,cs),
(638,1517,o),
(510,1468,o),
(454,1454,c)
);
}
);
width = 1035;
},
{
layerId = "C0D83D2B-9CDF-4EFD-A4CD-122316F7B684";
shapes = (
{
closed = 1;
nodes = (
(64,0,l),
(950,0,l),
(950,336,l),
(451,336,l),
(451,499,l),
(950,499,l),
(950,824,l),
(451,824,l),
(451,984,l),
(950,984,l),
(950,1320,l),
(64,1320,l)
);
},
{
closed = 1;
nodes = (
(433,1385,l),
(510,1404,o),
(710,1476,o),
(710,1624,cs),
(710,1763,o),
(571,1814,o),
(433,1814,cs),
(310,1814,o),
(257,1787,o),
(233,1773,c),
(233,1616,l),
(273,1633,o),
(329,1654,o),
(387,1654,cs),
(448,1654,o),
(483,1647,o),
(483,1599,cs),
(483,1550,o),
(387,1508,o),
(347,1499,c)
);
}
);
width = 1082;
},
{
layerId = "825DD155-F87C-490A-ABDF-19954D756790";
shapes = (
{
closed = 1;
nodes = (
(111,0,l),
(891,0,l),
(891,155,l),
(280,155,l),
(280,586,l),
(879,586,l),
(879,737,l),
(280,737,l),
(280,1165,l),
(891,1165,l),
(891,1320,l),
(111,1320,l)
);
},
{
closed = 1;
nodes = (
(472,1396,l),
(556,1427,o),
(707,1489,o),
(707,1623,cs),
(707,1755,o),
(596,1798,o),
(483,1798,cs),
(371,1798,o),
(307,1768,o),
(283,1752,c),
(283,1657,l),
(323,1676,o),
(398,1703,o),
(455,1703,cs),
(516,1703,o),
(586,1696,o),
(586,1609,cs),
(586,1528,o),
(469,1481,o),
(418,1469,c)
);
}
);
width = 1051;
},
{
layerId = "01003CDD-FB01-4E06-850F-7A3DCDD105CB";
shapes = (
{
closed = 1;
nodes = (
(134,0,l),
(862,0,l),
(862,64,l),
(195,64,l),
(195,630,l),
(843,630,l),
(843,694,l),
(195,694,l),
(195,1256,l),
(862,1256,l),
(862,1320,l),
(134,1320,l)
);
},
{
closed = 1;
nodes = (
(492,1402,l),
(579,1439,o),
(705,1495,o),
(705,1622,cs),
(705,1751,o),
(609,1790,o),
(508,1790,cs),
(401,1790,o),
(332,1758,o),
(308,1742,c),
(308,1678,l),
(348,1698,o),
(432,1727,o),
(489,1727,cs),
(550,1727,o),
(638,1721,o),
(638,1614,cs),
(638,1517,o),
(510,1468,o),
(454,1454,c)
);
}
);
width = 1035;
}
);
unicode = 7866;
},
{
glyphname = Einvertedbreve;
layers = (
{
layerId = "004841D3-970D-426C-AC4F-50F76441CB62";
name = "#instance";
shapes = (
{
closed = 1;
nodes = (
(134,0,l),
(862,0,l),
(862,64,l),
(195,64,l),
(195,630,l),
(843,630,l),
(843,694,l),
(195,694,l),
(195,1256,l),
(862,1256,l),
(862,1320,l),
(134,1320,l)
);
},
{
closed = 1;
nodes = (
(360,1409,l),
(371,1464,o),
(419,1537,o),
(507,1537,cs),
(595,1537,o),
(645,1464,o),
(656,1409,c),
(739,1430,l),
(731,1504,o),
(650,1609,o),
(507,1609,cs),
(363,1609,o),
(283,1500,o),
(275,1430,c)
);
}
);
width = 1035;
},
{
layerId = "C0D83D2B-9CDF-4EFD-A4CD-122316F7B684";
shapes = (
{
closed = 1;
nodes = (
(64,0,l),
(950,0,l),
(950,336,l),
(451,336,l),
(451,499,l),
(950,499,l),
(950,824,l),
(451,824,l),
(451,984,l),
(950,984,l),
(950,1320,l),
(64,1320,l)
);
},
{
closed = 1;
nodes = (
(320,1381,l),
(326,1447,o),
(372,1534,o),
(471,1534,cs),
(571,1534,o),
(615,1447,o),
(621,1381,c),
(831,1433,l),
(811,1612,o),
(667,1716,o),
(471,1716,cs),
(270,1716,o),
(132,1607,o),
(112,1433,c)
);
}
);
width = 1082;
},
{
layerId = "825DD155-F87C-490A-ABDF-19954D756790";
shapes = (
{
closed = 1;
nodes = (
(111,0,l),
(891,0,l),
(891,155,l),
(280,155,l),
(280,586,l),
(879,586,l),
(879,737,l),
(280,737,l),
(280,1165,l),
(891,1165,l),
(891,1320,l),
(111,1320,l)
);
},
{
closed = 1;
nodes = (
(347,1400,l),
(356,1458,o),
(403,1536,o),
(495,1536,cs),
(587,1536,o),
(635,1458,o),
(644,1400,c),
(770,1431,l),
(758,1540,o),
(656,1645,o),
(495,1645,cs),
(332,1645,o),
(233,1536,o),
(221,1431,c)
);
}
);
width = 1051;
},
{
layerId = "01003CDD-FB01-4E06-850F-7A3DCDD105CB";
shapes = (
{
closed = 1;
nodes = (
(134,0,l),
(862,0,l),
(862,64,l),
(195,64,l),
(195,630,l),
(843,630,l),
(843,694,l),
(195,694,l),
(195,1256,l),
(862,1256,l),
(862,1320,l),
(134,1320,l)
);
},
{
closed = 1;
nodes = (
(360,1409,l),
(371,1464,o),
(419,1537,o),
(507,1537,cs),
(595,1537,o),
(645,1464,o),
(656,1409,c),
(739,1430,l),
(731,1504,o),
(650,1609,o),
(507,1609,cs),
(363,1609,o),
(283,1500,o),
(275,1430,c)
);
}
);
width = 1035;
}
);
unicode = 518;
},
{
glyphname = Emacron;
layers = (
{
layerId = "004841D3-970D-426C-AC4F-50F76441CB62";
name = "#instance";
shapes = (
{
closed = 1;
nodes = (
(134,0,l),
(862,0,l),
(862,64,l),
(195,64,l),
(195,630,l),
(843,630,l),
(843,694,l),
(195,694,l),
(195,1256,l),
(862,1256,l),
(862,1320,l),
(134,1320,l)
);
},
{
closed = 1;
nodes = (
(773,1466,l),
(773,1530,l),
(240,1530,l),
(240,1466,l)
);
}
);
width = 1035;
},
{
layerId = "C0D83D2B-9CDF-4EFD-A4CD-122316F7B684";
shapes = (
{
closed = 1;
nodes = (
(64,0,l),
(950,0,l),
(950,336,l),
(451,336,l),
(451,499,l),
(950,499,l),
(950,824,l),
(451,824,l),
(451,984,l),
(950,984,l),
(950,1320,l),
(64,1320,l)
);
},
{
closed = 1;
nodes = (
(820,1439,l),
(820,1676,l),
(124,1676,l),
(124,1439,l)
);
}
);
width = 1082;
},
{
layerId = "825DD155-F87C-490A-ABDF-19954D756790";
shapes = (
{
closed = 1;
nodes = (
(111,0,l),
(891,0,l),
(891,155,l),
(280,155,l),
(280,586,l),
(879,586,l),
(879,737,l),
(280,737,l),
(280,1165,l),
(891,1165,l),
(891,1320,l),
(111,1320,l)
);
},
{
closed = 1;
nodes = (
(788,1457,l),
(788,1579,l),
(201,1579,l),
(201,1457,l)
);
}
);
width = 1051;
},
{
layerId = "01003CDD-FB01-4E06-850F-7A3DCDD105CB";
shapes = (
{
closed = 1;
nodes = (
(134,0,l),
(862,0,l),
(862,64,l),
(195,64,l),
(195,630,l),
(843,630,l),
(843,694,l),
(195,694,l),
(195,1256,l),
(862,1256,l),
(862,1320,l),
(134,1320,l)
);
},
{
closed = 1;
nodes = (
(773,1466,l),
(773,1530,l),
(240,1530,l),
(240,1466,l)
);
}
);
width = 1035;
}
);
unicode = 274;
},
{
glyphname = Eogonek;
layers = (
{
layerId = "004841D3-970D-426C-AC4F-50F76441CB62";
name = "#instance";
shapes = (
{
closed = 1;
nodes = (
(134,0,l),
(862,0,l),
(862,64,l),
(195,64,l),
(195,630,l),
(843,630,l),
(843,694,l),
(195,694,l),
(195,1256,l),
(862,1256,l),
(862,1320,l),
(134,1320,l)
);
},
{
closed = 1;
nodes = (
(714,-445,o),
(811,-400,o),
(842,-349,c),
(787,-307,l),
(762,-344,o),
(707,-384,o),
(642,-384,cs),
(567,-384,o),
(503,-360,o),
(503,-269,cs),
(503,-187,o),
(594,-82,o),
(659,-24,c),
(616,16,l),
(536,-48,o),
(429,-168,o),
(429,-274,cs),
(429,-413,o),
(539,-445,o),
(623,-445,cs)
);
}
);
width = 1035;
},
{
layerId = "C0D83D2B-9CDF-4EFD-A4CD-122316F7B684";
shapes = (
{
closed = 1;
nodes = (
(64,0,l),
(950,0,l),
(950,336,l),
(451,336,l),
(451,499,l),
(950,499,l),
(950,824,l),
(451,824,l),
(451,984,l),
(950,984,l),
(950,1320,l),
(64,1320,l)
);
},
{
closed = 1;
nodes = (
(758,-466,o),
(839,-400,o),
(870,-351,c),
(735,-250,l),
(726,-264,o),
(703,-285,o),
(675,-285,cs),
(665,-285,o),
(641,-264,o),
(641,-244,cs),
(641,-162,o),
(683,-71,o),
(715,-26,c),
(609,16,l),
(540,-60,o),
(449,-192,o),
(449,-279,cs),
(449,-418,o),
(567,-466,o),
(651,-466,cs)
);
}
);
width = 1082;
},
{
layerId = "825DD155-F87C-490A-ABDF-19954D756790";
shapes = (
{
closed = 1;
nodes = (
(111,0,l),
(891,0,l),
(891,155,l),
(280,155,l),
(280,586,l),
(879,586,l),
(879,737,l),
(280,737,l),
(280,1165,l),
(891,1165,l),
(891,1320,l),
(111,1320,l)
);
},
{
closed = 1;
nodes = (
(729,-452,o),
(820,-400,o),
(851,-350,c),
(770,-288,l),
(750,-318,o),
(706,-351,o),
(653,-351,cs),
(600,-351,o),
(549,-328,o),
(549,-261,cs),
(549,-179,o),
(624,-79,o),
(678,-25,c),
(614,16,l),
(537,-52,o),
(436,-176,o),
(436,-276,cs),
(436,-415,o),
(548,-452,o),
(632,-452,cs)
);
}
);
width = 1051;
},
{
layerId = "01003CDD-FB01-4E06-850F-7A3DCDD105CB";
shapes = (
{
closed = 1;
nodes = (
(134,0,l),
(862,0,l),
(862,64,l),
(195,64,l),
(195,630,l),
(843,630,l),
(843,694,l),
(195,694,l),
(195,1256,l),
(862,1256,l),
(862,1320,l),
(134,1320,l)
);
},
{
closed = 1;
nodes = (
(714,-445,o),
(811,-400,o),
(842,-349,c),
(787,-307,l),
(762,-344,o),
(707,-384,o),
(642,-384,cs),
(567,-384,o),
(503,-360,o),
(503,-269,cs),
(503,-187,o),
(594,-82,o),
(659,-24,c),
(616,16,l),
(536,-48,o),
(429,-168,o),
(429,-274,cs),
(429,-413,o),
(539,-445,o),
(623,-445,cs)
);
}
);
width = 1035;
}
);
unicode = 280;
},
{
glyphname = Etilde;
layers = (
{
layerId = "004841D3-970D-426C-AC4F-50F76441CB62";
name = "#instance";
shapes = (
{
closed = 1;
nodes = (
(134,0,l),
(862,0,l),
(862,64,l),
(195,64,l),
(195,630,l),
(843,630,l),
(843,694,l),
(195,694,l),
(195,1256,l),
(862,1256,l),
(862,1320,l),
(134,1320,l)
);
},
{
closed = 1;
nodes = (
(473,1492,o),
(515,1415,o),
(635,1415,cs),
(723,1415,o),
(785,1503,o),
(807,1570,c),
(711,1570,l),
(703,1536,o),
(673,1492,o),
(619,1492,cs),
(527,1492,o),
(494,1570,o),
(374,1570,cs),
(286,1570,o),
(227,1482,o),
(207,1415,c),
(303,1415,l),
(315,1448,o),
(350,1492,o),
(401,1492,cs)
);
}
);
width = 1035;
},
{
layerId = "C0D83D2B-9CDF-4EFD-A4CD-122316F7B684";
shapes = (
{
closed = 1;
nodes = (
(64,0,l),
(950,0,l),
(950,336,l),
(451,336,l),
(451,499,l),
(950,499,l),
(950,824,l),
(451,824,l),
(451,984,l),
(950,984,l),
(950,1320,l),
(64,1320,l)
);
},
{
closed = 1;
nodes = (
(420,1479,o),
(504,1407,o),
(632,1407,cs),
(774,1407,o),
(849,1588,o),
(867,1724,c),
(681,1724,l),
(672,1694,o),
(648,1652,o),
(616,1652,cs),
(528,1652,o),
(441,1724,o),
(313,1724,cs),
(171,1724,o),
(94,1543,o),
(76,1407,c),
(262,1407,l),
(270,1438,o),
(292,1479,o),
(324,1479,cs)
);
}
);
width = 1082;
},
{
layerId = "825DD155-F87C-490A-ABDF-19954D756790";
shapes = (
{
closed = 1;
nodes = (
(111,0,l),
(891,0,l),
(891,155,l),
(280,155,l),
(280,586,l),
(879,586,l),
(879,737,l),
(280,737,l),
(280,1165,l),
(891,1165,l),
(891,1320,l),
(111,1320,l)
);
},
{
closed = 1;
nodes = (
(455,1488,o),
(511,1412,o),
(634,1412,cs),
(740,1412,o),
(806,1531,o),
(827,1621,c),
(701,1621,l),
(693,1589,o),
(665,1545,o),
(618,1545,cs),
(527,1545,o),
(476,1621,o),
(354,1621,cs),
(248,1621,o),
(183,1502,o),
(163,1412,c),
(289,1412,l),
(300,1445,o),
(331,1488,o),
(375,1488,cs)
);
}
);
width = 1051;
},
{
layerId = "01003CDD-FB01-4E06-850F-7A3DCDD105CB";
shapes = (
{
closed = 1;
nodes = (
(134,0,l),
(862,0,l),
(862,64,l),
(195,64,l),
(195,630,l),
(843,630,l),
(843,694,l),
(195,694,l),
(195,1256,l),
(862,1256,l),
(862,1320,l),
(134,1320,l)
);
},
{
closed = 1;
nodes = (
(473,1492,o),
(515,1415,o),
(635,1415,cs),
(723,1415,o),
(785,1503,o),
(807,1570,c),
(711,1570,l),
(703,1536,o),
(673,1492,o),
(619,1492,cs),
(527,1492,o),
(494,1570,o),
(374,1570,cs),
(286,1570,o),
(227,1482,o),
(207,1415,c),
(303,1415,l),
(315,1448,o),
(350,1492,o),
(401,1492,cs)
);
}
);
width = 1035;
}
);
unicode = 7868;
},
{
glyphname = F;
layers = (
{
layerId = "004841D3-970D-426C-AC4F-50F76441CB62";
name = "#instance";
shapes = (
{
closed = 1;
nodes = (
(126,0,l),
(187,0,l),
(187,630,l),
(715,630,l),
(715,694,l),
(187,694,l),
(187,1256,l),
(750,1256,l),
(750,1320,l),
(126,1320,l)
);
}
);
width = 867;
},
{
layerId = "C0D83D2B-9CDF-4EFD-A4CD-122316F7B684";
shapes = (
{
closed = 1;
nodes = (
(78,0,l),
(466,0,l),
(466,494,l),
(858,494,l),
(858,829,l),
(466,829,l),
(466,984,l),
(893,984,l),
(893,1320,l),
(78,1320,l)
);
}
);
width = 995;
},
{
layerId = "825DD155-F87C-490A-ABDF-19954D756790";
shapes = (
{
closed = 1;
nodes = (
(110,0,l),
(280,0,l),
(280,585,l),
(763,585,l),
(763,739,l),
(280,739,l),
(280,1165,l),
(798,1165,l),
(798,1320,l),
(110,1320,l)
);
}
);
width = 910;
},
{
layerId = "01003CDD-FB01-4E06-850F-7A3DCDD105CB";
shapes = (
{
closed = 1;
nodes = (
(126,0,l),
(187,0,l),
(187,630,l),
(715,630,l),
(715,694,l),
(187,694,l),
(187,1256,l),
(750,1256,l),
(750,1320,l),
(126,1320,l)
);
}
);
width = 867;
}
);
leftKerningGroup = H;
rightKerningGroup = F;
unicode = 70;
},
{
glyphname = G;
leftMetricsKey = O;
rightMetricsKey = O;
layers = (
{
anchors = (
{
name = bottom;
position = "{706, 0}";
},
{
name = top;
position = "{686, 1320}";
}
);
layerId = "004841D3-970D-426C-AC4F-50F76441CB62";
name = "#instance";
shapes = (
{
closed = 1;
nodes = (
(661,637,l),
(1258,637,l),
(1246,312,o),
(1011,40,o),
(686,40,cs),
(354,40,o),
(112,325,o),
(112,661,cs),
(112,997,o),
(354,1280,o),
(686,1280,cs),
(870,1280,o),
(1026,1194,o),
(1128,1059,c),
(1174,1099,l),
(1061,1248,o),
(886,1344,o),
(686,1344,cs),
(323,1344,o),
(48,1030,o),
(48,661,cs),
(48,291,o),
(323,-24,o),
(686,-24,cs),
(1042,-24,o),
(1322,278,o),
(1322,637,cs),
(1322,699,l),
(661,699,l)
);
}
);
width = 1411;
},
{
anchors = (
{
name = bottom;
position = "{765, 0}";
},
{
name = top;
position = "{733, 1320}";
}
);
layerId = "C0D83D2B-9CDF-4EFD-A4CD-122316F7B684";
shapes = (
{
closed = 1;
nodes = (
(727,462,l),
(965,462,l),
(952,378,o),
(870,338,o),
(731,338,cs),
(557,338,o),
(442,483,o),
(442,661,cs),
(442,838,o),
(557,984,o),
(731,984,cs),
(875,984,o),
(939,916,o),
(976,852,c),
(1348,1020,l),
(1276,1154,o),
(1116,1344,o),
(731,1344,cs),
(308,1344,o),
(38,1046,o),
(38,661,cs),
(38,275,o),
(308,-24,o),
(731,-24,cs),
(1142,-24,o),
(1404,275,o),
(1404,661,cs),
(1404,752,l),
(727,752,l)
);
}
);
width = 1492;
},
{
anchors = (
{
name = bottom;
position = "{726, 0}";
},
{
name = top;
position = "{702, 1320}";
}
);
layerId = "825DD155-F87C-490A-ABDF-19954D756790";
shapes = (
{
closed = 1;
nodes = (
(683,579,l),
(1160,579,l),
(1148,334,o),
(964,139,o),
(701,139,cs),
(422,139,o),
(222,378,o),
(222,661,cs),
(222,944,o),
(422,1181,o),
(701,1181,cs),
(872,1181,o),
(997,1101,o),
(1077,990,c),
(1232,1073,l),
(1133,1217,o),
(963,1344,o),
(701,1344,cs),
(318,1344,o),
(45,1035,o),
(45,661,cs),
(45,286,o),
(318,-24,o),
(701,-24,cs),
(1075,-24,o),
(1349,277,o),
(1349,645,cs),
(1349,717,l),
(683,717,l)
);
}
);
width = 1438;
},
{
anchors = (
{
name = bottom;
position = "{706, 0}";
},
{
name = top;
position = "{686, 1320}";
}
);
layerId = "01003CDD-FB01-4E06-850F-7A3DCDD105CB";
shapes = (
{
closed = 1;
nodes = (
(661,637,l),
(1258,637,l),
(1246,312,o),
(1011,40,o),
(686,40,cs),
(354,40,o),
(112,325,o),
(112,661,cs),
(112,997,o),
(354,1280,o),
(686,1280,cs),
(870,1280,o),
(1026,1194,o),
(1128,1059,c),
(1174,1099,l),
(1061,1248,o),
(886,1344,o),
(686,1344,cs),
(323,1344,o),
(48,1030,o),
(48,661,cs),
(48,291,o),
(323,-24,o),
(686,-24,cs),
(1042,-24,o),
(1322,278,o),
(1322,637,cs),
(1322,699,l),
(661,699,l)
);
}
);
width = 1411;
}
);
leftKerningGroup = O;
rightKerningGroup = O;
unicode = 71;
},
{
glyphname = Gbreve;
layers = (
{
layerId = "004841D3-970D-426C-AC4F-50F76441CB62";
name = "#instance";
shapes = (
{
closed = 1;
nodes = (
(661,637,l),
(1258,637,l),
(1246,312,o),
(1011,40,o),
(686,40,cs),
(354,40,o),
(112,325,o),
(112,661,cs),
(112,997,o),
(354,1280,o),
(686,1280,cs),
(870,1280,o),
(1026,1194,o),
(1128,1059,c),
(1174,1099,l),
(1061,1248,o),
(886,1344,o),
(686,1344,cs),
(323,1344,o),
(48,1030,o),
(48,661,cs),
(48,291,o),
(323,-24,o),
(686,-24,cs),
(1042,-24,o),
(1322,278,o),
(1322,637,cs),
(1322,699,l),
(661,699,l)
);
},
{
closed = 1;
nodes = (
(833,1580,l),
(822,1525,o),
(774,1452,o),
(686,1452,cs),
(598,1452,o),
(548,1525,o),
(537,1580,c),
(454,1559,l),
(462,1485,o),
(543,1380,o),
(686,1380,cs),
(830,1380,o),
(910,1489,o),
(918,1559,c)
);
}
);
width = 1411;
},
{
layerId = "C0D83D2B-9CDF-4EFD-A4CD-122316F7B684";
shapes = (
{
closed = 1;
nodes = (
(727,462,l),
(965,462,l),
(952,378,o),
(870,338,o),
(731,338,cs),
(557,338,o),
(442,483,o),
(442,661,cs),
(442,838,o),
(557,984,o),
(731,984,cs),
(875,984,o),
(939,916,o),
(976,852,c),
(1348,1020,l),
(1276,1154,o),
(1116,1344,o),
(731,1344,cs),
(308,1344,o),
(38,1046,o),
(38,661,cs),
(38,275,o),
(308,-24,o),
(731,-24,cs),
(1142,-24,o),
(1404,275,o),
(1404,661,cs),
(1404,752,l),
(727,752,l)
);
},
{
closed = 1;
nodes = (
(885,1722,l),
(879,1655,o),
(833,1567,o),
(733,1567,cs),
(632,1567,o),
(588,1655,o),
(582,1722,c),
(370,1669,l),
(391,1489,o),
(535,1384,o),
(733,1384,cs),
(936,1384,o),
(1076,1495,o),
(1095,1669,c)
);
}
);
width = 1492;
},
{
layerId = "825DD155-F87C-490A-ABDF-19954D756790";
shapes = (
{
closed = 1;
nodes = (
(683,579,l),
(1160,579,l),
(1148,334,o),
(964,139,o),
(701,139,cs),
(422,139,o),
(222,378,o),
(222,661,cs),
(222,944,o),
(422,1181,o),
(701,1181,cs),
(872,1181,o),
(997,1101,o),
(1077,990,c),
(1232,1073,l),
(1133,1217,o),
(963,1344,o),
(701,1344,cs),
(318,1344,o),
(45,1035,o),
(45,661,cs),
(45,286,o),
(318,-24,o),
(701,-24,cs),
(1075,-24,o),
(1349,277,o),
(1349,645,cs),
(1349,717,l),
(683,717,l)
);
},
{
closed = 1;
nodes = (
(850,1627,l),
(841,1568,o),
(794,1490,o),
(702,1490,cs),
(609,1490,o),
(561,1568,o),
(552,1627,c),
(426,1596,l),
(438,1486,o),
(540,1381,o),
(702,1381,cs),
(865,1381,o),
(965,1491,o),
(977,1596,c)
);
}
);
width = 1438;
},
{
layerId = "01003CDD-FB01-4E06-850F-7A3DCDD105CB";
shapes = (
{
closed = 1;
nodes = (
(661,637,l),
(1258,637,l),
(1246,312,o),
(1011,40,o),
(686,40,cs),
(354,40,o),
(112,325,o),
(112,661,cs),
(112,997,o),
(354,1280,o),
(686,1280,cs),
(870,1280,o),
(1026,1194,o),
(1128,1059,c),
(1174,1099,l),
(1061,1248,o),
(886,1344,o),
(686,1344,cs),
(323,1344,o),
(48,1030,o),
(48,661,cs),
(48,291,o),
(323,-24,o),
(686,-24,cs),
(1042,-24,o),
(1322,278,o),
(1322,637,cs),
(1322,699,l),
(661,699,l)
);
},
{
closed = 1;
nodes = (
(833,1580,l),
(822,1525,o),
(774,1452,o),
(686,1452,cs),
(598,1452,o),
(548,1525,o),
(537,1580,c),
(454,1559,l),
(462,1485,o),
(543,1380,o),
(686,1380,cs),
(830,1380,o),
(910,1489,o),
(918,1559,c)
);
}
);
width = 1411;
}
);
unicode = 286;
},
{
glyphname = Gcaron;
layers = (
{
layerId = "004841D3-970D-426C-AC4F-50F76441CB62";
name = "#instance";
shapes = (
{
closed = 1;
nodes = (
(661,637,l),
(1258,637,l),
(1246,312,o),
(1011,40,o),
(686,40,cs),
(354,40,o),
(112,325,o),
(112,661,cs),
(112,997,o),
(354,1280,o),
(686,1280,cs),
(870,1280,o),
(1026,1194,o),
(1128,1059,c),
(1174,1099,l),
(1061,1248,o),
(886,1344,o),
(686,1344,cs),
(323,1344,o),
(48,1030,o),
(48,661,cs),
(48,291,o),
(323,-24,o),
(686,-24,cs),
(1042,-24,o),
(1322,278,o),
(1322,637,cs),
(1322,699,l),
(661,699,l)
);
},
{
closed = 1;
nodes = (
(686,1382,l),
(908,1545,l),
(867,1603,l),
(686,1472,l),
(507,1601,l),
(464,1544,l)
);
}
);
width = 1411;
},
{
layerId = "C0D83D2B-9CDF-4EFD-A4CD-122316F7B684";
shapes = (
{
closed = 1;
nodes = (
(727,462,l),
(965,462,l),
(952,378,o),
(870,338,o),
(731,338,cs),
(557,338,o),
(442,483,o),
(442,661,cs),
(442,838,o),
(557,984,o),
(731,984,cs),
(875,984,o),
(939,916,o),
(976,852,c),
(1348,1020,l),
(1276,1154,o),
(1116,1344,o),
(731,1344,cs),
(308,1344,o),
(38,1046,o),
(38,661,cs),
(38,275,o),
(308,-24,o),
(731,-24,cs),
(1142,-24,o),
(1404,275,o),
(1404,661,cs),
(1404,752,l),
(727,752,l)
);
},
{
closed = 1;
nodes = (
(734,1355,l),
(1073,1604,l),
(959,1756,l),
(734,1591,l),
(508,1757,l),
(393,1605,l)
);
}
);
width = 1492;
},
{
layerId = "825DD155-F87C-490A-ABDF-19954D756790";
shapes = (
{
closed = 1;
nodes = (
(683,579,l),
(1160,579,l),
(1148,334,o),
(964,139,o),
(701,139,cs),
(422,139,o),
(222,378,o),
(222,661,cs),
(222,944,o),
(422,1181,o),
(701,1181,cs),
(872,1181,o),
(997,1101,o),
(1077,990,c),
(1232,1073,l),
(1133,1217,o),
(963,1344,o),
(701,1344,cs),
(318,1344,o),
(45,1035,o),
(45,661,cs),
(45,286,o),
(318,-24,o),
(701,-24,cs),
(1075,-24,o),
(1349,277,o),
(1349,645,cs),
(1349,717,l),
(683,717,l)
);
},
{
closed = 1;
nodes = (
(702,1373,l),
(963,1565,l),
(898,1654,l),
(702,1512,l),
(508,1653,l),
(441,1564,l)
);
}
);
width = 1438;
},
{
layerId = "01003CDD-FB01-4E06-850F-7A3DCDD105CB";
shapes = (
{
closed = 1;
nodes = (
(661,637,l),
(1258,637,l),
(1246,312,o),
(1011,40,o),
(686,40,cs),
(354,40,o),
(112,325,o),
(112,661,cs),
(112,997,o),
(354,1280,o),
(686,1280,cs),
(870,1280,o),
(1026,1194,o),
(1128,1059,c),
(1174,1099,l),
(1061,1248,o),
(886,1344,o),
(686,1344,cs),
(323,1344,o),
(48,1030,o),
(48,661,cs),
(48,291,o),
(323,-24,o),
(686,-24,cs),
(1042,-24,o),
(1322,278,o),
(1322,637,cs),
(1322,699,l),
(661,699,l)
);
},
{
closed = 1;
nodes = (
(686,1382,l),
(908,1545,l),
(867,1603,l),
(686,1472,l),
(507,1601,l),
(464,1544,l)
);
}
);
width = 1411;
}
);
unicode = 486;
},
{
glyphname = Gcircumflex;
layers = (
{
layerId = "004841D3-970D-426C-AC4F-50F76441CB62";
name = "#instance";
shapes = (
{
closed = 1;
nodes = (
(661,637,l),
(1258,637,l),
(1246,312,o),
(1011,40,o),
(686,40,cs),
(354,40,o),
(112,325,o),
(112,661,cs),
(112,997,o),
(354,1280,o),
(686,1280,cs),
(870,1280,o),
(1026,1194,o),
(1128,1059,c),
(1174,1099,l),
(1061,1248,o),
(886,1344,o),
(686,1344,cs),
(323,1344,o),
(48,1030,o),
(48,661,cs),
(48,291,o),
(323,-24,o),
(686,-24,cs),
(1042,-24,o),
(1322,278,o),
(1322,637,cs),
(1322,699,l),
(661,699,l)
);
},
{
closed = 1;
nodes = (
(685,1559,l),
(892,1407,l),
(940,1473,l),
(685,1660,l),
(431,1474,l),
(480,1409,l)
);
}
);
width = 1411;
},
{
layerId = "C0D83D2B-9CDF-4EFD-A4CD-122316F7B684";
shapes = (
{
closed = 1;
nodes = (
(727,462,l),
(965,462,l),
(952,378,o),
(870,338,o),
(731,338,cs),
(557,338,o),
(442,483,o),
(442,661,cs),
(442,838,o),
(557,984,o),
(731,984,cs),
(875,984,o),
(939,916,o),
(976,852,c),
(1348,1020,l),
(1276,1154,o),
(1116,1344,o),
(731,1344,cs),
(308,1344,o),
(38,1046,o),
(38,661,cs),
(38,275,o),
(308,-24,o),
(731,-24,cs),
(1142,-24,o),
(1404,275,o),
(1404,661,cs),
(1404,752,l),
(727,752,l)
);
},
{
closed = 1;
nodes = (
(733,1582,l),
(991,1393,l),
(1122,1567,l),
(733,1852,l),
(343,1567,l),
(474,1393,l)
);
}
);
width = 1492;
},
{
layerId = "825DD155-F87C-490A-ABDF-19954D756790";
shapes = (
{
closed = 1;
nodes = (
(683,579,l),
(1160,579,l),
(1148,334,o),
(964,139,o),
(701,139,cs),
(422,139,o),
(222,378,o),
(222,661,cs),
(222,944,o),
(422,1181,o),
(701,1181,cs),
(872,1181,o),
(997,1101,o),
(1077,990,c),
(1232,1073,l),
(1133,1217,o),
(963,1344,o),
(701,1344,cs),
(318,1344,o),
(45,1035,o),
(45,661,cs),
(45,286,o),
(318,-24,o),
(701,-24,cs),
(1075,-24,o),
(1349,277,o),
(1349,645,cs),
(1349,717,l),
(683,717,l)
);
},
{
closed = 1;
nodes = (
(701,1567,l),
(925,1402,l),
(1001,1504,l),
(701,1724,l),
(402,1505,l),
(478,1404,l)
);
}
);
width = 1438;
},
{
layerId = "01003CDD-FB01-4E06-850F-7A3DCDD105CB";
shapes = (
{
closed = 1;
nodes = (
(661,637,l),
(1258,637,l),
(1246,312,o),
(1011,40,o),
(686,40,cs),
(354,40,o),
(112,325,o),
(112,661,cs),
(112,997,o),
(354,1280,o),
(686,1280,cs),
(870,1280,o),
(1026,1194,o),
(1128,1059,c),
(1174,1099,l),
(1061,1248,o),
(886,1344,o),
(686,1344,cs),
(323,1344,o),
(48,1030,o),
(48,661,cs),
(48,291,o),
(323,-24,o),
(686,-24,cs),
(1042,-24,o),
(1322,278,o),
(1322,637,cs),
(1322,699,l),
(661,699,l)
);
},
{
closed = 1;
nodes = (
(685,1559,l),
(892,1407,l),
(940,1473,l),
(685,1660,l),
(431,1474,l),
(480,1409,l)
);
}
);
width = 1411;
}
);
unicode = 284;
},
{
glyphname = Gcommaaccent;
layers = (
{
layerId = "004841D3-970D-426C-AC4F-50F76441CB62";
name = "#instance";
shapes = (
{
closed = 1;
nodes = (
(661,637,l),
(1258,637,l),
(1246,312,o),
(1011,40,o),
(686,40,cs),
(354,40,o),
(112,325,o),
(112,661,cs),
(112,997,o),
(354,1280,o),
(686,1280,cs),
(870,1280,o),
(1026,1194,o),
(1128,1059,c),
(1174,1099,l),
(1061,1248,o),
(886,1344,o),
(686,1344,cs),
(323,1344,o),
(48,1030,o),
(48,661,cs),
(48,291,o),
(323,-24,o),
(686,-24,cs),
(1042,-24,o),
(1322,278,o),
(1322,637,cs),
(1322,699,l),
(661,699,l)
);
},
{
closed = 1;
nodes = (
(652,-105,o),
(617,-138,o),
(617,-190,cs),
(617,-226,o),
(650,-265,o),
(694,-265,cs),
(706,-265,o),
(718,-263,o),
(731,-257,c),
(721,-308,o),
(663,-350,o),
(621,-369,c),
(662,-405,l),
(731,-368,o),
(794,-294,o),
(794,-198,cs),
(794,-146,o),
(752,-105,o),
(702,-105,cs)
);
}
);
width = 1411;
},
{
layerId = "C0D83D2B-9CDF-4EFD-A4CD-122316F7B684";
shapes = (
{
closed = 1;
nodes = (
(727,462,l),
(965,462,l),
(952,378,o),
(870,338,o),
(731,338,cs),
(557,338,o),
(442,483,o),
(442,661,cs),
(442,838,o),
(557,984,o),
(731,984,cs),
(875,984,o),
(939,916,o),
(976,852,c),
(1348,1020,l),
(1276,1154,o),
(1116,1344,o),
(731,1344,cs),
(308,1344,o),
(38,1046,o),
(38,661,cs),
(38,275,o),
(308,-24,o),
(731,-24,cs),
(1142,-24,o),
(1404,275,o),
(1404,661,cs),
(1404,752,l),
(727,752,l)
);
},
{
closed = 1;
nodes = (
(674,-59,o),
(596,-135,o),
(596,-228,cs),
(596,-333,o),
(667,-392,o),
(739,-392,cs),
(762,-392,o),
(775,-389,o),
(786,-383,c),
(760,-462,o),
(672,-534,o),
(613,-566,c),
(687,-653,l),
(817,-581,o),
(933,-411,o),
(933,-251,cs),
(933,-122,o),
(857,-59,o),
(765,-59,cs)
);
}
);
width = 1492;
},
{
layerId = "825DD155-F87C-490A-ABDF-19954D756790";
shapes = (
{
closed = 1;
nodes = (
(683,579,l),
(1160,579,l),
(1148,334,o),
(964,139,o),
(701,139,cs),
(422,139,o),
(222,378,o),
(222,661,cs),
(222,944,o),
(422,1181,o),
(701,1181,cs),
(872,1181,o),
(997,1101,o),
(1077,990,c),
(1232,1073,l),
(1133,1217,o),
(963,1344,o),
(701,1344,cs),
(318,1344,o),
(45,1035,o),
(45,661,cs),
(45,286,o),
(318,-24,o),
(701,-24,cs),
(1075,-24,o),
(1349,277,o),
(1349,645,cs),
(1349,717,l),
(683,717,l)
);
},
{
closed = 1;
nodes = (
(659,-90,o),
(610,-137,o),
(610,-203,cs),
(610,-262,o),
(656,-307,o),
(709,-307,cs),
(725,-307,o),
(737,-305,o),
(749,-299,c),
(734,-359,o),
(666,-411,o),
(618,-435,c),
(670,-488,l),
(760,-439,o),
(840,-333,o),
(840,-216,cs),
(840,-138,o),
(787,-90,o),
(723,-90,cs)
);
}
);
width = 1438;
},
{
layerId = "01003CDD-FB01-4E06-850F-7A3DCDD105CB";
shapes = (
{
closed = 1;
nodes = (
(661,637,l),
(1258,637,l),
(1246,312,o),
(1011,40,o),
(686,40,cs),
(354,40,o),
(112,325,o),
(112,661,cs),
(112,997,o),
(354,1280,o),
(686,1280,cs),
(870,1280,o),
(1026,1194,o),
(1128,1059,c),
(1174,1099,l),
(1061,1248,o),
(886,1344,o),
(686,1344,cs),
(323,1344,o),
(48,1030,o),
(48,661,cs),
(48,291,o),
(323,-24,o),
(686,-24,cs),
(1042,-24,o),
(1322,278,o),
(1322,637,cs),
(1322,699,l),
(661,699,l)
);
},
{
closed = 1;
nodes = (
(652,-105,o),
(617,-138,o),
(617,-190,cs),
(617,-226,o),
(650,-265,o),
(694,-265,cs),
(706,-265,o),
(718,-263,o),
(731,-257,c),
(721,-308,o),
(663,-350,o),
(621,-369,c),
(662,-405,l),
(731,-368,o),
(794,-294,o),
(794,-198,cs),
(794,-146,o),
(752,-105,o),
(702,-105,cs)
);
}
);
width = 1411;
}
);
unicode = 290;
},
{
glyphname = Gdotaccent;
layers = (
{
layerId = "004841D3-970D-426C-AC4F-50F76441CB62";
name = "#instance";
shapes = (
{
closed = 1;
nodes = (
(661,637,l),
(1258,637,l),
(1246,312,o),
(1011,40,o),
(686,40,cs),
(354,40,o),
(112,325,o),
(112,661,cs),
(112,997,o),
(354,1280,o),
(686,1280,cs),
(870,1280,o),
(1026,1194,o),
(1128,1059,c),
(1174,1099,l),
(1061,1248,o),
(886,1344,o),
(686,1344,cs),
(323,1344,o),
(48,1030,o),
(48,661,cs),
(48,291,o),
(323,-24,o),
(686,-24,cs),
(1042,-24,o),
(1322,278,o),
(1322,637,cs),
(1322,699,l),
(661,699,l)
);
},
{
closed = 1;
nodes = (
(645,1566,o),
(612,1531,o),
(612,1492,cs),
(612,1454,o),
(645,1419,o),
(685,1419,cs),
(724,1419,o),
(759,1452,o),
(759,1492,cs),
(759,1532,o),
(724,1566,o),
(685,1566,cs)
);
}
);
width = 1411;
},
{
layerId = "C0D83D2B-9CDF-4EFD-A4CD-122316F7B684";
shapes = (
{
closed = 1;
nodes = (
(727,462,l),
(965,462,l),
(952,378,o),
(870,338,o),
(731,338,cs),
(557,338,o),
(442,483,o),
(442,661,cs),
(442,838,o),
(557,984,o),
(731,984,cs),
(875,984,o),
(939,916,o),
(976,852,c),
(1348,1020,l),
(1276,1154,o),
(1116,1344,o),
(731,1344,cs),
(308,1344,o),
(38,1046,o),
(38,661,cs),
(38,275,o),
(308,-24,o),
(731,-24,cs),
(1142,-24,o),
(1404,275,o),
(1404,661,cs),
(1404,752,l),
(727,752,l)
);
},
{
closed = 1;
nodes = (
(636,1738,o),
(559,1659,o),
(559,1563,cs),
(559,1467,o),
(636,1389,o),
(733,1389,cs),
(829,1389,o),
(906,1467,o),
(906,1563,cs),
(906,1659,o),
(829,1738,o),
(733,1738,cs)
);
}
);
width = 1492;
},
{
layerId = "825DD155-F87C-490A-ABDF-19954D756790";
shapes = (
{
closed = 1;
nodes = (
(683,579,l),
(1160,579,l),
(1148,334,o),
(964,139,o),
(701,139,cs),
(422,139,o),
(222,378,o),
(222,661,cs),
(222,944,o),
(422,1181,o),
(701,1181,cs),
(872,1181,o),
(997,1101,o),
(1077,990,c),
(1232,1073,l),
(1133,1217,o),
(963,1344,o),
(701,1344,cs),
(318,1344,o),
(45,1035,o),
(45,661,cs),
(45,286,o),
(318,-24,o),
(701,-24,cs),
(1075,-24,o),
(1349,277,o),
(1349,645,cs),
(1349,717,l),
(683,717,l)
);
},
{
closed = 1;
nodes = (
(642,1623,o),
(595,1574,o),
(595,1516,cs),
(595,1458,o),
(642,1409,o),
(701,1409,cs),
(759,1409,o),
(808,1457,o),
(808,1516,cs),
(808,1574,o),
(759,1623,o),
(701,1623,cs)
);
}
);
width = 1438;
},
{
layerId = "01003CDD-FB01-4E06-850F-7A3DCDD105CB";
shapes = (
{
closed = 1;
nodes = (
(661,637,l),
(1258,637,l),
(1246,312,o),
(1011,40,o),
(686,40,cs),
(354,40,o),
(112,325,o),
(112,661,cs),
(112,997,o),
(354,1280,o),
(686,1280,cs),
(870,1280,o),
(1026,1194,o),
(1128,1059,c),
(1174,1099,l),
(1061,1248,o),
(886,1344,o),
(686,1344,cs),
(323,1344,o),
(48,1030,o),
(48,661,cs),
(48,291,o),
(323,-24,o),
(686,-24,cs),
(1042,-24,o),
(1322,278,o),
(1322,637,cs),
(1322,699,l),
(661,699,l)
);
},
{
closed = 1;
nodes = (
(645,1566,o),
(612,1531,o),
(612,1492,cs),
(612,1454,o),
(645,1419,o),
(685,1419,cs),
(724,1419,o),
(759,1452,o),
(759,1492,cs),
(759,1532,o),
(724,1566,o),
(685,1566,cs)
);
}
);
width = 1411;
}
);
unicode = 288;
},
{
glyphname = H;
layers = (
{
anchors = (
{
name = bottom;
position = "{586, -165}";
},
{
name = center;
position = "{586, 826}";
},
{
name = top;
position = "{586, 1320}";
},
{
name = topleft;
position = "{118, 1320}";
}
);
layerId = "004841D3-970D-426C-AC4F-50F76441CB62";
name = "#instance";
shapes = (
{
closed = 1;
nodes = (
(978,0,l),
(1038,0,l),
(1038,1320,l),
(978,1320,l),
(978,694,l),
(195,694,l),
(195,1320,l),
(134,1320,l),
(134,0,l),
(195,0,l),
(195,630,l),
(978,630,l)
);
}
);
width = 1211;
},
{
anchors = (
{
name = bottom;
position = "{618, -298}";
},
{
name = center;
position = "{618, 958}";
},
{
name = top;
position = "{618, 1320}";
},
{
name = topleft;
position = "{0, 1320}";
}
);
layerId = "C0D83D2B-9CDF-4EFD-A4CD-122316F7B684";
shapes = (
{
closed = 1;
nodes = (
(784,0,l),
(1170,0,l),
(1170,1320,l),
(784,1320,l),
(784,829,l),
(451,829,l),
(451,1320,l),
(64,1320,l),
(64,0,l),
(451,0,l),
(451,494,l),
(784,494,l)
);
}
);
width = 1302;
},
{
anchors = (
{
name = bottom;
position = "{597, -209}";
},
{
name = center;
position = "{597, 870}";
},
{
name = top;
position = "{597, 1320}";
},
{
name = topleft;
position = "{79, 1320}";
}
);
layerId = "825DD155-F87C-490A-ABDF-19954D756790";
shapes = (
{
closed = 1;
nodes = (
(913,0,l),
(1082,0,l),
(1082,1320,l),
(913,1320,l),
(913,739,l),
(280,739,l),
(280,1320,l),
(111,1320,l),
(111,0,l),
(280,0,l),
(280,585,l),
(913,585,l)
);
}
);
width = 1241;
},
{
anchors = (
{
name = bottom;
position = "{586, -165}";
},
{
name = center;
position = "{586, 826}";
},
{
name = top;
position = "{586, 1320}";
},
{
name = topleft;
position = "{118, 1320}";
}
);
layerId = "01003CDD-FB01-4E06-850F-7A3DCDD105CB";
shapes = (
{
closed = 1;
nodes = (
(978,0,l),
(1038,0,l),
(1038,1320,l),
(978,1320,l),
(978,694,l),
(195,694,l),
(195,1320,l),
(134,1320,l),
(134,0,l),
(195,0,l),
(195,630,l),
(978,630,l)
);
}
);
width = 1211;
}
);
leftKerningGroup = H;
rightKerningGroup = H;
unicode = 72;
},
{
glyphname = Hbar;
layers = (
{
layerId = "004841D3-970D-426C-AC4F-50F76441CB62";
name = "#instance";
shapes = (
{
closed = 1;
nodes = (
(79,1006,l),
(1098,1006,l),
(1098,1069,l),
(79,1069,l)
);
},
{
closed = 1;
nodes = (
(978,0,l),
(1038,0,l),
(1038,1320,l),
(978,1320,l),
(978,694,l),
(195,694,l),
(195,1320,l),
(134,1320,l),
(134,0,l),
(195,0,l),
(195,630,l),
(978,630,l)
);
}
);
width = 1211;
},
{
layerId = "C0D83D2B-9CDF-4EFD-A4CD-122316F7B684";
shapes = (
{
closed = 1;
nodes = (
(-34,954,l),
(1258,954,l),
(1258,1194,l),
(-34,1194,l)
);
},
{
closed = 1;
nodes = (
(784,0,l),
(1170,0,l),
(1170,1320,l),
(784,1320,l),
(784,829,l),
(451,829,l),
(451,1320,l),
(64,1320,l),
(64,0,l),
(451,0,l),
(451,494,l),
(784,494,l)
);
}
);
width = 1302;
},
{
layerId = "825DD155-F87C-490A-ABDF-19954D756790";
shapes = (
{
closed = 1;
nodes = (
(41,989,l),
(1151,989,l),
(1151,1111,l),
(41,1111,l)
);
},
{
closed = 1;
nodes = (
(913,0,l),
(1082,0,l),
(1082,1320,l),
(913,1320,l),
(913,739,l),
(280,739,l),
(280,1320,l),
(111,1320,l),
(111,0,l),
(280,0,l),
(280,585,l),
(913,585,l)
);
}
);
width = 1241;
},
{
layerId = "01003CDD-FB01-4E06-850F-7A3DCDD105CB";
shapes = (
{
closed = 1;
nodes = (
(79,1006,l),
(1098,1006,l),
(1098,1069,l),
(79,1069,l)
);
},
{
closed = 1;
nodes = (
(978,0,l),
(1038,0,l),
(1038,1320,l),
(978,1320,l),
(978,694,l),
(195,694,l),
(195,1320,l),
(134,1320,l),
(134,0,l),
(195,0,l),
(195,630,l),
(978,630,l)
);
}
);
width = 1211;
}
);
leftKerningGroup = H;
rightKerningGroup = H;
unicode = 294;
},
{
glyphname = Hcircumflex;
layers = (
{
layerId = "004841D3-970D-426C-AC4F-50F76441CB62";
name = "#instance";
shapes = (
{
closed = 1;
nodes = (
(978,0,l),
(1038,0,l),
(1038,1320,l),
(978,1320,l),
(978,694,l),
(195,694,l),
(195,1320,l),
(134,1320,l),
(134,0,l),
(195,0,l),
(195,630,l),
(978,630,l)
);
},
{
closed = 1;
nodes = (
(585,1559,l),
(792,1407,l),
(840,1473,l),
(585,1660,l),
(331,1474,l),
(380,1409,l)
);
}
);
width = 1211;
},
{
layerId = "C0D83D2B-9CDF-4EFD-A4CD-122316F7B684";
shapes = (
{
closed = 1;
nodes = (
(784,0,l),
(1170,0,l),
(1170,1320,l),
(784,1320,l),
(784,829,l),
(451,829,l),
(451,1320,l),
(64,1320,l),
(64,0,l),
(451,0,l),
(451,494,l),
(784,494,l)
);
},
{
closed = 1;
nodes = (
(618,1582,l),
(876,1393,l),
(1007,1567,l),
(618,1852,l),
(228,1567,l),
(359,1393,l)
);
}
);
width = 1302;
},
{
layerId = "825DD155-F87C-490A-ABDF-19954D756790";
shapes = (
{
closed = 1;
nodes = (
(913,0,l),
(1082,0,l),
(1082,1320,l),
(913,1320,l),
(913,739,l),
(280,739,l),
(280,1320,l),
(111,1320,l),
(111,0,l),
(280,0,l),
(280,585,l),
(913,585,l)
);
},
{
closed = 1;
nodes = (
(596,1567,l),
(820,1402,l),
(896,1504,l),
(596,1724,l),
(297,1505,l),
(373,1404,l)
);
}
);
width = 1241;
},
{
layerId = "01003CDD-FB01-4E06-850F-7A3DCDD105CB";
shapes = (
{
closed = 1;
nodes = (
(978,0,l),
(1038,0,l),
(1038,1320,l),
(978,1320,l),
(978,694,l),
(195,694,l),
(195,1320,l),
(134,1320,l),
(134,0,l),
(195,0,l),
(195,630,l),
(978,630,l)
);
},
{
closed = 1;
nodes = (
(585,1559,l),
(792,1407,l),
(840,1473,l),
(585,1660,l),
(331,1474,l),
(380,1409,l)
);
}
);
width = 1211;
}
);
unicode = 292;
},
{
glyphname = I;
layers = (
{
anchors = (
{
name = bottom;
position = "{182, 0}";
},
{
name = ogonek;
position = "{299, 16}";
},
{
name = top;
position = "{182, 1320}";
},
{
name = topleft;
position = "{67, 1320}";
}
);
layerId = "004841D3-970D-426C-AC4F-50F76441CB62";
name = "#instance";
shapes = (
{
closed = 1;
nodes = (
(152,0,l),
(216,0,l),
(216,1320,l),
(152,1320,l)
);
}
);
width = 405;
},
{
anchors = (
{
name = bottom;
position = "{266, 0}";
},
{
name = ogonek;
position = "{491, 16}";
},
{
name = top;
position = "{266, 1320}";
},
{
name = topleft;
position = "{16, 1320}";
}
);
layerId = "C0D83D2B-9CDF-4EFD-A4CD-122316F7B684";
shapes = (
{
closed = 1;
nodes = (
(72,0,l),
(459,0,l),
(459,1320,l),
(72,1320,l)
);
}
);
width = 592;
},
{
anchors = (
{
name = bottom;
position = "{210, 0}";
},
{
name = ogonek;
position = "{363, 16}";
},
{
name = top;
position = "{210, 1320}";
},
{
name = topleft;
position = "{50, 1320}";
}
);
layerId = "825DD155-F87C-490A-ABDF-19954D756790";
shapes = (
{
closed = 1;
nodes = (
(125,0,l),
(297,0,l),
(297,1320,l),
(125,1320,l)
);
}
);
width = 467;
},
{
anchors = (
{
name = bottom;
position = "{182, 0}";
},
{
name = ogonek;
position = "{299, 16}";
},
{
name = top;
position = "{182, 1320}";
},
{
name = topleft;
position = "{67, 1320}";
}
);
layerId = "01003CDD-FB01-4E06-850F-7A3DCDD105CB";
shapes = (
{
closed = 1;
nodes = (
(152,0,l),
(216,0,l),
(216,1320,l),
(152,1320,l)
);
}
);
width = 405;
}
);
leftKerningGroup = H;
rightKerningGroup = H;
unicode = 73;
},
{
glyphname = Iacute;
layers = (
{
layerId = "004841D3-970D-426C-AC4F-50F76441CB62";
name = "#instance";
shapes = (
{
closed = 1;
nodes = (
(152,0,l),
(216,0,l),
(216,1320,l),
(152,1320,l)
);
},
{
closed = 1;
nodes = (
(416,1576,l),
(357,1651,l),
(69,1425,l),
(108,1376,l)
);
}
);
width = 405;
},
{
layerId = "C0D83D2B-9CDF-4EFD-A4CD-122316F7B684";
shapes = (
{
closed = 1;
nodes = (
(72,0,l),
(459,0,l),
(459,1320,l),
(72,1320,l)
);
},
{
closed = 1;
nodes = (
(584,1605,l),
(408,1827,l),
(68,1526,l),
(177,1376,l)
);
}
);
width = 592;
},
{
layerId = "825DD155-F87C-490A-ABDF-19954D756790";
shapes = (
{
closed = 1;
nodes = (
(125,0,l),
(297,0,l),
(297,1320,l),
(125,1320,l)
);
},
{
closed = 1;
nodes = (
(472,1586,l),
(374,1710,l),
(69,1459,l),
(131,1376,l)
);
}
);
width = 467;
},
{
layerId = "01003CDD-FB01-4E06-850F-7A3DCDD105CB";
shapes = (
{
closed = 1;
nodes = (
(152,0,l),
(216,0,l),
(216,1320,l),
(152,1320,l)
);
},
{
closed = 1;
nodes = (
(416,1576,l),
(357,1651,l),
(69,1425,l),
(108,1376,l)
);
}
);
width = 405;
}
);
unicode = 205;
},
{
glyphname = Ibreve;
layers = (
{
layerId = "004841D3-970D-426C-AC4F-50F76441CB62";
name = "#instance";
shapes = (
{
closed = 1;
nodes = (
(152,0,l),
(216,0,l),
(216,1320,l),
(152,1320,l)
);
},
{
closed = 1;
nodes = (
(329,1580,l),
(318,1525,o),
(270,1452,o),
(182,1452,cs),
(94,1452,o),
(44,1525,o),
(33,1580,c),
(-50,1559,l),
(-42,1485,o),
(39,1380,o),
(182,1380,cs),
(326,1380,o),
(406,1489,o),
(414,1559,c)
);
}
);
width = 405;
},
{
layerId = "C0D83D2B-9CDF-4EFD-A4CD-122316F7B684";
shapes = (
{
closed = 1;
nodes = (
(72,0,l),
(459,0,l),
(459,1320,l),
(72,1320,l)
);
},
{
closed = 1;
nodes = (
(418,1722,l),
(412,1655,o),
(366,1567,o),
(266,1567,cs),
(165,1567,o),
(121,1655,o),
(115,1722,c),
(-97,1669,l),
(-76,1489,o),
(68,1384,o),
(266,1384,cs),
(469,1384,o),
(609,1495,o),
(628,1669,c)
);
}
);
width = 592;
},
{
layerId = "825DD155-F87C-490A-ABDF-19954D756790";
shapes = (
{
closed = 1;
nodes = (
(125,0,l),
(297,0,l),
(297,1320,l),
(125,1320,l)
);
},
{
closed = 1;
nodes = (
(358,1627,l),
(349,1568,o),
(302,1490,o),
(210,1490,cs),
(117,1490,o),
(69,1568,o),
(60,1627,c),
(-66,1596,l),
(-54,1486,o),
(48,1381,o),
(210,1381,cs),
(373,1381,o),
(473,1491,o),
(485,1596,c)
);
}
);
width = 467;
},
{
layerId = "01003CDD-FB01-4E06-850F-7A3DCDD105CB";
shapes = (
{
closed = 1;
nodes = (
(152,0,l),
(216,0,l),
(216,1320,l),
(152,1320,l)
);
},
{
closed = 1;
nodes = (
(329,1580,l),
(318,1525,o),
(270,1452,o),
(182,1452,cs),
(94,1452,o),
(44,1525,o),
(33,1580,c),
(-50,1559,l),
(-42,1485,o),
(39,1380,o),
(182,1380,cs),
(326,1380,o),
(406,1489,o),
(414,1559,c)
);
}
);
width = 405;
}
);
unicode = 300;
},
{
glyphname = Icircumflex;
layers = (
{
layerId = "004841D3-970D-426C-AC4F-50F76441CB62";
name = "#instance";
shapes = (
{
closed = 1;
nodes = (
(152,0,l),
(216,0,l),
(216,1320,l),
(152,1320,l)
);
},
{
closed = 1;
nodes = (
(181,1559,l),
(388,1407,l),
(436,1473,l),
(181,1660,l),
(-73,1474,l),
(-24,1409,l)
);
}
);
width = 405;
},
{
layerId = "C0D83D2B-9CDF-4EFD-A4CD-122316F7B684";
shapes = (
{
closed = 1;
nodes = (
(72,0,l),
(459,0,l),
(459,1320,l),
(72,1320,l)
);
},
{
closed = 1;
nodes = (
(266,1582,l),
(524,1393,l),
(655,1567,l),
(266,1852,l),
(-124,1567,l),
(7,1393,l)
);
}
);
width = 592;
},
{
layerId = "825DD155-F87C-490A-ABDF-19954D756790";
shapes = (
{
closed = 1;
nodes = (
(125,0,l),
(297,0,l),
(297,1320,l),
(125,1320,l)
);
},
{
closed = 1;
nodes = (
(209,1567,l),
(433,1402,l),
(509,1504,l),
(209,1724,l),
(-90,1505,l),
(-14,1404,l)
);
}
);
width = 467;
},
{
layerId = "01003CDD-FB01-4E06-850F-7A3DCDD105CB";
shapes = (
{
closed = 1;
nodes = (
(152,0,l),
(216,0,l),
(216,1320,l),
(152,1320,l)
);
},
{
closed = 1;
nodes = (
(181,1559,l),
(388,1407,l),
(436,1473,l),
(181,1660,l),
(-73,1474,l),
(-24,1409,l)
);
}
);
width = 405;
}
);
unicode = 206;
},
{
glyphname = Idblgrave;
layers = (
{
layerId = "004841D3-970D-426C-AC4F-50F76441CB62";
name = "#instance";
shapes = (
{
closed = 1;
nodes = (
(152,0,l),
(216,0,l),
(216,1320,l),
(152,1320,l)
);
},
{
closed = 1;
nodes = (
(520,1420,l),
(232,1646,l),
(173,1571,l),
(481,1371,l)
);
},
{
closed = 1;
nodes = (
(190,1420,l),
(-98,1646,l),
(-157,1571,l),
(151,1371,l)
);
}
);
width = 405;
},
{
layerId = "C0D83D2B-9CDF-4EFD-A4CD-122316F7B684";
shapes = (
{
closed = 1;
nodes = (
(72,0,l),
(459,0,l),
(459,1320,l),
(72,1320,l)
);
},
{
closed = 1;
nodes = (
(753,1528,l),
(413,1829,l),
(237,1607,l),
(644,1378,l)
);
},
{
closed = 1;
nodes = (
(295,1528,l),
(-45,1829,l),
(-221,1607,l),
(186,1378,l)
);
}
);
width = 592;
},
{
layerId = "825DD155-F87C-490A-ABDF-19954D756790";
shapes = (
{
closed = 1;
nodes = (
(125,0,l),
(297,0,l),
(297,1320,l),
(125,1320,l)
);
},
{
closed = 1;
nodes = (
(598,1456,l),
(292,1707,l),
(194,1583,l),
(535,1373,l)
);
},
{
closed = 1;
nodes = (
(225,1456,l),
(-80,1707,l),
(-178,1583,l),
(163,1373,l)
);
}
);
width = 467;
},
{
layerId = "01003CDD-FB01-4E06-850F-7A3DCDD105CB";
shapes = (
{
closed = 1;
nodes = (
(152,0,l),
(216,0,l),
(216,1320,l),
(152,1320,l)
);
},
{
closed = 1;
nodes = (
(520,1420,l),
(232,1646,l),
(173,1571,l),
(481,1371,l)
);
},
{
closed = 1;
nodes = (
(190,1420,l),
(-98,1646,l),
(-157,1571,l),
(151,1371,l)
);
}
);
width = 405;
}
);
unicode = 520;
},
{
glyphname = Idieresis;
layers = (
{
layerId = "004841D3-970D-426C-AC4F-50F76441CB62";
name = "#instance";
shapes = (
{
closed = 1;
nodes = (
(152,0,l),
(216,0,l),
(216,1320,l),
(152,1320,l)
);
},
{
closed = 1;
nodes = (
(-48,1566,o),
(-81,1531,o),
(-81,1492,cs),
(-81,1454,o),
(-48,1419,o),
(-8,1419,cs),
(31,1419,o),
(66,1452,o),
(66,1492,cs),
(66,1532,o),
(31,1566,o),
(-8,1566,cs)
);
},
{
closed = 1;
nodes = (
(331,1566,o),
(298,1531,o),
(298,1492,cs),
(298,1454,o),
(331,1419,o),
(371,1419,cs),
(410,1419,o),
(445,1452,o),
(445,1492,cs),
(445,1532,o),
(410,1566,o),
(371,1566,cs)
);
}
);
width = 405;
},
{
layerId = "C0D83D2B-9CDF-4EFD-A4CD-122316F7B684";
shapes = (
{
closed = 1;
nodes = (
(72,0,l),
(459,0,l),
(459,1320,l),
(72,1320,l)
);
},
{
closed = 1;
nodes = (
(-36,1742,o),
(-113,1663,o),
(-113,1567,cs),
(-113,1471,o),
(-36,1393,o),
(61,1393,cs),
(157,1393,o),
(234,1471,o),
(234,1567,cs),
(234,1663,o),
(157,1742,o),
(61,1742,cs)
);
},
{
closed = 1;
nodes = (
(375,1742,o),
(298,1663,o),
(298,1567,cs),
(298,1471,o),
(375,1393,o),
(472,1393,cs),
(568,1393,o),
(645,1471,o),
(645,1567,cs),
(645,1663,o),
(568,1742,o),
(472,1742,cs)
);
}
);
width = 592;
},
{
layerId = "825DD155-F87C-490A-ABDF-19954D756790";
shapes = (
{
closed = 1;
nodes = (
(125,0,l),
(297,0,l),
(297,1320,l),
(125,1320,l)
);
},
{
closed = 1;
nodes = (
(-44,1625,o),
(-91,1575,o),
(-91,1517,cs),
(-91,1460,o),
(-44,1410,o),
(15,1410,cs),
(73,1410,o),
(122,1458,o),
(122,1517,cs),
(122,1576,o),
(73,1625,o),
(15,1625,cs)
);
},
{
closed = 1;
nodes = (
(346,1625,o),
(298,1575,o),
(298,1517,cs),
(298,1460,o),
(346,1410,o),
(405,1410,cs),
(463,1410,o),
(512,1458,o),
(512,1517,cs),
(512,1576,o),
(463,1625,o),
(405,1625,cs)
);
}
);
width = 467;
},
{
layerId = "01003CDD-FB01-4E06-850F-7A3DCDD105CB";
shapes = (
{
closed = 1;
nodes = (
(152,0,l),
(216,0,l),
(216,1320,l),
(152,1320,l)
);
},
{
closed = 1;
nodes = (
(-48,1566,o),
(-81,1531,o),
(-81,1492,cs),
(-81,1454,o),
(-48,1419,o),
(-8,1419,cs),
(31,1419,o),
(66,1452,o),
(66,1492,cs),
(66,1532,o),
(31,1566,o),
(-8,1566,cs)
);
},
{
closed = 1;
nodes = (
(331,1566,o),
(298,1531,o),
(298,1492,cs),
(298,1454,o),
(331,1419,o),
(371,1419,cs),
(410,1419,o),
(445,1452,o),
(445,1492,cs),
(445,1532,o),
(410,1566,o),
(371,1566,cs)
);
}
);
width = 405;
}
);
unicode = 207;
},
{
glyphname = Idotaccent;
layers = (
{
layerId = "004841D3-970D-426C-AC4F-50F76441CB62";
name = "#instance";
shapes = (
{
closed = 1;
nodes = (
(152,0,l),
(216,0,l),
(216,1320,l),
(152,1320,l)
);
},
{
closed = 1;
nodes = (
(141,1566,o),
(108,1531,o),
(108,1492,cs),
(108,1454,o),
(141,1419,o),
(181,1419,cs),
(220,1419,o),
(255,1452,o),
(255,1492,cs),
(255,1532,o),
(220,1566,o),
(181,1566,cs)
);
}
);
width = 405;
},
{
layerId = "C0D83D2B-9CDF-4EFD-A4CD-122316F7B684";
shapes = (
{
closed = 1;
nodes = (
(72,0,l),
(459,0,l),
(459,1320,l),
(72,1320,l)
);
},
{
closed = 1;
nodes = (
(169,1738,o),
(92,1659,o),
(92,1563,cs),
(92,1467,o),
(169,1389,o),
(266,1389,cs),
(362,1389,o),
(439,1467,o),
(439,1563,cs),
(439,1659,o),
(362,1738,o),
(266,1738,cs)
);
}
);
width = 592;
},
{
layerId = "825DD155-F87C-490A-ABDF-19954D756790";
shapes = (
{
closed = 1;
nodes = (
(125,0,l),
(297,0,l),
(297,1320,l),
(125,1320,l)
);
},
{
closed = 1;
nodes = (
(150,1623,o),
(103,1574,o),
(103,1516,cs),
(103,1458,o),
(150,1409,o),
(209,1409,cs),
(267,1409,o),
(316,1457,o),
(316,1516,cs),
(316,1574,o),
(267,1623,o),
(209,1623,cs)
);
}
);
width = 467;
},
{
layerId = "01003CDD-FB01-4E06-850F-7A3DCDD105CB";
shapes = (
{
closed = 1;
nodes = (
(152,0,l),
(216,0,l),
(216,1320,l),
(152,1320,l)
);
},
{
closed = 1;
nodes = (
(141,1566,o),
(108,1531,o),
(108,1492,cs),
(108,1454,o),
(141,1419,o),
(181,1419,cs),
(220,1419,o),
(255,1452,o),
(255,1492,cs),
(255,1532,o),
(220,1566,o),
(181,1566,cs)
);
}
);
width = 405;
}
);
unicode = 304;
},
{
glyphname = Idotbelow;
layers = (
{
layerId = "004841D3-970D-426C-AC4F-50F76441CB62";
name = "#instance";
shapes = (
{
closed = 1;
nodes = (
(152,0,l),
(216,0,l),
(216,1320,l),
(152,1320,l)
);
},
{
closed = 1;
nodes = (
(141,-96,o),
(108,-131,o),
(108,-170,cs),
(108,-208,o),
(141,-243,o),
(181,-243,cs),
(220,-243,o),
(255,-210,o),
(255,-170,cs),
(255,-130,o),
(220,-96,o),
(181,-96,cs)
);
}
);
width = 405;
},
{
layerId = "C0D83D2B-9CDF-4EFD-A4CD-122316F7B684";
shapes = (
{
closed = 1;
nodes = (
(72,0,l),
(459,0,l),
(459,1320,l),
(72,1320,l)
);
},
{
closed = 1;
nodes = (
(193,-85,o),
(135,-145,o),
(135,-217,cs),
(135,-289,o),
(193,-348,o),
(266,-348,cs),
(338,-348,o),
(396,-289,o),
(396,-217,cs),
(396,-145,o),
(338,-85,o),
(266,-85,cs)
);
}
);
width = 592;
},
{
layerId = "825DD155-F87C-490A-ABDF-19954D756790";
shapes = (
{
closed = 1;
nodes = (
(125,0,l),
(297,0,l),
(297,1320,l),
(125,1320,l)
);
},
{
closed = 1;
nodes = (
(158,-92,o),
(117,-136,o),
(117,-186,cs),
(117,-235,o),
(158,-278,o),
(209,-278,cs),
(259,-278,o),
(302,-236,o),
(302,-186,cs),
(302,-135,o),
(259,-92,o),
(209,-92,cs)
);
}
);
width = 467;
},
{
layerId = "01003CDD-FB01-4E06-850F-7A3DCDD105CB";
shapes = (
{
closed = 1;
nodes = (
(152,0,l),
(216,0,l),
(216,1320,l),
(152,1320,l)
);
},
{
closed = 1;
nodes = (
(141,-96,o),
(108,-131,o),
(108,-170,cs),
(108,-208,o),
(141,-243,o),
(181,-243,cs),
(220,-243,o),
(255,-210,o),
(255,-170,cs),
(255,-130,o),
(220,-96,o),
(181,-96,cs)
);
}
);
width = 405;
}
);
unicode = 7882;
},
{
glyphname = Igrave;
layers = (
{
layerId = "004841D3-970D-426C-AC4F-50F76441CB62";
name = "#instance";
shapes = (
{
closed = 1;
nodes = (
(152,0,l),
(216,0,l),
(216,1320,l),
(152,1320,l)
);
},
{
closed = 1;
nodes = (
(277,1425,l),
(-11,1651,l),
(-70,1576,l),
(238,1376,l)
);
}
);
width = 405;
},
{
layerId = "C0D83D2B-9CDF-4EFD-A4CD-122316F7B684";
shapes = (
{
closed = 1;
nodes = (
(72,0,l),
(459,0,l),
(459,1320,l),
(72,1320,l)
);
},
{
closed = 1;
nodes = (
(443,1526,l),
(103,1827,l),
(-73,1605,l),
(334,1376,l)
);
}
);
width = 592;
},
{
layerId = "825DD155-F87C-490A-ABDF-19954D756790";
shapes = (
{
closed = 1;
nodes = (
(125,0,l),
(297,0,l),
(297,1320,l),
(125,1320,l)
);
},
{
closed = 1;
nodes = (
(333,1459,l),
(27,1710,l),
(-71,1586,l),
(270,1376,l)
);
}
);
width = 467;
},
{
layerId = "01003CDD-FB01-4E06-850F-7A3DCDD105CB";
shapes = (
{
closed = 1;
nodes = (
(152,0,l),
(216,0,l),
(216,1320,l),
(152,1320,l)
);
},
{
closed = 1;
nodes = (
(277,1425,l),
(-11,1651,l),
(-70,1576,l),
(238,1376,l)
);
}
);
width = 405;
}
);
unicode = 204;
},
{
glyphname = Ihookabove;
layers = (
{
layerId = "004841D3-970D-426C-AC4F-50F76441CB62";
name = "#instance";
shapes = (
{
closed = 1;
nodes = (
(152,0,l),
(216,0,l),
(216,1320,l),
(152,1320,l)
);
},
{
closed = 1;
nodes = (
(167,1402,l),
(254,1439,o),
(380,1495,o),
(380,1622,cs),
(380,1751,o),
(284,1790,o),
(183,1790,cs),
(76,1790,o),
(7,1758,o),
(-17,1742,c),
(-17,1678,l),
(23,1698,o),
(107,1727,o),
(164,1727,cs),
(225,1727,o),
(313,1721,o),
(313,1614,cs),
(313,1517,o),
(185,1468,o),
(129,1454,c)
);
}
);
width = 405;
},
{
layerId = "C0D83D2B-9CDF-4EFD-A4CD-122316F7B684";
shapes = (
{
closed = 1;
nodes = (
(72,0,l),
(459,0,l),
(459,1320,l),
(72,1320,l)
);
},
{
closed = 1;
nodes = (
(227,1385,l),
(304,1404,o),
(504,1476,o),
(504,1624,cs),
(504,1763,o),
(365,1814,o),
(227,1814,cs),
(104,1814,o),
(51,1787,o),
(27,1773,c),
(27,1616,l),
(67,1633,o),
(123,1654,o),
(181,1654,cs),
(242,1654,o),
(277,1647,o),
(277,1599,cs),
(277,1550,o),
(181,1508,o),
(141,1499,c)
);
}
);
width = 592;
},
{
layerId = "825DD155-F87C-490A-ABDF-19954D756790";
shapes = (
{
closed = 1;
nodes = (
(125,0,l),
(297,0,l),
(297,1320,l),
(125,1320,l)
);
},
{
closed = 1;
nodes = (
(187,1396,l),
(271,1427,o),
(422,1489,o),
(422,1623,cs),
(422,1755,o),
(311,1798,o),
(198,1798,cs),
(86,1798,o),
(22,1768,o),
(-2,1752,c),
(-2,1657,l),
(38,1676,o),
(113,1703,o),
(170,1703,cs),
(231,1703,o),
(301,1696,o),
(301,1609,cs),
(301,1528,o),
(184,1481,o),
(133,1469,c)
);
}
);
width = 467;
},
{
layerId = "01003CDD-FB01-4E06-850F-7A3DCDD105CB";
shapes = (
{
closed = 1;
nodes = (
(152,0,l),
(216,0,l),
(216,1320,l),
(152,1320,l)
);
},
{
closed = 1;
nodes = (
(167,1402,l),
(254,1439,o),
(380,1495,o),
(380,1622,cs),
(380,1751,o),
(284,1790,o),
(183,1790,cs),
(76,1790,o),
(7,1758,o),
(-17,1742,c),
(-17,1678,l),
(23,1698,o),
(107,1727,o),
(164,1727,cs),
(225,1727,o),
(313,1721,o),
(313,1614,cs),
(313,1517,o),
(185,1468,o),
(129,1454,c)
);
}
);
width = 405;
}
);
unicode = 7880;
},
{
glyphname = Iinvertedbreve;
layers = (
{
layerId = "004841D3-970D-426C-AC4F-50F76441CB62";
name = "#instance";
shapes = (
{
closed = 1;
nodes = (
(152,0,l),
(216,0,l),
(216,1320,l),
(152,1320,l)
);
},
{
closed = 1;
nodes = (
(35,1409,l),
(46,1464,o),
(94,1537,o),
(182,1537,cs),
(270,1537,o),
(320,1464,o),
(331,1409,c),
(414,1430,l),
(406,1504,o),
(325,1609,o),
(182,1609,cs),
(38,1609,o),
(-42,1500,o),
(-50,1430,c)
);
}
);
width = 405;
},
{
layerId = "C0D83D2B-9CDF-4EFD-A4CD-122316F7B684";
shapes = (
{
closed = 1;
nodes = (
(72,0,l),
(459,0,l),
(459,1320,l),
(72,1320,l)
);
},
{
closed = 1;
nodes = (
(114,1381,l),
(120,1447,o),
(166,1534,o),
(265,1534,cs),
(365,1534,o),
(409,1447,o),
(415,1381,c),
(625,1433,l),
(605,1612,o),
(461,1716,o),
(265,1716,cs),
(64,1716,o),
(-74,1607,o),
(-94,1433,c)
);
}
);
width = 592;
},
{
layerId = "825DD155-F87C-490A-ABDF-19954D756790";
shapes = (
{
closed = 1;
nodes = (
(125,0,l),
(297,0,l),
(297,1320,l),
(125,1320,l)
);
},
{
closed = 1;
nodes = (
(62,1400,l),
(71,1458,o),
(118,1536,o),
(210,1536,cs),
(302,1536,o),
(350,1458,o),
(359,1400,c),
(485,1431,l),
(473,1540,o),
(371,1645,o),
(210,1645,cs),
(47,1645,o),
(-52,1536,o),
(-64,1431,c)
);
}
);
width = 467;
},
{
layerId = "01003CDD-FB01-4E06-850F-7A3DCDD105CB";
shapes = (
{
closed = 1;
nodes = (
(152,0,l),
(216,0,l),
(216,1320,l),
(152,1320,l)
);
},
{
closed = 1;
nodes = (
(35,1409,l),
(46,1464,o),
(94,1537,o),
(182,1537,cs),
(270,1537,o),
(320,1464,o),
(331,1409,c),
(414,1430,l),
(406,1504,o),
(325,1609,o),
(182,1609,cs),
(38,1609,o),
(-42,1500,o),
(-50,1430,c)
);
}
);
width = 405;
}
);
unicode = 522;
},
{
glyphname = Imacron;
layers = (
{
layerId = "004841D3-970D-426C-AC4F-50F76441CB62";
name = "#instance";
shapes = (
{
closed = 1;
nodes = (
(152,0,l),
(216,0,l),
(216,1320,l),
(152,1320,l)
);
},
{
closed = 1;
nodes = (
(448,1466,l),
(448,1530,l),
(-85,1530,l),
(-85,1466,l)
);
}
);
width = 405;
},
{
layerId = "C0D83D2B-9CDF-4EFD-A4CD-122316F7B684";
shapes = (
{
closed = 1;
nodes = (
(72,0,l),
(459,0,l),
(459,1320,l),
(72,1320,l)
);
},
{
closed = 1;
nodes = (
(614,1439,l),
(614,1676,l),
(-82,1676,l),
(-82,1439,l)
);
}
);
width = 592;
},
{
layerId = "825DD155-F87C-490A-ABDF-19954D756790";
shapes = (
{
closed = 1;
nodes = (
(125,0,l),
(297,0,l),
(297,1320,l),
(125,1320,l)
);
},
{
closed = 1;
nodes = (
(503,1457,l),
(503,1579,l),
(-84,1579,l),
(-84,1457,l)
);
}
);
width = 467;
},
{
layerId = "01003CDD-FB01-4E06-850F-7A3DCDD105CB";
shapes = (
{
closed = 1;
nodes = (
(152,0,l),
(216,0,l),
(216,1320,l),
(152,1320,l)
);
},
{
closed = 1;
nodes = (
(448,1466,l),
(448,1530,l),
(-85,1530,l),
(-85,1466,l)
);
}
);
width = 405;
}
);
unicode = 298;
},
{
glyphname = Iogonek;
layers = (
{
layerId = "004841D3-970D-426C-AC4F-50F76441CB62";
name = "#instance";
shapes = (
{
closed = 1;
nodes = (
(152,0,l),
(216,0,l),
(216,1320,l),
(152,1320,l)
);
},
{
closed = 1;
nodes = (
(272,-421,o),
(369,-376,o),
(400,-325,c),
(345,-283,l),
(320,-320,o),
(265,-360,o),
(200,-360,cs),
(125,-360,o),
(61,-336,o),
(61,-245,cs),
(61,-163,o),
(152,-58,o),
(217,0,c),
(174,40,l),
(94,-24,o),
(-13,-144,o),
(-13,-250,cs),
(-13,-389,o),
(97,-421,o),
(181,-421,cs)
);
}
);
width = 405;
},
{
layerId = "C0D83D2B-9CDF-4EFD-A4CD-122316F7B684";
shapes = (
{
closed = 1;
nodes = (
(72,0,l),
(459,0,l),
(459,1320,l),
(72,1320,l)
);
},
{
closed = 1;
nodes = (
(365,-440,o),
(446,-374,o),
(477,-325,c),
(342,-224,l),
(333,-238,o),
(310,-259,o),
(282,-259,cs),
(272,-259,o),
(248,-238,o),
(248,-218,cs),
(248,-136,o),
(290,-45,o),
(322,0,c),
(216,42,l),
(147,-34,o),
(56,-166,o),
(56,-253,cs),
(56,-392,o),
(174,-440,o),
(258,-440,cs)
);
}
);
width = 592;
},
{
layerId = "825DD155-F87C-490A-ABDF-19954D756790";
shapes = (
{
closed = 1;
nodes = (
(125,0,l),
(297,0,l),
(297,1320,l),
(125,1320,l)
);
},
{
closed = 1;
nodes = (
(303,-427,o),
(394,-375,o),
(425,-325,c),
(344,-263,l),
(324,-293,o),
(280,-326,o),
(227,-326,cs),
(174,-326,o),
(123,-303,o),
(123,-236,cs),
(123,-154,o),
(198,-54,o),
(252,0,c),
(188,41,l),
(111,-27,o),
(10,-151,o),
(10,-251,cs),
(10,-390,o),
(122,-427,o),
(206,-427,cs)
);
}
);
width = 467;
},
{
layerId = "01003CDD-FB01-4E06-850F-7A3DCDD105CB";
shapes = (
{
closed = 1;
nodes = (
(152,0,l),
(216,0,l),
(216,1320,l),
(152,1320,l)
);
},
{
closed = 1;
nodes = (
(272,-421,o),
(369,-376,o),
(400,-325,c),
(345,-283,l),
(320,-320,o),
(265,-360,o),
(200,-360,cs),
(125,-360,o),
(61,-336,o),
(61,-245,cs),
(61,-163,o),
(152,-58,o),
(217,0,c),
(174,40,l),
(94,-24,o),
(-13,-144,o),
(-13,-250,cs),
(-13,-389,o),
(97,-421,o),
(181,-421,cs)
);
}
);
width = 405;
}
);
leftKerningGroup = H;
rightKerningGroup = H;
unicode = 302;
},
{
glyphname = Itilde;
layers = (
{
layerId = "004841D3-970D-426C-AC4F-50F76441CB62";
name = "#instance";
shapes = (
{
closed = 1;
nodes = (
(152,0,l),
(216,0,l),
(216,1320,l),
(152,1320,l)
);
},
{
closed = 1;
nodes = (
(148,1492,o),
(190,1415,o),
(310,1415,cs),
(398,1415,o),
(460,1503,o),
(482,1570,c),
(386,1570,l),
(378,1536,o),
(348,1492,o),
(294,1492,cs),
(202,1492,o),
(169,1570,o),
(49,1570,cs),
(-39,1570,o),
(-98,1482,o),
(-118,1415,c),
(-22,1415,l),
(-10,1448,o),
(25,1492,o),
(76,1492,cs)
);
}
);
width = 405;
},
{
layerId = "C0D83D2B-9CDF-4EFD-A4CD-122316F7B684";
shapes = (
{
closed = 1;
nodes = (
(72,0,l),
(459,0,l),
(459,1320,l),
(72,1320,l)
);
},
{
closed = 1;
nodes = (
(214,1479,o),
(298,1407,o),
(426,1407,cs),
(568,1407,o),
(643,1588,o),
(661,1724,c),
(475,1724,l),
(466,1694,o),
(442,1652,o),
(410,1652,cs),
(322,1652,o),
(235,1724,o),
(107,1724,cs),
(-35,1724,o),
(-112,1543,o),
(-130,1407,c),
(56,1407,l),
(64,1438,o),
(86,1479,o),
(118,1479,cs)
);
}
);
width = 592;
},
{
layerId = "825DD155-F87C-490A-ABDF-19954D756790";
shapes = (
{
closed = 1;
nodes = (
(125,0,l),
(297,0,l),
(297,1320,l),
(125,1320,l)
);
},
{
closed = 1;
nodes = (
(170,1488,o),
(226,1412,o),
(349,1412,cs),
(455,1412,o),
(521,1531,o),
(542,1621,c),
(416,1621,l),
(408,1589,o),
(380,1545,o),
(333,1545,cs),
(242,1545,o),
(191,1621,o),
(69,1621,cs),
(-37,1621,o),
(-102,1502,o),
(-122,1412,c),
(4,1412,l),
(15,1445,o),
(46,1488,o),
(90,1488,cs)
);
}
);
width = 467;
},
{
layerId = "01003CDD-FB01-4E06-850F-7A3DCDD105CB";
shapes = (
{
closed = 1;
nodes = (
(152,0,l),
(216,0,l),
(216,1320,l),
(152,1320,l)
);
},
{
closed = 1;
nodes = (
(148,1492,o),
(190,1415,o),
(310,1415,cs),
(398,1415,o),
(460,1503,o),
(482,1570,c),
(386,1570,l),
(378,1536,o),
(348,1492,o),
(294,1492,cs),
(202,1492,o),
(169,1570,o),
(49,1570,cs),
(-39,1570,o),
(-98,1482,o),
(-118,1415,c),
(-22,1415,l),
(-10,1448,o),
(25,1492,o),
(76,1492,cs)
);
}
);
width = 405;
}
);
unicode = 296;
},
